M48
; DRILL file {KiCad (6.0.5)} date Thu Jun 16 08:05:01 2022
; FORMAT={-:-/ absolute / metric / decimal}
; #@! TF.CreationDate,2022-06-16T08:05:01-07:00
; #@! TF.GenerationSoftware,Kicad,Pcbnew,(6.0.5)
; #@! TF.FileFunction,Plated,1,2,PTH
FMAT,2
METRIC
; #@! TA.AperFunction,Plated,PTH,ViaDrill
T1C0.400
; #@! TA.AperFunction,Plated,PTH,ComponentDrill
T2C1.000
; #@! TA.AperFunction,Plated,PTH,ComponentDrill
T3C1.190
; #@! TA.AperFunction,Plated,PTH,ComponentDrill
T4C2.000
%
G90
G05
T1
X112.8Y-94.8
X113.8Y-94.4
X114.8Y-94.4
X115.8Y-94.4
X116.8Y-94.8
X125.2Y-76.6
X125.2Y-77.6
X125.2Y-78.7
X125.6Y-75.6
X125.6Y-79.6
X176.8Y-98.8
X176.8Y-101.2
X177.8Y-100.8
X177.8Y-99.2
X178.9Y-100.8
X178.9Y-99.2
X179.9Y-100.8
X179.9Y-99.2
X180.8Y-98.8
X180.8Y-101.2
T2
X114.8Y-84.0
X114.8Y-90.4
X114.8Y-96.8
X114.8Y-103.2
X114.8Y-109.6
X114.8Y-116.0
X121.2Y-71.2
X121.2Y-77.6
X121.2Y-84.0
X121.2Y-90.4
X121.2Y-96.8
X121.2Y-103.2
X121.2Y-109.6
X121.2Y-116.0
X121.2Y-122.4
X121.2Y-128.8
X127.6Y-71.2
X127.6Y-77.6
X127.6Y-84.0
X127.6Y-90.4
X127.6Y-96.8
X127.6Y-103.2
X127.6Y-109.6
X127.6Y-116.0
X127.6Y-122.4
X127.6Y-128.8
X134.0Y-64.8
X134.0Y-71.2
X134.0Y-77.6
X134.0Y-122.4
X134.0Y-128.8
X134.0Y-135.2
X140.4Y-64.8
X140.4Y-71.2
X140.4Y-77.6
X140.4Y-122.4
X140.4Y-128.8
X140.4Y-135.2
X146.8Y-64.8
X146.8Y-71.2
X146.8Y-77.6
X146.8Y-122.4
X146.8Y-128.8
X146.8Y-135.2
X153.2Y-64.8
X153.2Y-71.2
X153.2Y-77.6
X153.2Y-122.4
X153.2Y-128.8
X153.2Y-135.2
X159.6Y-64.8
X159.6Y-71.2
X159.6Y-77.6
X159.6Y-122.4
X159.6Y-128.8
X159.6Y-135.2
X166.0Y-64.8
X166.0Y-71.2
X166.0Y-77.6
X166.0Y-122.4
X166.0Y-128.8
X166.0Y-135.2
X172.4Y-71.2
X172.4Y-77.6
X172.4Y-84.0
X172.4Y-90.4
X172.4Y-96.8
X172.4Y-103.2
X172.4Y-109.6
X172.4Y-116.0
X172.4Y-122.4
X172.4Y-128.8
X178.8Y-71.2
X178.8Y-77.6
X178.8Y-84.0
X178.8Y-90.4
X178.8Y-96.8
X178.8Y-103.2
X178.8Y-109.6
X178.8Y-116.0
X178.8Y-122.4
X178.8Y-128.8
X185.2Y-84.0
X185.2Y-90.4
X185.2Y-96.8
X185.2Y-103.2
X185.2Y-109.6
X185.2Y-116.0
T3
X99.0Y-78.0
X101.54Y-78.0
X106.0Y-78.0
X108.54Y-78.0
T4
X105.0Y-55.0
X105.0Y-145.0
X195.0Y-55.0
X195.0Y-145.0
T0
M30
