%TF.GenerationSoftware,KiCad,Pcbnew,(6.0.5)*%
%TF.CreationDate,2022-06-16T08:04:58-07:00*%
%TF.ProjectId,LED,4c45442e-6b69-4636-9164-5f7063625858,rev?*%
%TF.SameCoordinates,Original*%
%TF.FileFunction,Paste,Top*%
%TF.FilePolarity,Positive*%
%FSLAX46Y46*%
G04 Gerber Fmt 4.6, Leading zero omitted, Abs format (unit mm)*
G04 Created by KiCad (PCBNEW (6.0.5)) date 2022-06-16 08:04:58*
%MOMM*%
%LPD*%
G01*
G04 APERTURE LIST*
G04 Aperture macros list*
%AMRoundRect*
0 Rectangle with rounded corners*
0 $1 Rounding radius*
0 $2 $3 $4 $5 $6 $7 $8 $9 X,Y pos of 4 corners*
0 Add a 4 corners polygon primitive as box body*
4,1,4,$2,$3,$4,$5,$6,$7,$8,$9,$2,$3,0*
0 Add four circle primitives for the rounded corners*
1,1,$1+$1,$2,$3*
1,1,$1+$1,$4,$5*
1,1,$1+$1,$6,$7*
1,1,$1+$1,$8,$9*
0 Add four rect primitives between the rounded corners*
20,1,$1+$1,$2,$3,$4,$5,0*
20,1,$1+$1,$4,$5,$6,$7,0*
20,1,$1+$1,$6,$7,$8,$9,0*
20,1,$1+$1,$8,$9,$2,$3,0*%
G04 Aperture macros list end*
%ADD10RoundRect,0.367500X-0.367500X0.367500X-0.367500X-0.367500X0.367500X-0.367500X0.367500X0.367500X0*%
%ADD11RoundRect,0.367500X0.367500X-0.367500X0.367500X0.367500X-0.367500X0.367500X-0.367500X-0.367500X0*%
%ADD12RoundRect,0.367500X-0.367500X-0.367500X0.367500X-0.367500X0.367500X0.367500X-0.367500X0.367500X0*%
%ADD13RoundRect,0.367500X0.367500X0.367500X-0.367500X0.367500X-0.367500X-0.367500X0.367500X-0.367500X0*%
G04 APERTURE END LIST*
D10*
%TO.C,D42*%
X180799995Y-81999997D03*
X180799995Y-85999997D03*
D11*
X176799995Y-85999997D03*
X176799995Y-81999997D03*
%TD*%
D10*
%TO.C,D47*%
X180799995Y-113999997D03*
X180799995Y-117999997D03*
D11*
X176799995Y-117999997D03*
X176799995Y-113999997D03*
%TD*%
D12*
%TO.C,D38*%
X163999995Y-69199997D03*
X167999995Y-69199997D03*
D13*
X167999995Y-73199997D03*
X163999995Y-73199997D03*
%TD*%
D12*
%TO.C,D3*%
X138399995Y-75599997D03*
X142399995Y-75599997D03*
D13*
X142399995Y-79599997D03*
X138399995Y-79599997D03*
%TD*%
D12*
%TO.C,D2*%
X131999995Y-75599997D03*
X135999995Y-75599997D03*
D13*
X135999995Y-79599997D03*
X131999995Y-79599997D03*
%TD*%
D10*
%TO.C,D48*%
X180799995Y-120399997D03*
X180799995Y-124399997D03*
D11*
X176799995Y-124399997D03*
X176799995Y-120399997D03*
%TD*%
D12*
%TO.C,D1*%
X125599995Y-75599997D03*
X129599995Y-75599997D03*
D13*
X129599995Y-79599997D03*
X125599995Y-79599997D03*
%TD*%
%TO.C,D55*%
X142399995Y-130799997D03*
X138399995Y-130799997D03*
D12*
X138399995Y-126799997D03*
X142399995Y-126799997D03*
%TD*%
%TO.C,D4*%
X144799995Y-75599997D03*
X148799995Y-75599997D03*
D13*
X148799995Y-79599997D03*
X144799995Y-79599997D03*
%TD*%
%TO.C,D82*%
X148799995Y-137199997D03*
X144799995Y-137199997D03*
D12*
X144799995Y-133199997D03*
X148799995Y-133199997D03*
%TD*%
%TO.C,D32*%
X125599995Y-69199997D03*
X129599995Y-69199997D03*
D13*
X129599995Y-73199997D03*
X125599995Y-73199997D03*
%TD*%
D10*
%TO.C,D76*%
X187199995Y-101199997D03*
X187199995Y-105199997D03*
D11*
X183199995Y-105199997D03*
X183199995Y-101199997D03*
%TD*%
D10*
%TO.C,D75*%
X187199995Y-94799997D03*
X187199995Y-98799997D03*
D11*
X183199995Y-98799997D03*
X183199995Y-94799997D03*
%TD*%
D12*
%TO.C,D70*%
X151199995Y-62799997D03*
X155199995Y-62799997D03*
D13*
X155199995Y-66799997D03*
X151199995Y-66799997D03*
%TD*%
D11*
%TO.C,D87*%
X112799995Y-105199997D03*
X112799995Y-101199997D03*
D10*
X116799995Y-101199997D03*
X116799995Y-105199997D03*
%TD*%
D11*
%TO.C,D26*%
X125599995Y-98799997D03*
X125599995Y-94799997D03*
D10*
X129599995Y-94799997D03*
X129599995Y-98799997D03*
%TD*%
%TO.C,D13*%
X174399995Y-107599997D03*
X174399995Y-111599997D03*
D11*
X170399995Y-111599997D03*
X170399995Y-107599997D03*
%TD*%
D13*
%TO.C,D53*%
X155199995Y-130799997D03*
X151199995Y-130799997D03*
D12*
X151199995Y-126799997D03*
X155199995Y-126799997D03*
%TD*%
D11*
%TO.C,D86*%
X112799995Y-111599997D03*
X112799995Y-107599997D03*
D10*
X116799995Y-107599997D03*
X116799995Y-111599997D03*
%TD*%
%TO.C,D8*%
X174399995Y-75599997D03*
X174399995Y-79599997D03*
D11*
X170399995Y-79599997D03*
X170399995Y-75599997D03*
%TD*%
%TO.C,D62*%
X119199995Y-105199997D03*
X119199995Y-101199997D03*
D10*
X123199995Y-101199997D03*
X123199995Y-105199997D03*
%TD*%
D13*
%TO.C,D65*%
X116799995Y-92399997D03*
X112799995Y-92399997D03*
D12*
X112799995Y-88399997D03*
X116799995Y-88399997D03*
%TD*%
%TO.C,D7*%
X163999995Y-75599997D03*
X167999995Y-75599997D03*
D13*
X167999995Y-79599997D03*
X163999995Y-79599997D03*
%TD*%
D11*
%TO.C,D25*%
X125599995Y-105199997D03*
X125599995Y-101199997D03*
D10*
X129599995Y-101199997D03*
X129599995Y-105199997D03*
%TD*%
D11*
%TO.C,D27*%
X125599995Y-92399997D03*
X125599995Y-88399997D03*
D10*
X129599995Y-88399997D03*
X129599995Y-92399997D03*
%TD*%
%TO.C,D49*%
X180799995Y-126799997D03*
X180799995Y-130799997D03*
D11*
X176799995Y-130799997D03*
X176799995Y-126799997D03*
%TD*%
D10*
%TO.C,D15*%
X174399995Y-120399997D03*
X174399995Y-124399997D03*
D11*
X170399995Y-124399997D03*
X170399995Y-120399997D03*
%TD*%
D13*
%TO.C,D22*%
X129599995Y-124399997D03*
X125599995Y-124399997D03*
D12*
X125599995Y-120399997D03*
X129599995Y-120399997D03*
%TD*%
D10*
%TO.C,D44*%
X180799995Y-94799997D03*
X180799995Y-98799997D03*
D11*
X176799995Y-98799997D03*
X176799995Y-94799997D03*
%TD*%
D12*
%TO.C,D40*%
X176799995Y-69199997D03*
X180799995Y-69199997D03*
D13*
X180799995Y-73199997D03*
X176799995Y-73199997D03*
%TD*%
D12*
%TO.C,D35*%
X144799995Y-69199997D03*
X148799995Y-69199997D03*
D13*
X148799995Y-73199997D03*
X144799995Y-73199997D03*
%TD*%
D10*
%TO.C,D9*%
X174399995Y-81999997D03*
X174399995Y-85999997D03*
D11*
X170399995Y-85999997D03*
X170399995Y-81999997D03*
%TD*%
%TO.C,D30*%
X119199995Y-79599997D03*
X119199995Y-75599997D03*
D10*
X123199995Y-75599997D03*
X123199995Y-79599997D03*
%TD*%
D11*
%TO.C,D28*%
X125599995Y-85999997D03*
X125599995Y-81999997D03*
D10*
X129599995Y-81999997D03*
X129599995Y-85999997D03*
%TD*%
D13*
%TO.C,D50*%
X174399995Y-130799997D03*
X170399995Y-130799997D03*
D12*
X170399995Y-126799997D03*
X174399995Y-126799997D03*
%TD*%
D13*
%TO.C,D84*%
X135999995Y-137199997D03*
X131999995Y-137199997D03*
D12*
X131999995Y-133199997D03*
X135999995Y-133199997D03*
%TD*%
%TO.C,D67*%
X131999995Y-62799997D03*
X135999995Y-62799997D03*
D13*
X135999995Y-66799997D03*
X131999995Y-66799997D03*
%TD*%
D10*
%TO.C,D73*%
X187199995Y-81999997D03*
X187199995Y-85999997D03*
D11*
X183199995Y-85999997D03*
X183199995Y-81999997D03*
%TD*%
D12*
%TO.C,D31*%
X119199995Y-69199997D03*
X123199995Y-69199997D03*
D13*
X123199995Y-73199997D03*
X119199995Y-73199997D03*
%TD*%
%TO.C,D56*%
X135999995Y-130799997D03*
X131999995Y-130799997D03*
D12*
X131999995Y-126799997D03*
X135999995Y-126799997D03*
%TD*%
D11*
%TO.C,D85*%
X112799995Y-117999997D03*
X112799995Y-113999997D03*
D10*
X116799995Y-113999997D03*
X116799995Y-117999997D03*
%TD*%
%TO.C,D14*%
X174399995Y-113999997D03*
X174399995Y-117999997D03*
D11*
X170399995Y-117999997D03*
X170399995Y-113999997D03*
%TD*%
D12*
%TO.C,D6*%
X157599995Y-75599997D03*
X161599995Y-75599997D03*
D13*
X161599995Y-79599997D03*
X157599995Y-79599997D03*
%TD*%
%TO.C,D18*%
X155199995Y-124399997D03*
X151199995Y-124399997D03*
D12*
X151199995Y-120399997D03*
X155199995Y-120399997D03*
%TD*%
D13*
%TO.C,D21*%
X135999995Y-124399997D03*
X131999995Y-124399997D03*
D12*
X131999995Y-120399997D03*
X135999995Y-120399997D03*
%TD*%
D10*
%TO.C,D10*%
X174399995Y-88399997D03*
X174399995Y-92399997D03*
D11*
X170399995Y-92399997D03*
X170399995Y-88399997D03*
%TD*%
%TO.C,D61*%
X119199995Y-111599997D03*
X119199995Y-107599997D03*
D10*
X123199995Y-107599997D03*
X123199995Y-111599997D03*
%TD*%
D13*
%TO.C,D81*%
X155199995Y-137199997D03*
X151199995Y-137199997D03*
D12*
X151199995Y-133199997D03*
X155199995Y-133199997D03*
%TD*%
D13*
%TO.C,D80*%
X161599995Y-137199997D03*
X157599995Y-137199997D03*
D12*
X157599995Y-133199997D03*
X161599995Y-133199997D03*
%TD*%
D13*
%TO.C,D29*%
X123199995Y-85999997D03*
X119199995Y-85999997D03*
D12*
X119199995Y-81999997D03*
X123199995Y-81999997D03*
%TD*%
D11*
%TO.C,D64*%
X119199995Y-92399997D03*
X119199995Y-88399997D03*
D10*
X123199995Y-88399997D03*
X123199995Y-92399997D03*
%TD*%
D13*
%TO.C,D79*%
X167999995Y-137199997D03*
X163999995Y-137199997D03*
D12*
X163999995Y-133199997D03*
X167999995Y-133199997D03*
%TD*%
%TO.C,D37*%
X157599995Y-69199997D03*
X161599995Y-69199997D03*
D13*
X161599995Y-73199997D03*
X157599995Y-73199997D03*
%TD*%
%TO.C,D83*%
X142399995Y-137199997D03*
X138399995Y-137199997D03*
D12*
X138399995Y-133199997D03*
X142399995Y-133199997D03*
%TD*%
%TO.C,D72*%
X163999995Y-62799997D03*
X167999995Y-62799997D03*
D13*
X167999995Y-66799997D03*
X163999995Y-66799997D03*
%TD*%
D12*
%TO.C,D33*%
X131999995Y-69199997D03*
X135999995Y-69199997D03*
D13*
X135999995Y-73199997D03*
X131999995Y-73199997D03*
%TD*%
D10*
%TO.C,D78*%
X187199995Y-113999997D03*
X187199995Y-117999997D03*
D11*
X183199995Y-117999997D03*
X183199995Y-113999997D03*
%TD*%
D10*
%TO.C,D45*%
X180799995Y-101199997D03*
X180799995Y-105199997D03*
D11*
X176799995Y-105199997D03*
X176799995Y-101199997D03*
%TD*%
D10*
%TO.C,D43*%
X180799995Y-88399997D03*
X180799995Y-92399997D03*
D11*
X176799995Y-92399997D03*
X176799995Y-88399997D03*
%TD*%
D10*
%TO.C,D12*%
X174399995Y-101199997D03*
X174399995Y-105199997D03*
D11*
X170399995Y-105199997D03*
X170399995Y-101199997D03*
%TD*%
D12*
%TO.C,D34*%
X138399995Y-69199997D03*
X142399995Y-69199997D03*
D13*
X142399995Y-73199997D03*
X138399995Y-73199997D03*
%TD*%
%TO.C,D19*%
X148799995Y-124399997D03*
X144799995Y-124399997D03*
D12*
X144799995Y-120399997D03*
X148799995Y-120399997D03*
%TD*%
D10*
%TO.C,D74*%
X187199995Y-88399997D03*
X187199995Y-92399997D03*
D11*
X183199995Y-92399997D03*
X183199995Y-88399997D03*
%TD*%
%TO.C,D60*%
X119199995Y-117999997D03*
X119199995Y-113999997D03*
D10*
X123199995Y-113999997D03*
X123199995Y-117999997D03*
%TD*%
D12*
%TO.C,D69*%
X144799995Y-62799997D03*
X148799995Y-62799997D03*
D13*
X148799995Y-66799997D03*
X144799995Y-66799997D03*
%TD*%
D10*
%TO.C,D11*%
X174399995Y-94799997D03*
X174399995Y-98799997D03*
D11*
X170399995Y-98799997D03*
X170399995Y-94799997D03*
%TD*%
%TO.C,D59*%
X119199995Y-124399997D03*
X119199995Y-120399997D03*
D10*
X123199995Y-120399997D03*
X123199995Y-124399997D03*
%TD*%
D13*
%TO.C,D16*%
X167999995Y-124399997D03*
X163999995Y-124399997D03*
D12*
X163999995Y-120399997D03*
X167999995Y-120399997D03*
%TD*%
D11*
%TO.C,D88*%
X112799995Y-98799997D03*
X112799995Y-94799997D03*
D10*
X116799995Y-94799997D03*
X116799995Y-98799997D03*
%TD*%
D12*
%TO.C,D36*%
X151199995Y-69199997D03*
X155199995Y-69199997D03*
D13*
X155199995Y-73199997D03*
X151199995Y-73199997D03*
%TD*%
D12*
%TO.C,D39*%
X170399995Y-69199997D03*
X174399995Y-69199997D03*
D13*
X174399995Y-73199997D03*
X170399995Y-73199997D03*
%TD*%
%TO.C,D52*%
X161599995Y-130799997D03*
X157599995Y-130799997D03*
D12*
X157599995Y-126799997D03*
X161599995Y-126799997D03*
%TD*%
D13*
%TO.C,D54*%
X148799995Y-130799997D03*
X144799995Y-130799997D03*
D12*
X144799995Y-126799997D03*
X148799995Y-126799997D03*
%TD*%
%TO.C,D71*%
X157599995Y-62799997D03*
X161599995Y-62799997D03*
D13*
X161599995Y-66799997D03*
X157599995Y-66799997D03*
%TD*%
%TO.C,D57*%
X129599995Y-130799997D03*
X125599995Y-130799997D03*
D12*
X125599995Y-126799997D03*
X129599995Y-126799997D03*
%TD*%
D11*
%TO.C,D66*%
X112799995Y-85999997D03*
X112799995Y-81999997D03*
D10*
X116799995Y-81999997D03*
X116799995Y-85999997D03*
%TD*%
%TO.C,D77*%
X187199995Y-107599997D03*
X187199995Y-111599997D03*
D11*
X183199995Y-111599997D03*
X183199995Y-107599997D03*
%TD*%
D12*
%TO.C,D5*%
X151199995Y-75599997D03*
X155199995Y-75599997D03*
D13*
X155199995Y-79599997D03*
X151199995Y-79599997D03*
%TD*%
%TO.C,D58*%
X123199995Y-130799997D03*
X119199995Y-130799997D03*
D12*
X119199995Y-126799997D03*
X123199995Y-126799997D03*
%TD*%
D13*
%TO.C,D17*%
X161599995Y-124399997D03*
X157599995Y-124399997D03*
D12*
X157599995Y-120399997D03*
X161599995Y-120399997D03*
%TD*%
%TO.C,D68*%
X138399995Y-62799997D03*
X142399995Y-62799997D03*
D13*
X142399995Y-66799997D03*
X138399995Y-66799997D03*
%TD*%
D11*
%TO.C,D63*%
X119199995Y-98799997D03*
X119199995Y-94799997D03*
D10*
X123199995Y-94799997D03*
X123199995Y-98799997D03*
%TD*%
D11*
%TO.C,D23*%
X125599995Y-117999997D03*
X125599995Y-113999997D03*
D10*
X129599995Y-113999997D03*
X129599995Y-117999997D03*
%TD*%
%TO.C,D46*%
X180799995Y-107599997D03*
X180799995Y-111599997D03*
D11*
X176799995Y-111599997D03*
X176799995Y-107599997D03*
%TD*%
D13*
%TO.C,D51*%
X167999995Y-130799997D03*
X163999995Y-130799997D03*
D12*
X163999995Y-126799997D03*
X167999995Y-126799997D03*
%TD*%
D10*
%TO.C,D41*%
X180799995Y-75599997D03*
X180799995Y-79599997D03*
D11*
X176799995Y-79599997D03*
X176799995Y-75599997D03*
%TD*%
D13*
%TO.C,D20*%
X142399995Y-124399997D03*
X138399995Y-124399997D03*
D12*
X138399995Y-120399997D03*
X142399995Y-120399997D03*
%TD*%
D11*
%TO.C,D24*%
X125599995Y-111599997D03*
X125599995Y-107599997D03*
D10*
X129599995Y-107599997D03*
X129599995Y-111599997D03*
%TD*%
M02*
