%TF.GenerationSoftware,KiCad,Pcbnew,(6.0.5)*%
%TF.CreationDate,2022-06-16T08:04:58-07:00*%
%TF.ProjectId,LED,4c45442e-6b69-4636-9164-5f7063625858,rev?*%
%TF.SameCoordinates,Original*%
%TF.FileFunction,Soldermask,Bot*%
%TF.FilePolarity,Negative*%
%FSLAX46Y46*%
G04 Gerber Fmt 4.6, Leading zero omitted, Abs format (unit mm)*
G04 Created by KiCad (PCBNEW (6.0.5)) date 2022-06-16 08:04:58*
%MOMM*%
%LPD*%
G01*
G04 APERTURE LIST*
G04 Aperture macros list*
%AMRoundRect*
0 Rectangle with rounded corners*
0 $1 Rounding radius*
0 $2 $3 $4 $5 $6 $7 $8 $9 X,Y pos of 4 corners*
0 Add a 4 corners polygon primitive as box body*
4,1,4,$2,$3,$4,$5,$6,$7,$8,$9,$2,$3,0*
0 Add four circle primitives for the rounded corners*
1,1,$1+$1,$2,$3*
1,1,$1+$1,$4,$5*
1,1,$1+$1,$6,$7*
1,1,$1+$1,$8,$9*
0 Add four rect primitives between the rounded corners*
20,1,$1+$1,$2,$3,$4,$5,0*
20,1,$1+$1,$4,$5,$6,$7,0*
20,1,$1+$1,$6,$7,$8,$9,0*
20,1,$1+$1,$8,$9,$2,$3,0*%
G04 Aperture macros list end*
%ADD10C,3.400000*%
%ADD11RoundRect,3.250000X-3.250000X-3.250000X3.250000X-3.250000X3.250000X3.250000X-3.250000X3.250000X0*%
%ADD12C,4.300000*%
%ADD13RoundRect,0.250000X-0.620000X-0.845000X0.620000X-0.845000X0.620000X0.845000X-0.620000X0.845000X0*%
%ADD14O,1.740000X2.190000*%
G04 APERTURE END LIST*
D10*
%TO.C,D42*%
X178799995Y-83999997D03*
%TD*%
D11*
%TO.C,U1*%
X194999995Y-144999997D03*
%TD*%
D10*
%TO.C,D47*%
X178799995Y-115999997D03*
%TD*%
D12*
%TO.C,H10*%
X124999995Y-149999997D03*
%TD*%
D10*
%TO.C,D38*%
X165999995Y-71199997D03*
%TD*%
D12*
%TO.C,H6*%
X174999995Y-49999997D03*
%TD*%
D13*
%TO.C,J2*%
X98999995Y-77999997D03*
D14*
X101539995Y-77999997D03*
%TD*%
D10*
%TO.C,D3*%
X140399995Y-77599997D03*
%TD*%
%TO.C,D2*%
X133999995Y-77599997D03*
%TD*%
%TO.C,D48*%
X178799995Y-122399997D03*
%TD*%
%TO.C,D1*%
X127599995Y-77599997D03*
%TD*%
%TO.C,D55*%
X140399995Y-128799997D03*
%TD*%
%TO.C,D4*%
X146799995Y-77599997D03*
%TD*%
%TO.C,D82*%
X146799995Y-135199997D03*
%TD*%
%TO.C,D32*%
X127599995Y-71199997D03*
%TD*%
%TO.C,D76*%
X185199995Y-103199997D03*
%TD*%
%TO.C,D75*%
X185199995Y-96799997D03*
%TD*%
%TO.C,D70*%
X153199995Y-64799997D03*
%TD*%
D12*
%TO.C,H2*%
X149999995Y-149999997D03*
%TD*%
D10*
%TO.C,D87*%
X114799995Y-103199997D03*
%TD*%
%TO.C,D26*%
X127599995Y-96799997D03*
%TD*%
%TO.C,D13*%
X172399995Y-109599997D03*
%TD*%
%TO.C,D53*%
X153199995Y-128799997D03*
%TD*%
%TO.C,D86*%
X114799995Y-109599997D03*
%TD*%
%TO.C,D8*%
X172399995Y-77599997D03*
%TD*%
D12*
%TO.C,H5*%
X124999995Y-49999997D03*
%TD*%
D10*
%TO.C,D62*%
X121199995Y-103199997D03*
%TD*%
D12*
%TO.C,H3*%
X149999995Y-49999997D03*
%TD*%
D10*
%TO.C,D65*%
X114799995Y-90399997D03*
%TD*%
%TO.C,D7*%
X165999995Y-77599997D03*
%TD*%
%TO.C,D25*%
X127599995Y-103199997D03*
%TD*%
D11*
%TO.C,U2*%
X104999995Y-54999997D03*
%TD*%
D10*
%TO.C,D27*%
X127599995Y-90399997D03*
%TD*%
%TO.C,D49*%
X178799995Y-128799997D03*
%TD*%
%TO.C,D15*%
X172399995Y-122399997D03*
%TD*%
%TO.C,D22*%
X127599995Y-122399997D03*
%TD*%
%TO.C,D44*%
X178799995Y-96799997D03*
%TD*%
%TO.C,D40*%
X178799995Y-71199997D03*
%TD*%
%TO.C,D35*%
X146799995Y-71199997D03*
%TD*%
%TO.C,D9*%
X172399995Y-83999997D03*
%TD*%
%TO.C,D30*%
X121199995Y-77599997D03*
%TD*%
%TO.C,D28*%
X127599995Y-83999997D03*
%TD*%
%TO.C,D50*%
X172399995Y-128799997D03*
%TD*%
%TO.C,D84*%
X133999995Y-135199997D03*
%TD*%
%TO.C,D67*%
X133999995Y-64799997D03*
%TD*%
%TO.C,D73*%
X185199995Y-83999997D03*
%TD*%
%TO.C,D31*%
X121199995Y-71199997D03*
%TD*%
%TO.C,D56*%
X133999995Y-128799997D03*
%TD*%
%TO.C,D85*%
X114799995Y-115999997D03*
%TD*%
%TO.C,D14*%
X172399995Y-115999997D03*
%TD*%
%TO.C,D6*%
X159599995Y-77599997D03*
%TD*%
%TO.C,D18*%
X153199995Y-122399997D03*
%TD*%
%TO.C,D21*%
X133999995Y-122399997D03*
%TD*%
%TO.C,D10*%
X172399995Y-90399997D03*
%TD*%
%TO.C,D61*%
X121199995Y-109599997D03*
%TD*%
D12*
%TO.C,H1*%
X99999995Y-99999997D03*
%TD*%
D10*
%TO.C,D81*%
X153199995Y-135199997D03*
%TD*%
D13*
%TO.C,J1*%
X105999995Y-77999997D03*
D14*
X108539995Y-77999997D03*
%TD*%
D10*
%TO.C,D80*%
X159599995Y-135199997D03*
%TD*%
%TO.C,D29*%
X121199995Y-83999997D03*
%TD*%
%TO.C,D64*%
X121199995Y-90399997D03*
%TD*%
D12*
%TO.C,H12*%
X174999995Y-149999997D03*
%TD*%
D10*
%TO.C,D79*%
X165999995Y-135199997D03*
%TD*%
%TO.C,D37*%
X159599995Y-71199997D03*
%TD*%
D11*
%TO.C,U4*%
X104999995Y-144999997D03*
%TD*%
D12*
%TO.C,H8*%
X199999995Y-124999997D03*
%TD*%
D10*
%TO.C,D83*%
X140399995Y-135199997D03*
%TD*%
%TO.C,D72*%
X165999995Y-64799997D03*
%TD*%
%TO.C,D33*%
X133999995Y-71199997D03*
%TD*%
%TO.C,D78*%
X185199995Y-115999997D03*
%TD*%
D12*
%TO.C,H4*%
X199999995Y-99999997D03*
%TD*%
D10*
%TO.C,D45*%
X178799995Y-103199997D03*
%TD*%
%TO.C,D43*%
X178799995Y-90399997D03*
%TD*%
D11*
%TO.C,U3*%
X194999995Y-54999997D03*
%TD*%
D10*
%TO.C,D12*%
X172399995Y-103199997D03*
%TD*%
%TO.C,D34*%
X140399995Y-71199997D03*
%TD*%
%TO.C,D19*%
X146799995Y-122399997D03*
%TD*%
D12*
%TO.C,H9*%
X199999995Y-74999997D03*
%TD*%
D10*
%TO.C,D74*%
X185199995Y-90399997D03*
%TD*%
%TO.C,D60*%
X121199995Y-115999997D03*
%TD*%
%TO.C,D69*%
X146799995Y-64799997D03*
%TD*%
%TO.C,D11*%
X172399995Y-96799997D03*
%TD*%
%TO.C,D59*%
X121199995Y-122399997D03*
%TD*%
%TO.C,D16*%
X165999995Y-122399997D03*
%TD*%
%TO.C,D88*%
X114799995Y-96799997D03*
%TD*%
%TO.C,D36*%
X153199995Y-71199997D03*
%TD*%
%TO.C,D39*%
X172399995Y-71199997D03*
%TD*%
%TO.C,D52*%
X159599995Y-128799997D03*
%TD*%
%TO.C,D54*%
X146799995Y-128799997D03*
%TD*%
%TO.C,D71*%
X159599995Y-64799997D03*
%TD*%
%TO.C,D57*%
X127599995Y-128799997D03*
%TD*%
%TO.C,D66*%
X114799995Y-83999997D03*
%TD*%
%TO.C,D77*%
X185199995Y-109599997D03*
%TD*%
D12*
%TO.C,H7*%
X99999995Y-124999997D03*
%TD*%
D10*
%TO.C,D5*%
X153199995Y-77599997D03*
%TD*%
%TO.C,D58*%
X121199995Y-128799997D03*
%TD*%
%TO.C,D17*%
X159599995Y-122399997D03*
%TD*%
%TO.C,D68*%
X140399995Y-64799997D03*
%TD*%
%TO.C,D63*%
X121199995Y-96799997D03*
%TD*%
%TO.C,D23*%
X127599995Y-115999997D03*
%TD*%
%TO.C,D46*%
X178799995Y-109599997D03*
%TD*%
%TO.C,D51*%
X165999995Y-128799997D03*
%TD*%
%TO.C,D41*%
X178799995Y-77599997D03*
%TD*%
%TO.C,D20*%
X140399995Y-122399997D03*
%TD*%
%TO.C,D24*%
X127599995Y-109599997D03*
%TD*%
M02*
