M48
; DRILL file {KiCad (6.0.4)} date Fri Apr 15 04:49:51 2022
; FORMAT={-:-/ absolute / inch / decimal}
; #@! TF.CreationDate,2022-04-15T04:49:51-07:00
; #@! TF.GenerationSoftware,Kicad,Pcbnew,(6.0.4)
; #@! TF.FileFunction,Plated,1,4,PTH
FMAT,2
INCH
; #@! TA.AperFunction,Plated,PTH,ViaDrill
T1C0.0100
; #@! TA.AperFunction,Plated,PTH,ComponentDrill
T2C0.0315
; #@! TA.AperFunction,Plated,PTH,ComponentDrill
T3C0.0394
; #@! TA.AperFunction,Plated,PTH,ComponentDrill
T4C0.0400
; #@! TA.AperFunction,Plated,PTH,ComponentDrill
T5C0.0433
%
G90
G05
T1
X0.788Y-3.383
X1.06Y-3.655
X1.08Y-1.72
X1.1Y-3.745
X1.125Y-1.725
X1.2052Y-5.6874
X1.29Y-5.65
X1.36Y-1.72
X1.495Y-1.685
X1.495Y-1.71
X1.505Y-5.95
X1.612Y-1.603
X1.6974Y-5.95
X1.7Y-3.33
X1.7Y-5.8
X1.7625Y-1.7975
X1.79Y-5.94
X1.8Y-3.33
X1.855Y-5.805
X1.9Y-3.33
X1.914Y-1.796
X1.9175Y-5.74
X1.92Y-5.805
X1.965Y-3.655
X1.9805Y-5.94
X2.0Y-3.33
X2.0Y-3.745
X2.037Y-3.744
X2.038Y-3.656
X2.1Y-3.33
X2.175Y-5.77
X2.2Y-5.92
X2.205Y-6.01
X2.26Y-5.92
X2.29Y-5.25
X2.29Y-5.35
X2.29Y-5.77
X2.33Y-6.01
X2.375Y-5.77
X2.4Y-5.915
X2.455Y-6.005
X2.46Y-5.915
X2.49Y-5.77
X2.518Y-2.029
X2.555Y-5.35
X2.61Y-5.25
X2.725Y-5.575
X2.775Y-2.575
X2.775Y-2.825
X2.835Y-2.325
X2.9248Y-2.2526
X2.925Y-2.29
X2.925Y-5.425
X3.02Y-2.085
X3.025Y-5.275
X3.05Y-4.8
X3.225Y-5.125
X3.245Y-4.65
X3.325Y-5.575
X3.485Y-5.095
X3.515Y-5.26
X3.52Y-5.425
X3.585Y-5.26
X3.605Y-5.1
X3.647Y-2.058
X3.69Y-5.1
X3.72Y-5.26
X3.755Y-4.87
X3.785Y-5.26
X3.81Y-5.095
X3.825Y-4.87
X3.89Y-2.15
X3.91Y-4.805
X3.915Y-2.35
X3.92Y-2.445
X3.961Y-4.998
X3.98Y-2.35
X3.98Y-2.45
X4.01Y-2.15
X4.065Y-5.0
X4.15Y-5.145
X4.177Y-4.933
X4.19Y-2.15
X4.215Y-2.35
X4.22Y-2.455
X4.225Y-5.1
X4.245Y-4.865
X4.25Y-4.745
X4.275Y-5.101
X4.28Y-2.35
X4.28Y-2.45
X4.31Y-2.145
X4.325Y-4.745
X4.325Y-4.865
X4.375Y-5.3
X4.425Y-4.8
X4.475Y-4.9974
X4.575Y-5.0
X4.675Y-4.835
X4.676Y-5.007
X4.751Y-5.006
T2
X1.05Y-5.85
X1.15Y-5.85
X1.25Y-5.85
X1.39Y-3.6
X1.39Y-3.7
X1.39Y-3.8
X1.7Y-3.5996
X1.7Y-3.6996
X1.7Y-3.7996
X2.6244Y-4.962
X2.7244Y-4.962
X2.8244Y-4.962
X3.0Y-4.3
X3.0Y-4.4
X3.0Y-4.5
X3.08Y-2.23
X3.08Y-2.33
X3.08Y-2.43
X3.1204Y-4.965
X3.2204Y-4.965
X3.296Y-4.3
X3.296Y-4.4
X3.296Y-4.5
X3.3204Y-4.965
X3.9Y-4.3
X3.9196Y-4.6
X4.0Y-4.3
X4.0196Y-4.6
X4.1Y-4.3
X4.1196Y-4.6
X4.3996Y-4.6
X4.4Y-4.3
X4.4996Y-4.6
X4.5Y-4.3
X4.5996Y-4.6
X4.6Y-4.3
T3
X0.9Y-1.2
X0.9Y-1.3
X0.9Y-1.6496
X0.9Y-1.7496
X0.9Y-1.8496
X0.9Y-1.9496
X0.9Y-2.45
X0.9Y-2.55
X0.9Y-2.65
X0.9Y-2.75
X0.9Y-2.85
X0.9Y-2.95
X0.9Y-3.2504
X0.9Y-3.3504
X0.9Y-3.4504
X0.9Y-3.5504
X0.9Y-3.8
X1.05Y-5.35
X1.05Y-5.55
X1.05Y-5.65
X1.2Y-0.7
X1.2Y-0.8
X1.2Y-1.0502
X1.2Y-1.1502
X1.25Y-5.5
X1.3Y-0.7
X1.3Y-0.8
X1.3Y-1.0502
X1.3Y-1.1502
X1.4Y-0.7
X1.4Y-0.8
X1.4Y-1.0502
X1.4Y-1.1502
X1.5Y-0.7
X1.5Y-0.8
X1.5Y-1.0502
X1.5Y-1.1502
X1.5Y-6.2
X1.6Y-0.7
X1.6Y-0.8
X1.6Y-1.0502
X1.6Y-1.1502
X1.7Y-0.7
X1.7Y-0.8
X1.7Y-1.0502
X1.7Y-1.1502
X1.7Y-6.2
X1.8Y-0.7
X1.8Y-0.8
X1.8Y-1.0502
X1.8Y-1.1502
X1.8Y-6.2
X1.9Y-0.7
X1.9Y-0.8
X1.9Y-1.0502
X1.9Y-1.1502
X2.0Y-0.7
X2.0Y-0.8
X2.0Y-1.0502
X2.0Y-1.1502
X2.0Y-6.2
X2.1Y-0.7
X2.1Y-0.8
X2.1Y-1.0502
X2.1Y-1.1502
X2.2Y-0.7
X2.2Y-0.8
X2.2Y-1.0502
X2.2Y-1.1502
X2.2321Y-5.5685
X2.235Y-6.2
X2.3Y-0.7
X2.3Y-0.8
X2.3Y-1.0502
X2.3Y-1.1502
X2.3321Y-5.5685
X2.335Y-6.2
X2.4Y-0.7
X2.4Y-0.8
X2.4Y-1.0502
X2.4Y-1.1502
X2.4321Y-5.5685
X2.435Y-6.2
X2.5Y-0.7
X2.5Y-0.8
X2.5Y-1.0502
X2.5Y-1.1502
X2.6Y-0.7
X2.6Y-0.8
X2.6Y-1.0502
X2.6Y-1.1502
X2.7Y-0.7
X2.7Y-0.8
X2.7Y-1.0502
X2.7Y-1.1502
X2.774Y-5.7002
X2.774Y-5.8002
X2.7746Y-6.0
X2.7746Y-6.2
X2.8Y-0.7
X2.8Y-0.8
X2.8Y-1.0502
X2.8Y-1.1502
X2.874Y-5.7002
X2.874Y-5.8002
X2.8746Y-6.0
X2.8746Y-6.2
X2.9Y-0.7
X2.9Y-0.8
X2.9Y-1.0502
X2.9Y-1.1502
X2.9746Y-6.0
X2.9746Y-6.2
X3.0Y-0.7
X3.0Y-0.8
X3.0Y-1.0502
X3.0Y-1.1502
X3.024Y-3.8
X3.024Y-4.0
X3.024Y-4.1
X3.1Y-0.7
X3.1Y-0.8
X3.1Y-1.0502
X3.1Y-1.1502
X3.124Y-3.8
X3.124Y-4.0
X3.124Y-4.1
X3.224Y-3.8
X3.324Y-3.8
X3.324Y-6.0
X3.324Y-6.2
X3.424Y-6.0
X3.424Y-6.2
X3.424Y-5.7
X3.424Y-5.8
X3.524Y-6.0
X3.524Y-6.2
X3.524Y-5.7
X3.524Y-5.8
X3.8Y-5.6
X3.8Y-5.8
X3.8006Y-3.45
X3.9Y-5.3
X3.9Y-5.4
X3.9Y-5.6
X3.9Y-5.8
X3.9006Y-3.45
X4.0Y-5.3
X4.0Y-5.4
X4.0Y-5.6
X4.0Y-5.8
X4.0006Y-3.45
X4.1Y-3.45
X4.1Y-3.55
X4.2Y-3.45
X4.2Y-3.55
X4.2Y-3.8
X4.2Y-4.0
X4.2Y-4.1
X4.3Y-3.8
X4.3Y-4.0
X4.3Y-4.1
X4.4Y-3.8
X4.4Y-5.6
X4.4Y-5.8
X4.5Y-5.3
X4.5Y-5.4
X4.5Y-5.6
X4.5Y-5.8
X4.6Y-5.3
X4.6Y-5.4
X4.6Y-5.6
X4.6Y-5.8
T4
X1.2Y-2.45
X1.2Y-2.55
X1.2Y-2.65
X1.2Y-2.75
X1.2Y-2.85
X1.2Y-2.95
X1.3Y-2.4
X1.3Y-3.0
X1.4Y-2.4
X1.4Y-3.0
X1.5Y-2.4
X1.5Y-3.0
X1.6Y-2.4
X1.6Y-3.0
X1.645Y-2.515
X1.7Y-2.4
X1.7Y-3.0
X1.745Y-2.515
X1.8Y-2.4
X1.8Y-3.0
X1.9Y-2.4
X1.9Y-3.0
X2.0Y-2.4
X2.0Y-3.0
X2.055Y-2.515
X2.1Y-2.4
X2.1Y-3.0
X2.155Y-2.515
X2.2Y-2.4
X2.2Y-3.0
X2.3Y-2.4
X2.3Y-3.0
X2.4Y-2.4
X2.4Y-3.0
T5
X3.2Y-1.3
X3.2Y-1.4
X3.2Y-1.5
X3.2Y-1.6
X3.2Y-1.7
X3.35Y-1.05
X3.35Y-1.2
X3.35Y-1.3
X3.35Y-1.4
X3.35Y-1.5
X3.35Y-1.6
X3.35Y-1.7
X3.35Y-1.8
X3.35Y-1.95
X3.35Y-2.7
X3.35Y-2.8
X3.35Y-2.9
X3.35Y-3.0
X3.35Y-3.1
X3.35Y-3.2
X3.35Y-3.3
X3.45Y-1.05
X3.45Y-1.2
X3.45Y-1.8
X3.45Y-1.95
X3.45Y-2.7
X3.45Y-3.3
X3.55Y-1.05
X3.55Y-1.2
X3.55Y-1.3
X3.55Y-1.4
X3.55Y-1.5
X3.55Y-1.6
X3.55Y-1.7
X3.55Y-1.8
X3.55Y-1.95
X3.55Y-2.7
X3.55Y-2.8
X3.55Y-2.9
X3.55Y-3.0
X3.55Y-3.1
X3.55Y-3.2
X3.55Y-3.3
X3.65Y-1.05
X3.65Y-1.2
X3.65Y-1.3
X3.65Y-1.4
X3.65Y-1.5
X3.65Y-1.6
X3.65Y-1.7
X3.65Y-1.8
X3.65Y-1.95
X3.65Y-2.7
X3.65Y-2.8
X3.65Y-2.9
X3.65Y-3.0
X3.65Y-3.1
X3.65Y-3.2
X3.65Y-3.3
X3.75Y-1.05
X3.75Y-1.2
X3.75Y-1.8
X3.75Y-1.95
X3.75Y-2.7
X3.75Y-3.3
X3.85Y-1.05
X3.85Y-1.2
X3.85Y-1.8
X3.85Y-1.95
X3.85Y-2.7
X3.85Y-3.3
X3.95Y-1.05
X3.95Y-1.2
X3.95Y-1.8
X3.95Y-1.95
X3.95Y-2.7
X3.95Y-3.3
X4.05Y-1.05
X4.05Y-1.2
X4.05Y-1.8
X4.05Y-1.95
X4.05Y-2.7
X4.05Y-3.3
X4.15Y-1.05
X4.15Y-1.2
X4.15Y-1.8
X4.15Y-1.95
X4.15Y-2.7
X4.15Y-3.3
X4.25Y-1.05
X4.25Y-1.2
X4.25Y-1.8
X4.25Y-1.95
X4.25Y-2.7
X4.25Y-3.3
X4.35Y-1.05
X4.35Y-1.2
X4.35Y-1.8
X4.35Y-1.95
X4.35Y-2.7
X4.35Y-3.3
X4.45Y-1.05
X4.45Y-1.2
X4.45Y-1.8
X4.45Y-1.95
X4.45Y-2.7
X4.45Y-3.3
X4.55Y-1.05
X4.55Y-1.2
X4.55Y-1.7
X4.55Y-1.8
X4.55Y-1.95
X4.55Y-2.7
X4.55Y-3.2
X4.55Y-3.3
X4.65Y-1.05
X4.65Y-1.2
X4.65Y-1.8
X4.65Y-1.95
X4.65Y-2.7
X4.65Y-3.3
T0
M30
