M48
; DRILL file {KiCad (6.0.5)} date Sun Jul 10 20:23:45 2022
; FORMAT={-:-/ absolute / metric / decimal}
; #@! TF.CreationDate,2022-07-10T20:23:45-07:00
; #@! TF.GenerationSoftware,Kicad,Pcbnew,(6.0.5)
; #@! TF.FileFunction,Plated,1,4,PTH
FMAT,2
METRIC
; #@! TA.AperFunction,Plated,PTH,ViaDrill
T1C0.254
; #@! TA.AperFunction,Plated,PTH,ComponentDrill
T2C0.700
; #@! TA.AperFunction,Plated,PTH,ComponentDrill
T3C0.800
; #@! TA.AperFunction,Plated,PTH,ComponentDrill
T4C0.950
; #@! TA.AperFunction,Plated,PTH,ViaDrill
T5C1.000
; #@! TA.AperFunction,Plated,PTH,ComponentDrill
T6C1.000
; #@! TA.AperFunction,Plated,PTH,ComponentDrill
T7C1.016
; #@! TA.AperFunction,Plated,PTH,ComponentDrill
T8C1.100
; #@! TA.AperFunction,Plated,PTH,ComponentDrill
T9C1.190
; #@! TA.AperFunction,Plated,PTH,ComponentDrill
T10C3.200
%
G90
G05
T1
X8.636Y98.044
X8.636Y64.516
X9.144Y82.804
X9.144Y77.724
X10.16Y65.405
X11.684Y94.996
X11.684Y89.916
X11.684Y74.676
X12.7Y83.82
X12.7Y67.31
X14.732Y99.568
X14.732Y93.472
X14.732Y76.708
X14.732Y70.612
X15.748Y99.568
X15.748Y93.472
X15.748Y76.708
X15.748Y70.612
X16.51Y67.945
X17.145Y71.755
X30.48Y76.835
X33.02Y62.23
X33.655Y90.17
X34.925Y76.2
X37.592Y84.328
X38.74Y123.83
X39.624Y122.936
X39.624Y85.852
X40.132Y122.428
X45.06Y107.645
X45.72Y93.98
X50.292Y132.08
X50.8Y130.556
X51.816Y128.524
X55.08Y91.4
X55.245Y64.135
X55.372Y127.0
X55.88Y82.55
X55.88Y81.28
X56.515Y78.74
X57.785Y66.675
X57.785Y66.04
X57.785Y65.405
X57.785Y59.055
X57.925Y132.675
X58.42Y62.865
X59.69Y64.135
X59.69Y57.785
X59.755Y93.345
X60.503Y51.765
X60.96Y101.6
X60.96Y81.28
X60.96Y59.69
X61.468Y128.524
X63.295Y101.6
X63.5Y62.865
X64.008Y52.324
X64.135Y66.675
X64.135Y65.405
X64.705Y97.155
X64.77Y55.88
X66.04Y60.96
X67.056Y56.896
X71.12Y125.984
X78.74Y62.23
X78.945Y72.898
X81.407Y76.833
X81.915Y95.885
X82.804Y91.948
X86.295Y80.643
X86.36Y82.281
X86.995Y125.73
X87.63Y126.365
X87.63Y125.095
X88.646Y77.087
X88.711Y75.184
X90.932Y127.0
X96.774Y72.898
X96.774Y61.976
X121.94Y65.278
X124.48Y65.278
X127.02Y65.278
X129.56Y65.278
X132.1Y65.278
X134.64Y65.405
X157.98Y8.95
X161.48Y6.95
X162.48Y10.45
X162.48Y8.95
X164.23Y10.45
X164.23Y8.95
X165.38Y53.1
X168.275Y25.675
X168.91Y117.602
X168.98Y8.95
X169.418Y109.728
X171.98Y6.45
X173.355Y29.485
X173.98Y6.45
X175.895Y33.295
X176.53Y45.36
X180.975Y37.105
X181.483Y49.17
X181.864Y113.03
X182.245Y100.33
X183.515Y25.675
X184.277Y97.155
X185.23Y6.7
X186.558Y98.994
X186.563Y98.044
X186.69Y102.87
X187.23Y6.7
X187.452Y115.824
X187.579Y37.867
X187.96Y61.616
X188.341Y33.676
X188.468Y29.485
X190.119Y33.676
X190.627Y37.74
X192.786Y27.94
X193.548Y23.876
X194.437Y33.782
X195.199Y23.876
X195.834Y28.067
X196.215Y33.782
X197.866Y102.87
X198.374Y35.433
X198.501Y97.79
X198.628Y95.377
X199.669Y30.531
X200.152Y97.79
X200.152Y95.25
X200.914Y102.87
X202.311Y30.48
X204.47Y26.797
X205.156Y32.182
X205.486Y102.87
X206.121Y97.79
X206.248Y95.123
X206.375Y27.94
X206.883Y33.909
X207.01Y36.957
X207.645Y27.915
X207.772Y97.79
X207.772Y95.25
X208.534Y102.997
X208.915Y36.957
X208.915Y33.909
X210.185Y22.86
X211.455Y35.56
X212.725Y30.545
X215.265Y30.48
X217.805Y34.671
X217.83Y30.302
X219.735Y30.328
T2
X22.87Y124.4
X22.87Y121.86
X22.87Y111.6
X22.87Y109.16
X30.49Y124.4
X30.49Y121.86
X30.49Y111.6
X30.49Y109.16
T3
X25.4Y66.04
X27.94Y66.04
X30.48Y66.04
X51.425Y121.245
X53.965Y121.245
X56.505Y121.245
X62.855Y121.245
X65.395Y121.245
X67.935Y121.245
X78.74Y99.06
X81.28Y99.06
X83.82Y99.06
X165.72Y41.245
X168.26Y41.245
X170.8Y41.245
X175.26Y58.06
X175.26Y55.52
X175.26Y52.98
X178.318Y41.169
X180.858Y41.169
X182.778Y58.06
X182.778Y55.52
X182.778Y52.98
X183.398Y41.169
X198.12Y48.26
X198.618Y40.64
X200.66Y48.26
X201.158Y40.64
X203.2Y48.26
X203.698Y40.64
X210.81Y40.64
X210.82Y48.26
X213.35Y40.64
X213.36Y48.26
X215.89Y40.64
X215.9Y48.26
T4
X170.44Y1.725
X172.94Y1.725
X175.44Y1.725
X183.555Y1.725
X186.055Y1.725
X188.555Y1.725
X195.66Y10.177
X198.16Y10.177
X200.66Y10.177
X210.9Y10.16
X213.4Y10.16
X215.9Y10.16
T5
X135.89Y41.91
X135.89Y36.83
X135.89Y16.51
X135.89Y11.43
X139.7Y41.91
X139.7Y36.83
X139.7Y16.51
X139.7Y11.43
T6
X0.0Y52.07
X3.016Y106.314
X3.016Y103.544
X3.016Y100.774
X3.016Y98.004
X3.016Y95.234
X3.016Y92.464
X3.016Y89.694
X3.016Y86.924
X3.016Y84.154
X3.016Y81.384
X3.016Y78.614
X3.016Y75.844
X5.856Y107.699
X5.856Y104.929
X5.856Y102.159
X5.856Y99.389
X5.856Y96.619
X5.856Y93.849
X5.856Y91.079
X5.856Y88.309
X5.856Y85.539
X5.856Y82.769
X5.856Y79.999
X5.856Y77.229
X5.856Y74.459
X7.62Y50.8
X7.62Y30.48
X7.62Y22.86
X7.62Y2.54
X10.16Y59.69
X10.16Y50.8
X10.16Y30.48
X10.16Y22.86
X10.16Y2.54
X12.7Y50.8
X12.7Y30.48
X12.7Y22.86
X12.7Y2.54
X15.24Y50.8
X15.24Y30.48
X15.24Y22.86
X15.24Y2.54
X16.51Y85.09
X24.765Y96.52
X24.765Y81.28
X27.305Y96.52
X27.305Y81.28
X27.94Y50.8
X27.94Y30.48
X27.94Y22.86
X27.94Y2.54
X29.845Y96.52
X29.845Y81.28
X30.48Y50.8
X30.48Y30.48
X30.48Y22.86
X30.48Y2.54
X32.385Y96.52
X32.385Y81.28
X33.02Y50.8
X33.02Y30.48
X33.02Y22.86
X33.02Y2.54
X34.925Y96.52
X34.925Y81.28
X35.56Y50.8
X35.56Y30.48
X35.56Y22.86
X35.56Y2.54
X37.465Y96.52
X37.465Y81.28
X40.005Y96.52
X40.005Y81.28
X42.545Y96.52
X42.545Y81.28
X53.345Y76.2
X53.345Y73.66
X55.885Y76.2
X55.885Y73.66
X68.58Y137.12
X68.58Y133.355
X68.58Y130.815
X71.12Y133.355
X71.12Y130.815
X78.74Y132.065
X78.74Y129.525
X78.74Y126.985
X78.74Y124.445
X78.74Y121.905
X78.74Y119.365
X78.74Y116.825
X78.74Y114.285
X78.74Y93.98
X81.788Y83.818
X84.18Y51.14
X84.18Y30.64
X84.18Y23.2
X84.18Y2.7
X88.9Y93.98
X89.154Y83.82
X90.627Y101.295
X90.627Y98.755
X93.167Y101.295
X93.167Y98.755
X93.98Y132.08
X93.98Y129.54
X93.98Y127.0
X93.98Y124.46
X93.98Y121.92
X93.98Y119.38
X93.98Y116.84
X93.98Y114.3
X101.62Y87.63
X101.62Y85.09
X101.62Y82.55
X101.62Y80.01
X101.62Y77.47
X101.62Y74.93
X121.92Y115.57
X121.92Y113.03
X121.92Y110.49
X121.92Y107.95
X129.18Y50.64
X129.18Y30.64
X129.18Y22.7
X129.18Y2.7
X129.54Y139.7
X129.54Y137.16
X129.54Y130.805
X129.54Y128.265
X132.08Y139.7
X132.08Y137.16
X132.08Y130.805
X132.08Y128.265
X134.62Y139.7
X134.62Y137.16
X134.62Y130.805
X134.62Y128.265
X137.16Y139.7
X137.16Y137.16
X137.16Y130.805
X137.16Y128.265
X139.7Y139.7
X139.7Y137.16
X139.7Y130.805
X139.7Y128.265
X142.24Y139.7
X142.24Y137.16
X142.24Y130.805
X142.24Y128.265
X144.78Y139.7
X144.78Y137.16
X144.78Y130.805
X144.78Y128.265
X147.32Y139.7
X147.32Y137.16
X147.32Y130.805
X147.32Y128.265
X149.86Y139.7
X149.86Y137.16
X149.86Y130.805
X149.86Y128.265
X152.4Y139.7
X152.4Y137.16
X152.4Y130.805
X152.4Y128.265
X154.94Y139.7
X154.94Y137.16
X154.94Y130.805
X154.94Y128.265
X155.956Y57.404
X157.38Y63.4
X157.48Y139.7
X157.48Y137.16
X157.48Y130.805
X157.48Y128.265
X159.655Y32.9
X160.02Y139.7
X160.02Y137.16
X160.02Y130.805
X160.02Y128.265
X161.13Y63.44
X161.13Y60.9
X162.195Y32.9
X162.56Y139.7
X162.56Y137.16
X162.56Y130.805
X162.56Y128.265
X163.67Y63.44
X163.67Y60.9
X164.735Y32.9
X165.1Y139.7
X165.1Y137.16
X165.1Y130.805
X165.1Y128.265
X167.64Y139.7
X167.64Y137.16
X167.64Y130.805
X167.64Y128.265
X168.38Y64.12
X168.38Y61.58
X168.38Y59.04
X168.38Y56.5
X169.52Y22.495
X169.52Y19.955
X170.18Y139.7
X170.18Y137.16
X170.18Y130.805
X170.18Y128.265
X170.845Y16.15
X172.06Y22.495
X172.06Y19.955
X172.72Y139.7
X172.72Y137.16
X172.72Y130.805
X172.72Y128.265
X173.385Y16.15
X175.26Y139.7
X175.26Y137.16
X175.26Y130.805
X175.26Y128.265
X175.925Y16.15
X177.705Y65.165
X177.705Y62.625
X177.8Y139.7
X177.8Y137.16
X177.8Y130.805
X177.8Y128.265
X180.245Y65.165
X180.245Y62.625
X183.53Y16.15
X186.03Y22.5
X186.03Y19.96
X186.07Y16.15
X188.57Y22.5
X188.57Y19.96
X188.61Y16.15
X191.821Y137.363
X191.821Y134.823
X195.595Y69.85
X195.595Y15.24
X198.12Y22.86
X198.12Y20.32
X198.135Y69.85
X198.135Y15.24
X200.66Y22.86
X200.66Y20.32
X200.675Y69.85
X200.675Y15.24
X203.2Y69.85
X203.2Y67.31
X205.74Y69.85
X205.74Y67.31
X205.74Y60.96
X205.74Y55.88
X205.74Y53.34
X208.28Y60.96
X208.28Y55.88
X208.28Y53.34
X210.82Y60.96
X210.82Y15.24
X213.36Y22.86
X213.36Y20.32
X213.36Y15.24
X215.9Y22.86
X215.9Y20.32
X215.9Y15.24
T7
X109.24Y87.63
X109.24Y85.09
X109.24Y82.55
X109.24Y80.01
X109.24Y77.47
X109.24Y74.93
X111.78Y88.9
X111.78Y73.66
X114.32Y88.9
X114.32Y73.66
X116.86Y88.9
X116.86Y73.66
X119.4Y88.9
X119.4Y73.66
X120.543Y85.979
X121.94Y88.9
X121.94Y73.66
X123.083Y85.979
X124.48Y88.9
X124.48Y73.66
X127.02Y88.9
X127.02Y73.66
X129.56Y88.9
X129.56Y73.66
X130.957Y85.979
X132.1Y88.9
X132.1Y73.66
X133.497Y85.979
X134.64Y88.9
X134.64Y73.66
X137.18Y88.9
X137.18Y73.66
X139.72Y88.9
X139.72Y73.66
T8
X159.035Y19.14
X159.035Y16.6
X159.035Y14.06
X164.035Y19.14
X164.035Y16.6
X164.035Y14.06
X180.34Y124.46
X180.34Y121.92
X180.34Y119.38
X180.34Y116.84
X180.34Y114.3
X184.15Y130.81
X184.15Y127.0
X184.15Y124.46
X184.15Y121.92
X184.15Y119.38
X184.15Y116.84
X184.15Y114.3
X184.15Y111.76
X184.15Y107.95
X184.15Y88.9
X184.15Y86.36
X184.15Y83.82
X184.15Y81.28
X184.15Y78.74
X184.15Y76.2
X184.15Y73.66
X186.69Y130.81
X186.69Y127.0
X186.69Y111.76
X186.69Y107.95
X186.69Y88.9
X186.69Y73.66
X189.23Y130.81
X189.23Y127.0
X189.23Y124.46
X189.23Y121.92
X189.23Y119.38
X189.23Y116.84
X189.23Y114.3
X189.23Y111.76
X189.23Y107.95
X189.23Y88.9
X189.23Y86.36
X189.23Y83.82
X189.23Y81.28
X189.23Y78.74
X189.23Y76.2
X189.23Y73.66
X191.77Y130.81
X191.77Y127.0
X191.77Y124.46
X191.77Y121.92
X191.77Y119.38
X191.77Y116.84
X191.77Y114.3
X191.77Y111.76
X191.77Y107.95
X191.77Y88.9
X191.77Y86.36
X191.77Y83.82
X191.77Y81.28
X191.77Y78.74
X191.77Y76.2
X191.77Y73.66
X194.31Y130.81
X194.31Y127.0
X194.31Y111.76
X194.31Y107.95
X194.31Y88.9
X194.31Y73.66
X196.85Y130.81
X196.85Y127.0
X196.85Y111.76
X196.85Y107.95
X196.85Y88.9
X196.85Y73.66
X199.39Y130.81
X199.39Y127.0
X199.39Y111.76
X199.39Y107.95
X199.39Y88.9
X199.39Y73.66
X201.93Y130.81
X201.93Y127.0
X201.93Y111.76
X201.93Y107.95
X201.93Y88.9
X201.93Y73.66
X204.47Y130.81
X204.47Y127.0
X204.47Y111.76
X204.47Y107.95
X204.47Y88.9
X204.47Y73.66
X207.01Y130.81
X207.01Y127.0
X207.01Y111.76
X207.01Y107.95
X207.01Y88.9
X207.01Y73.66
X209.55Y130.81
X209.55Y127.0
X209.55Y111.76
X209.55Y107.95
X209.55Y88.9
X209.55Y73.66
X212.09Y130.81
X212.09Y127.0
X212.09Y111.76
X212.09Y107.95
X212.09Y88.9
X212.09Y73.66
X214.63Y130.81
X214.63Y127.0
X214.63Y114.3
X214.63Y111.76
X214.63Y107.95
X214.63Y88.9
X214.63Y76.2
X214.63Y73.66
X217.17Y130.81
X217.17Y127.0
X217.17Y111.76
X217.17Y107.95
X217.17Y88.9
X217.17Y73.66
T9
X0.0Y59.69
X0.0Y57.15
X16.51Y137.12
X19.05Y137.12
X24.13Y137.12
X26.67Y137.12
X31.75Y137.12
X34.29Y137.12
X39.37Y137.12
X41.91Y137.12
X53.34Y137.12
X55.88Y137.12
X58.42Y137.12
X60.96Y137.12
X140.97Y-1.29
X143.51Y-1.29
X146.05Y-1.29
X148.59Y-1.29
X158.75Y-1.6
X161.29Y-1.6
X163.83Y-1.6
T10
X4.436Y114.629
X4.436Y67.529
T0
M30
