%TF.GenerationSoftware,KiCad,Pcbnew,(6.0.5)*%
%TF.CreationDate,2022-07-10T20:23:42-07:00*%
%TF.ProjectId,main_board,6d61696e-5f62-46f6-9172-642e6b696361,rev?*%
%TF.SameCoordinates,PX5c0c740PYc1c9600*%
%TF.FileFunction,Soldermask,Bot*%
%TF.FilePolarity,Negative*%
%FSLAX46Y46*%
G04 Gerber Fmt 4.6, Leading zero omitted, Abs format (unit mm)*
G04 Created by KiCad (PCBNEW (6.0.5)) date 2022-07-10 20:23:42*
%MOMM*%
%LPD*%
G01*
G04 APERTURE LIST*
G04 Aperture macros list*
%AMRoundRect*
0 Rectangle with rounded corners*
0 $1 Rounding radius*
0 $2 $3 $4 $5 $6 $7 $8 $9 X,Y pos of 4 corners*
0 Add a 4 corners polygon primitive as box body*
4,1,4,$2,$3,$4,$5,$6,$7,$8,$9,$2,$3,0*
0 Add four circle primitives for the rounded corners*
1,1,$1+$1,$2,$3*
1,1,$1+$1,$4,$5*
1,1,$1+$1,$6,$7*
1,1,$1+$1,$8,$9*
0 Add four rect primitives between the rounded corners*
20,1,$1+$1,$2,$3,$4,$5,0*
20,1,$1+$1,$4,$5,$6,$7,0*
20,1,$1+$1,$6,$7,$8,$9,0*
20,1,$1+$1,$8,$9,$2,$3,0*%
G04 Aperture macros list end*
%ADD10C,1.440000*%
%ADD11R,1.700000X1.700000*%
%ADD12O,1.700000X1.700000*%
%ADD13R,1.400000X1.400000*%
%ADD14C,1.400000*%
%ADD15RoundRect,0.250000X-0.620000X-0.845000X0.620000X-0.845000X0.620000X0.845000X-0.620000X0.845000X0*%
%ADD16O,1.740000X2.190000*%
%ADD17C,1.700000*%
%ADD18C,1.600000*%
%ADD19R,1.600000X1.600000*%
%ADD20C,4.000000*%
%ADD21C,1.879600*%
%ADD22RoundRect,0.250000X0.620000X0.845000X-0.620000X0.845000X-0.620000X-0.845000X0.620000X-0.845000X0*%
%ADD23C,3.200000*%
%ADD24R,2.000000X1.905000*%
%ADD25O,2.000000X1.905000*%
%ADD26RoundRect,0.250000X-0.600000X-0.725000X0.600000X-0.725000X0.600000X0.725000X-0.600000X0.725000X0*%
%ADD27O,1.700000X1.950000*%
%ADD28RoundRect,0.250000X-0.845000X0.620000X-0.845000X-0.620000X0.845000X-0.620000X0.845000X0.620000X0*%
%ADD29O,2.190000X1.740000*%
G04 APERTURE END LIST*
D10*
%TO.C,InputB_Gain1*%
X182778400Y52980000D03*
X182778400Y55520000D03*
X182778400Y58060000D03*
%TD*%
%TO.C,GalvoB_Gain1*%
X198618000Y40640000D03*
X201158000Y40640000D03*
X203698000Y40640000D03*
%TD*%
D11*
%TO.C,TP11*%
X157380000Y63400000D03*
%TD*%
%TO.C,J3*%
X129540000Y128265000D03*
D12*
X129540000Y130805000D03*
X132080000Y128265000D03*
X132080000Y130805000D03*
X134620000Y128265000D03*
X134620000Y130805000D03*
X137160000Y128265000D03*
X137160000Y130805000D03*
X139700000Y128265000D03*
X139700000Y130805000D03*
X142240000Y128265000D03*
X142240000Y130805000D03*
X144780000Y128265000D03*
X144780000Y130805000D03*
X147320000Y128265000D03*
X147320000Y130805000D03*
X149860000Y128265000D03*
X149860000Y130805000D03*
X152400000Y128265000D03*
X152400000Y130805000D03*
X154940000Y128265000D03*
X154940000Y130805000D03*
X157480000Y128265000D03*
X157480000Y130805000D03*
X160020000Y128265000D03*
X160020000Y130805000D03*
X162560000Y128265000D03*
X162560000Y130805000D03*
X165100000Y128265000D03*
X165100000Y130805000D03*
X167640000Y128265000D03*
X167640000Y130805000D03*
X170180000Y128265000D03*
X170180000Y130805000D03*
X172720000Y128265000D03*
X172720000Y130805000D03*
X175260000Y128265000D03*
X175260000Y130805000D03*
X177800000Y128265000D03*
X177800000Y130805000D03*
%TD*%
D11*
%TO.C,TP2*%
X78740000Y93980000D03*
%TD*%
%TO.C,J20*%
X210820000Y60960000D03*
D12*
X208280000Y60960000D03*
X205740000Y60960000D03*
%TD*%
D11*
%TO.C,J21*%
X208280000Y55880000D03*
D12*
X208280000Y53340000D03*
X205740000Y55880000D03*
X205740000Y53340000D03*
%TD*%
D11*
%TO.C,TP12*%
X155956000Y57404000D03*
%TD*%
D13*
%TO.C,K1*%
X22870000Y124400000D03*
D14*
X22870000Y121860000D03*
X22870000Y111600000D03*
X22870000Y109160000D03*
X30490000Y109160000D03*
X30490000Y111600000D03*
X30490000Y121860000D03*
X30490000Y124400000D03*
%TD*%
D10*
%TO.C,GalvoA_Offset1*%
X210820000Y48260000D03*
X213360000Y48260000D03*
X215900000Y48260000D03*
%TD*%
D11*
%TO.C,J23*%
X200660000Y22860000D03*
D12*
X200660000Y20320000D03*
X198120000Y22860000D03*
X198120000Y20320000D03*
%TD*%
D11*
%TO.C,J42*%
X24765000Y81280000D03*
D12*
X27305000Y81280000D03*
X29845000Y81280000D03*
X32385000Y81280000D03*
X34925000Y81280000D03*
X37465000Y81280000D03*
X40005000Y81280000D03*
X42545000Y81280000D03*
%TD*%
D11*
%TO.C,J22*%
X159655000Y32900000D03*
D12*
X162195000Y32900000D03*
X164735000Y32900000D03*
%TD*%
D11*
%TO.C,J24*%
X215900000Y22860000D03*
D12*
X215900000Y20320000D03*
X213360000Y22860000D03*
X213360000Y20320000D03*
%TD*%
D10*
%TO.C,Cam_Input1*%
X51425000Y121245000D03*
X53965000Y121245000D03*
X56505000Y121245000D03*
%TD*%
D15*
%TO.C,J31*%
X140970000Y-1290000D03*
D16*
X143510000Y-1290000D03*
X146050000Y-1290000D03*
X148590000Y-1290000D03*
%TD*%
D10*
%TO.C,Cam_Output1*%
X62855000Y121245000D03*
X65395000Y121245000D03*
X67935000Y121245000D03*
%TD*%
%TO.C,InputA_Gain1*%
X175260000Y52980000D03*
X175260000Y55520000D03*
X175260000Y58060000D03*
%TD*%
D11*
%TO.C,J27*%
X129540000Y137160000D03*
D12*
X129540000Y139700000D03*
X132080000Y137160000D03*
X132080000Y139700000D03*
X134620000Y137160000D03*
X134620000Y139700000D03*
X137160000Y137160000D03*
X137160000Y139700000D03*
X139700000Y137160000D03*
X139700000Y139700000D03*
X142240000Y137160000D03*
X142240000Y139700000D03*
X144780000Y137160000D03*
X144780000Y139700000D03*
X147320000Y137160000D03*
X147320000Y139700000D03*
X149860000Y137160000D03*
X149860000Y139700000D03*
X152400000Y137160000D03*
X152400000Y139700000D03*
X154940000Y137160000D03*
X154940000Y139700000D03*
X157480000Y137160000D03*
X157480000Y139700000D03*
X160020000Y137160000D03*
X160020000Y139700000D03*
X162560000Y137160000D03*
X162560000Y139700000D03*
X165100000Y137160000D03*
X165100000Y139700000D03*
X167640000Y137160000D03*
X167640000Y139700000D03*
X170180000Y137160000D03*
X170180000Y139700000D03*
X172720000Y137160000D03*
X172720000Y139700000D03*
X175260000Y137160000D03*
X175260000Y139700000D03*
X177800000Y137160000D03*
X177800000Y139700000D03*
%TD*%
D11*
%TO.C,TP5*%
X89154000Y83820000D03*
%TD*%
%TO.C,J14*%
X170845000Y16150000D03*
D12*
X173385000Y16150000D03*
X175925000Y16150000D03*
%TD*%
D11*
%TO.C,J43*%
X27940000Y50800000D03*
D12*
X30480000Y50800000D03*
X33020000Y50800000D03*
X35560000Y50800000D03*
%TD*%
D10*
%TO.C,GalvoB_Offset1*%
X198120000Y48260000D03*
X200660000Y48260000D03*
X203200000Y48260000D03*
%TD*%
D11*
%TO.C,J13*%
X161130000Y63440000D03*
D12*
X163670000Y63440000D03*
X161130000Y60900000D03*
X163670000Y60900000D03*
%TD*%
D15*
%TO.C,J8*%
X158750000Y-1600000D03*
D16*
X161290000Y-1600000D03*
X163830000Y-1600000D03*
%TD*%
D17*
%TO.C,DC1*%
X129180000Y30640000D03*
D11*
X129180000Y50640000D03*
X84180000Y51140000D03*
D17*
X84180000Y30640000D03*
%TD*%
D11*
%TO.C,J26*%
X195595000Y15240000D03*
D12*
X198135000Y15240000D03*
X200675000Y15240000D03*
%TD*%
D11*
%TO.C,J33*%
X55885000Y73660000D03*
D12*
X53345000Y73660000D03*
X55885000Y76200000D03*
X53345000Y76200000D03*
%TD*%
D18*
%TO.C,J30*%
X3015531Y106314400D03*
X3015531Y103544400D03*
X3015531Y100774400D03*
X3015531Y98004400D03*
X3015531Y95234400D03*
X3015531Y92464400D03*
X3015531Y89694400D03*
X3015531Y86924400D03*
X3015531Y84154400D03*
X3015531Y81384400D03*
X3015531Y78614400D03*
X3015531Y75844400D03*
X5855531Y107699400D03*
X5855531Y104929400D03*
X5855531Y102159400D03*
X5855531Y99389400D03*
X5855531Y96619400D03*
X5855531Y93849400D03*
X5855531Y91079400D03*
X5855531Y88309400D03*
X5855531Y85539400D03*
X5855531Y82769400D03*
X5855531Y79999400D03*
X5855531Y77229400D03*
D19*
X5855531Y74459400D03*
D20*
X4435531Y114629400D03*
X4435531Y67529400D03*
%TD*%
D21*
%TO.C,U16*%
X109240000Y87630000D03*
X109240000Y85090000D03*
X109240000Y82550000D03*
X109240000Y80010000D03*
X109240000Y77470000D03*
X109240000Y74930000D03*
X123083000Y85979000D03*
X120543000Y85979000D03*
X133497000Y85979000D03*
X130957000Y85979000D03*
X111780000Y88900000D03*
X114320000Y88900000D03*
X116860000Y88900000D03*
X119400000Y88900000D03*
X121940000Y88900000D03*
X124480000Y88900000D03*
X127020000Y88900000D03*
X129560000Y88900000D03*
X132100000Y88900000D03*
X134640000Y88900000D03*
X137180000Y88900000D03*
X139720000Y88900000D03*
X139720000Y73660000D03*
X137180000Y73660000D03*
X134640000Y73660000D03*
X132100000Y73660000D03*
X129560000Y73660000D03*
X127020000Y73660000D03*
X124480000Y73660000D03*
X121940000Y73660000D03*
X119400000Y73660000D03*
X116860000Y73660000D03*
X114320000Y73660000D03*
X111780000Y73660000D03*
%TD*%
D11*
%TO.C,J44*%
X27940000Y22860000D03*
D12*
X30480000Y22860000D03*
X33020000Y22860000D03*
X35560000Y22860000D03*
%TD*%
D22*
%TO.C,J36*%
X26670000Y137120000D03*
D16*
X24130000Y137120000D03*
%TD*%
D11*
%TO.C,J5*%
X203200000Y67310000D03*
D12*
X203200000Y69850000D03*
X205740000Y67310000D03*
X205740000Y69850000D03*
%TD*%
D11*
%TO.C,J18*%
X177705000Y62625000D03*
D12*
X177705000Y65165000D03*
X180245000Y62625000D03*
X180245000Y65165000D03*
%TD*%
D23*
%TO.C,H4*%
X0Y137160000D03*
%TD*%
D11*
%TO.C,J47*%
X7620000Y30480000D03*
D12*
X10160000Y30480000D03*
X12700000Y30480000D03*
X15240000Y30480000D03*
%TD*%
D17*
%TO.C,DC2*%
X129180000Y2700000D03*
D11*
X129180000Y22700000D03*
X84180000Y23200000D03*
D17*
X84180000Y2700000D03*
%TD*%
D11*
%TO.C,J25*%
X210820000Y15240000D03*
D12*
X213360000Y15240000D03*
X215900000Y15240000D03*
%TD*%
D24*
%TO.C,U25*%
X159035000Y19140000D03*
D25*
X159035000Y16600000D03*
X159035000Y14060000D03*
%TD*%
D11*
%TO.C,J6*%
X195595000Y69850000D03*
D12*
X198135000Y69850000D03*
X200675000Y69850000D03*
%TD*%
D23*
%TO.C,H3*%
X215900000Y137160000D03*
%TD*%
D11*
%TO.C,J15*%
X183530000Y16150000D03*
D12*
X186070000Y16150000D03*
X188610000Y16150000D03*
%TD*%
D11*
%TO.C,TP6*%
X0Y52070000D03*
%TD*%
%TO.C,J29*%
X27940000Y30480000D03*
D12*
X30480000Y30480000D03*
X33020000Y30480000D03*
X35560000Y30480000D03*
%TD*%
D11*
%TO.C,J12*%
X168380000Y56500000D03*
D12*
X168380000Y59040000D03*
X168380000Y61580000D03*
X168380000Y64120000D03*
%TD*%
D11*
%TO.C,J40*%
X93980000Y114300000D03*
D12*
X93980000Y116840000D03*
X93980000Y119380000D03*
X93980000Y121920000D03*
X93980000Y124460000D03*
X93980000Y127000000D03*
X93980000Y129540000D03*
X93980000Y132080000D03*
%TD*%
D11*
%TO.C,J45*%
X7620000Y50800000D03*
D12*
X10160000Y50800000D03*
X12700000Y50800000D03*
X15240000Y50800000D03*
%TD*%
D10*
%TO.C,InputB_offset1*%
X183398000Y41169000D03*
X180858000Y41169000D03*
X178318000Y41169000D03*
%TD*%
D11*
%TO.C,TP7*%
X10160000Y59690000D03*
%TD*%
%TO.C,J16*%
X169520006Y19954996D03*
D12*
X169520006Y22494996D03*
X172060006Y19954996D03*
X172060006Y22494996D03*
%TD*%
D11*
%TO.C,J19*%
X191820800Y134823200D03*
D12*
X191820800Y137363200D03*
%TD*%
D11*
%TO.C,J28*%
X101620000Y87630000D03*
D12*
X101620000Y85090000D03*
X101620000Y82550000D03*
X101620000Y80010000D03*
X101620000Y77470000D03*
X101620000Y74930000D03*
%TD*%
D24*
%TO.C,U19*%
X164035000Y19140000D03*
D25*
X164035000Y16600000D03*
X164035000Y14060000D03*
%TD*%
D11*
%TO.C,J38*%
X27940000Y2540000D03*
D12*
X30480000Y2540000D03*
X33020000Y2540000D03*
X35560000Y2540000D03*
%TD*%
D10*
%TO.C,LED_Temp1*%
X30480000Y66040000D03*
X27940000Y66040000D03*
X25400000Y66040000D03*
%TD*%
D11*
%TO.C,J11*%
X121920000Y115570000D03*
D12*
X121920000Y113030000D03*
X121920000Y110490000D03*
X121920000Y107950000D03*
%TD*%
D11*
%TO.C,TP1*%
X68580000Y137120000D03*
%TD*%
%TO.C,TP3*%
X88900000Y93980000D03*
%TD*%
D18*
%TO.C,U11*%
X217170000Y88900000D03*
X214630000Y88900000D03*
X212090000Y88900000D03*
X209550000Y88900000D03*
X207010000Y88900000D03*
X204470000Y88900000D03*
X201930000Y88900000D03*
X199390000Y88900000D03*
X196850000Y88900000D03*
X194310000Y88900000D03*
X191770000Y88900000D03*
X189230000Y88900000D03*
X186690000Y88900000D03*
X184150000Y88900000D03*
X184150000Y86360000D03*
X184150000Y83820000D03*
X184150000Y81280000D03*
X184150000Y78740000D03*
X184150000Y76200000D03*
X184150000Y73660000D03*
X186690000Y73660000D03*
X189230000Y73660000D03*
X191770000Y73660000D03*
X194310000Y73660000D03*
X196850000Y73660000D03*
X199390000Y73660000D03*
X201930000Y73660000D03*
X204470000Y73660000D03*
X207010000Y73660000D03*
X209550000Y73660000D03*
X212090000Y73660000D03*
X214630000Y73660000D03*
X217170000Y73660000D03*
X214630000Y76200000D03*
X189230000Y76200000D03*
X191770000Y76200000D03*
X189230000Y78740000D03*
X191770000Y78740000D03*
X189230000Y81280000D03*
X191770000Y81280000D03*
X189230000Y83820000D03*
X191770000Y83820000D03*
X189230000Y86360000D03*
X191770000Y86360000D03*
%TD*%
D22*
%TO.C,J34*%
X41910000Y137120000D03*
D16*
X39370000Y137120000D03*
%TD*%
D23*
%TO.C,H1*%
X0Y0D03*
%TD*%
D11*
%TO.C,J48*%
X7620000Y2540000D03*
D12*
X10160000Y2540000D03*
X12700000Y2540000D03*
X15240000Y2540000D03*
%TD*%
D26*
%TO.C,J9*%
X210900000Y10160000D03*
D27*
X213400000Y10160000D03*
X215900000Y10160000D03*
%TD*%
D11*
%TO.C,J7*%
X71120000Y133355000D03*
D12*
X71120000Y130815000D03*
X68580000Y133355000D03*
X68580000Y130815000D03*
%TD*%
D11*
%TO.C,J17*%
X186030006Y19960000D03*
D12*
X186030006Y22500000D03*
X188570006Y19960000D03*
X188570006Y22500000D03*
%TD*%
D10*
%TO.C,LED_Trigger1*%
X83820000Y99060000D03*
X81280000Y99060000D03*
X78740000Y99060000D03*
%TD*%
D11*
%TO.C,J46*%
X7620000Y22860000D03*
D12*
X10160000Y22860000D03*
X12700000Y22860000D03*
X15240000Y22860000D03*
%TD*%
D11*
%TO.C,J49*%
X93167200Y101295200D03*
D12*
X93167200Y98755200D03*
X90627200Y101295200D03*
X90627200Y98755200D03*
%TD*%
D10*
%TO.C,InputA_offset1*%
X170799600Y41245200D03*
X168259600Y41245200D03*
X165719600Y41245200D03*
%TD*%
D11*
%TO.C,TP4*%
X81788000Y83818430D03*
%TD*%
%TO.C,J39*%
X78740000Y132065000D03*
D12*
X78740000Y129525000D03*
X78740000Y126985000D03*
X78740000Y124445000D03*
X78740000Y121905000D03*
X78740000Y119365000D03*
X78740000Y116825000D03*
X78740000Y114285000D03*
%TD*%
D18*
%TO.C,U10*%
X217170000Y130810000D03*
X217170000Y127000000D03*
X214630000Y127000000D03*
X214630000Y130810000D03*
X212090000Y127000000D03*
X212090000Y130810000D03*
X209550000Y130810000D03*
X209550000Y127000000D03*
X207010000Y127000000D03*
X207010000Y130810000D03*
X204470000Y130810000D03*
X204470000Y127000000D03*
X201930000Y130810000D03*
X201930000Y127000000D03*
X199390000Y130810000D03*
X199390000Y127000000D03*
X196850000Y130810000D03*
X196850000Y127000000D03*
X194310000Y130810000D03*
X194310000Y127000000D03*
X191770000Y127000000D03*
X191770000Y130810000D03*
X189230000Y127000000D03*
X189230000Y130810000D03*
X186690000Y127000000D03*
X186690000Y130810000D03*
X184150000Y127000000D03*
X184150000Y130810000D03*
X180340000Y124460000D03*
X184150000Y124460000D03*
X180340000Y121920000D03*
X184150000Y121920000D03*
X184150000Y119380000D03*
X180340000Y119380000D03*
X180340000Y116840000D03*
X184150000Y116840000D03*
X180340000Y114300000D03*
X184150000Y114300000D03*
X184150000Y107950000D03*
X184150000Y111760000D03*
X186690000Y111760000D03*
X186690000Y107950000D03*
X189230000Y111760000D03*
X189230000Y107950000D03*
X191770000Y107950000D03*
X191770000Y111760000D03*
X194310000Y107950000D03*
X194310000Y111760000D03*
X196850000Y107950000D03*
X196850000Y111760000D03*
X199390000Y107950000D03*
X199390000Y111760000D03*
X201930000Y111760000D03*
X201930000Y107950000D03*
X204470000Y107950000D03*
X204470000Y111760000D03*
X207010000Y107950000D03*
X207010000Y111760000D03*
X209550000Y107950000D03*
X209550000Y111760000D03*
X212090000Y111760000D03*
X212090000Y107950000D03*
X214630000Y111760000D03*
X214630000Y107950000D03*
X217170000Y111760000D03*
X217170000Y107950000D03*
X214630000Y114300000D03*
X189230000Y114300000D03*
X191770000Y114300000D03*
X189230000Y116840000D03*
X191770000Y116840000D03*
X189230000Y119380000D03*
X191770000Y119380000D03*
X189230000Y121920000D03*
X191770000Y121920000D03*
X189230000Y124460000D03*
X191770000Y124460000D03*
%TD*%
D10*
%TO.C,GalvoA_Gain1*%
X210810000Y40640000D03*
X213350000Y40640000D03*
X215890000Y40640000D03*
%TD*%
D11*
%TO.C,TP8*%
X16510000Y85090000D03*
%TD*%
D22*
%TO.C,J37*%
X34290000Y137120000D03*
D16*
X31750000Y137120000D03*
%TD*%
D11*
%TO.C,J41*%
X42545000Y96520000D03*
D12*
X40005000Y96520000D03*
X37465000Y96520000D03*
X34925000Y96520000D03*
X32385000Y96520000D03*
X29845000Y96520000D03*
X27305000Y96520000D03*
X24765000Y96520000D03*
%TD*%
D28*
%TO.C,J32*%
X0Y59690000D03*
D29*
X0Y57150000D03*
%TD*%
D22*
%TO.C,J4*%
X60960000Y137120000D03*
D16*
X58420000Y137120000D03*
X55880000Y137120000D03*
X53340000Y137120000D03*
%TD*%
D22*
%TO.C,J35*%
X19050000Y137120000D03*
D16*
X16510000Y137120000D03*
%TD*%
D23*
%TO.C,H2*%
X215900000Y0D03*
%TD*%
D26*
%TO.C,J1*%
X183555000Y1725000D03*
D27*
X186055000Y1725000D03*
X188555000Y1725000D03*
%TD*%
D26*
%TO.C,J10*%
X195660000Y10177000D03*
D27*
X198160000Y10177000D03*
X200660000Y10177000D03*
%TD*%
D26*
%TO.C,J2*%
X170440000Y1725000D03*
D27*
X172940000Y1725000D03*
X175440000Y1725000D03*
%TD*%
M02*
