%TF.GenerationSoftware,KiCad,Pcbnew,(6.0.5)*%
%TF.CreationDate,2022-07-10T20:23:42-07:00*%
%TF.ProjectId,main_board,6d61696e-5f62-46f6-9172-642e6b696361,rev?*%
%TF.SameCoordinates,PX5c0c740PYc1c9600*%
%TF.FileFunction,Soldermask,Top*%
%TF.FilePolarity,Negative*%
%FSLAX46Y46*%
G04 Gerber Fmt 4.6, Leading zero omitted, Abs format (unit mm)*
G04 Created by KiCad (PCBNEW (6.0.5)) date 2022-07-10 20:23:42*
%MOMM*%
%LPD*%
G01*
G04 APERTURE LIST*
G04 Aperture macros list*
%AMRoundRect*
0 Rectangle with rounded corners*
0 $1 Rounding radius*
0 $2 $3 $4 $5 $6 $7 $8 $9 X,Y pos of 4 corners*
0 Add a 4 corners polygon primitive as box body*
4,1,4,$2,$3,$4,$5,$6,$7,$8,$9,$2,$3,0*
0 Add four circle primitives for the rounded corners*
1,1,$1+$1,$2,$3*
1,1,$1+$1,$4,$5*
1,1,$1+$1,$6,$7*
1,1,$1+$1,$8,$9*
0 Add four rect primitives between the rounded corners*
20,1,$1+$1,$2,$3,$4,$5,0*
20,1,$1+$1,$4,$5,$6,$7,0*
20,1,$1+$1,$6,$7,$8,$9,0*
20,1,$1+$1,$8,$9,$2,$3,0*%
G04 Aperture macros list end*
%ADD10RoundRect,0.225000X0.250000X-0.225000X0.250000X0.225000X-0.250000X0.225000X-0.250000X-0.225000X0*%
%ADD11C,1.440000*%
%ADD12RoundRect,0.200000X0.200000X0.275000X-0.200000X0.275000X-0.200000X-0.275000X0.200000X-0.275000X0*%
%ADD13RoundRect,0.200000X0.275000X-0.200000X0.275000X0.200000X-0.275000X0.200000X-0.275000X-0.200000X0*%
%ADD14RoundRect,0.250000X-0.325000X-1.100000X0.325000X-1.100000X0.325000X1.100000X-0.325000X1.100000X0*%
%ADD15RoundRect,0.200000X-0.200000X-0.275000X0.200000X-0.275000X0.200000X0.275000X-0.200000X0.275000X0*%
%ADD16RoundRect,0.250000X0.325000X1.100000X-0.325000X1.100000X-0.325000X-1.100000X0.325000X-1.100000X0*%
%ADD17RoundRect,0.200000X-0.275000X0.200000X-0.275000X-0.200000X0.275000X-0.200000X0.275000X0.200000X0*%
%ADD18RoundRect,0.150000X0.512500X0.150000X-0.512500X0.150000X-0.512500X-0.150000X0.512500X-0.150000X0*%
%ADD19RoundRect,0.225000X-0.225000X-0.250000X0.225000X-0.250000X0.225000X0.250000X-0.225000X0.250000X0*%
%ADD20RoundRect,0.150000X-0.825000X-0.150000X0.825000X-0.150000X0.825000X0.150000X-0.825000X0.150000X0*%
%ADD21R,1.700000X1.700000*%
%ADD22O,1.700000X1.700000*%
%ADD23RoundRect,0.150000X0.150000X-0.825000X0.150000X0.825000X-0.150000X0.825000X-0.150000X-0.825000X0*%
%ADD24R,1.400000X1.400000*%
%ADD25C,1.400000*%
%ADD26RoundRect,0.150000X0.825000X0.150000X-0.825000X0.150000X-0.825000X-0.150000X0.825000X-0.150000X0*%
%ADD27R,1.600000X0.300000*%
%ADD28RoundRect,0.100000X0.675000X0.100000X-0.675000X0.100000X-0.675000X-0.100000X0.675000X-0.100000X0*%
%ADD29R,3.000000X3.000000*%
%ADD30RoundRect,0.150000X-0.150000X0.512500X-0.150000X-0.512500X0.150000X-0.512500X0.150000X0.512500X0*%
%ADD31RoundRect,0.218750X-0.218750X-0.256250X0.218750X-0.256250X0.218750X0.256250X-0.218750X0.256250X0*%
%ADD32RoundRect,0.250000X-0.620000X-0.845000X0.620000X-0.845000X0.620000X0.845000X-0.620000X0.845000X0*%
%ADD33O,1.740000X2.190000*%
%ADD34RoundRect,0.150000X-0.150000X0.825000X-0.150000X-0.825000X0.150000X-0.825000X0.150000X0.825000X0*%
%ADD35RoundRect,0.225000X0.225000X0.250000X-0.225000X0.250000X-0.225000X-0.250000X0.225000X-0.250000X0*%
%ADD36RoundRect,0.150000X-0.512500X-0.150000X0.512500X-0.150000X0.512500X0.150000X-0.512500X0.150000X0*%
%ADD37R,1.100000X1.100000*%
%ADD38RoundRect,0.020500X-0.764500X-0.184500X0.764500X-0.184500X0.764500X0.184500X-0.764500X0.184500X0*%
%ADD39RoundRect,0.225000X-0.250000X0.225000X-0.250000X-0.225000X0.250000X-0.225000X0.250000X0.225000X0*%
%ADD40C,1.700000*%
%ADD41RoundRect,0.218750X0.256250X-0.218750X0.256250X0.218750X-0.256250X0.218750X-0.256250X-0.218750X0*%
%ADD42C,1.600000*%
%ADD43R,1.600000X1.600000*%
%ADD44C,4.000000*%
%ADD45C,1.879600*%
%ADD46RoundRect,0.250000X0.620000X0.845000X-0.620000X0.845000X-0.620000X-0.845000X0.620000X-0.845000X0*%
%ADD47RoundRect,0.249999X4.150001X4.550001X-4.150001X4.550001X-4.150001X-4.550001X4.150001X-4.550001X0*%
%ADD48C,3.200000*%
%ADD49R,2.000000X1.905000*%
%ADD50O,2.000000X1.905000*%
%ADD51RoundRect,0.150000X0.150000X-0.587500X0.150000X0.587500X-0.150000X0.587500X-0.150000X-0.587500X0*%
%ADD52R,0.300000X1.600000*%
%ADD53RoundRect,0.250000X-0.262500X-0.450000X0.262500X-0.450000X0.262500X0.450000X-0.262500X0.450000X0*%
%ADD54R,1.700000X1.300000*%
%ADD55RoundRect,0.250000X-0.600000X-0.725000X0.600000X-0.725000X0.600000X0.725000X-0.600000X0.725000X0*%
%ADD56O,1.700000X1.950000*%
%ADD57RoundRect,0.250000X0.262500X0.450000X-0.262500X0.450000X-0.262500X-0.450000X0.262500X-0.450000X0*%
%ADD58RoundRect,0.250000X-0.845000X0.620000X-0.845000X-0.620000X0.845000X-0.620000X0.845000X0.620000X0*%
%ADD59O,2.190000X1.740000*%
%ADD60RoundRect,0.020500X-0.184500X0.764500X-0.184500X-0.764500X0.184500X-0.764500X0.184500X0.764500X0*%
%ADD61R,1.000000X1.600000*%
G04 APERTURE END LIST*
D10*
%TO.C,C34*%
X158105000Y48490000D03*
X158105000Y50040000D03*
%TD*%
D11*
%TO.C,InputB_Gain1*%
X182778400Y52980000D03*
X182778400Y55520000D03*
X182778400Y58060000D03*
%TD*%
D12*
%TO.C,R53*%
X8445000Y10160000D03*
X6795000Y10160000D03*
%TD*%
D13*
%TO.C,R57*%
X156505000Y48440000D03*
X156505000Y50090000D03*
%TD*%
D12*
%TO.C,R5*%
X173799000Y34692000D03*
X172149000Y34692000D03*
%TD*%
D14*
%TO.C,C20*%
X187755000Y37740000D03*
X190705000Y37740000D03*
%TD*%
D15*
%TO.C,R34*%
X212535000Y27940000D03*
X214185000Y27940000D03*
%TD*%
D13*
%TO.C,R63*%
X134640000Y69025000D03*
X134640000Y70675000D03*
%TD*%
D11*
%TO.C,GalvoB_Gain1*%
X198618000Y40640000D03*
X201158000Y40640000D03*
X203698000Y40640000D03*
%TD*%
D16*
%TO.C,C26*%
X78945000Y72898000D03*
X75995000Y72898000D03*
%TD*%
D12*
%TO.C,R78*%
X172055000Y6400000D03*
X170405000Y6400000D03*
%TD*%
D13*
%TO.C,R59*%
X156505000Y51540000D03*
X156505000Y53190000D03*
%TD*%
D17*
%TO.C,R14*%
X174180000Y49525000D03*
X174180000Y47875000D03*
%TD*%
D18*
%TO.C,U26*%
X35630700Y119496800D03*
X35630700Y120446800D03*
X35630700Y121396800D03*
X33355700Y121396800D03*
X33355700Y119496800D03*
%TD*%
D19*
%TO.C,C39*%
X159730000Y47565000D03*
X161280000Y47565000D03*
%TD*%
D20*
%TO.C,U7*%
X176570006Y49170000D03*
X176570006Y47900000D03*
X176570006Y46630000D03*
X176570006Y45360000D03*
X181520006Y45360000D03*
X181520006Y46630000D03*
X181520006Y47900000D03*
X181520006Y49170000D03*
%TD*%
D16*
%TO.C,C28*%
X161255000Y4200000D03*
X158305000Y4200000D03*
%TD*%
D15*
%TO.C,R51*%
X186155000Y61616000D03*
X187805000Y61616000D03*
%TD*%
D17*
%TO.C,R28*%
X194310000Y33845000D03*
X194310000Y32195000D03*
%TD*%
D21*
%TO.C,TP11*%
X157380000Y63400000D03*
%TD*%
%TO.C,J3*%
X129540000Y128265000D03*
D22*
X129540000Y130805000D03*
X132080000Y128265000D03*
X132080000Y130805000D03*
X134620000Y128265000D03*
X134620000Y130805000D03*
X137160000Y128265000D03*
X137160000Y130805000D03*
X139700000Y128265000D03*
X139700000Y130805000D03*
X142240000Y128265000D03*
X142240000Y130805000D03*
X144780000Y128265000D03*
X144780000Y130805000D03*
X147320000Y128265000D03*
X147320000Y130805000D03*
X149860000Y128265000D03*
X149860000Y130805000D03*
X152400000Y128265000D03*
X152400000Y130805000D03*
X154940000Y128265000D03*
X154940000Y130805000D03*
X157480000Y128265000D03*
X157480000Y130805000D03*
X160020000Y128265000D03*
X160020000Y130805000D03*
X162560000Y128265000D03*
X162560000Y130805000D03*
X165100000Y128265000D03*
X165100000Y130805000D03*
X167640000Y128265000D03*
X167640000Y130805000D03*
X170180000Y128265000D03*
X170180000Y130805000D03*
X172720000Y128265000D03*
X172720000Y130805000D03*
X175260000Y128265000D03*
X175260000Y130805000D03*
X177800000Y128265000D03*
X177800000Y130805000D03*
%TD*%
D21*
%TO.C,TP2*%
X78740000Y93980000D03*
%TD*%
D15*
%TO.C,R71*%
X61405000Y91440000D03*
X63055000Y91440000D03*
%TD*%
D21*
%TO.C,J20*%
X210820000Y60960000D03*
D22*
X208280000Y60960000D03*
X205740000Y60960000D03*
%TD*%
D23*
%TO.C,U15*%
X57150000Y55945000D03*
X58420000Y55945000D03*
X59690000Y55945000D03*
X60960000Y55945000D03*
X62230000Y55945000D03*
X63500000Y55945000D03*
X64770000Y55945000D03*
X64770000Y60895000D03*
X63500000Y60895000D03*
X62230000Y60895000D03*
X60960000Y60895000D03*
X59690000Y60895000D03*
X58420000Y60895000D03*
X57150000Y60895000D03*
%TD*%
D15*
%TO.C,R35*%
X207455000Y30480000D03*
X209105000Y30480000D03*
%TD*%
D21*
%TO.C,J21*%
X208280000Y55880000D03*
D22*
X208280000Y53340000D03*
X205740000Y55880000D03*
X205740000Y53340000D03*
%TD*%
D14*
%TO.C,C27*%
X93775000Y72898000D03*
X96725000Y72898000D03*
%TD*%
D21*
%TO.C,TP12*%
X155956000Y57404000D03*
%TD*%
D24*
%TO.C,K1*%
X22870000Y124400000D03*
D25*
X22870000Y121860000D03*
X22870000Y111600000D03*
X22870000Y109160000D03*
X30490000Y109160000D03*
X30490000Y111600000D03*
X30490000Y121860000D03*
X30490000Y124400000D03*
%TD*%
D11*
%TO.C,GalvoA_Offset1*%
X210820000Y48260000D03*
X213360000Y48260000D03*
X215900000Y48260000D03*
%TD*%
D15*
%TO.C,R16*%
X211265000Y53340000D03*
X212915000Y53340000D03*
%TD*%
D26*
%TO.C,U14*%
X86295000Y76833430D03*
X86295000Y78103430D03*
X86295000Y79373430D03*
X86295000Y80643430D03*
X81345000Y80643430D03*
X81345000Y79373430D03*
X81345000Y78103430D03*
X81345000Y76833430D03*
%TD*%
D19*
%TO.C,C12*%
X198615000Y95250000D03*
X200165000Y95250000D03*
%TD*%
D21*
%TO.C,J23*%
X200660000Y22860000D03*
D22*
X200660000Y20320000D03*
X198120000Y22860000D03*
X198120000Y20320000D03*
%TD*%
D21*
%TO.C,J42*%
X24765000Y81280000D03*
D22*
X27305000Y81280000D03*
X29845000Y81280000D03*
X32385000Y81280000D03*
X34925000Y81280000D03*
X37465000Y81280000D03*
X40005000Y81280000D03*
X42545000Y81280000D03*
%TD*%
D15*
%TO.C,R39*%
X91885000Y82296000D03*
X93535000Y82296000D03*
%TD*%
D27*
%TO.C,U18*%
X62660000Y65065000D03*
X62660000Y65715000D03*
X62660000Y66365000D03*
X62660000Y67015000D03*
X59260000Y67015000D03*
X59260000Y66365000D03*
X59260000Y65715000D03*
X59260000Y65065000D03*
%TD*%
D21*
%TO.C,J22*%
X159655000Y32900000D03*
D22*
X162195000Y32900000D03*
X164735000Y32900000D03*
%TD*%
D21*
%TO.C,J24*%
X215900000Y22860000D03*
D22*
X215900000Y20320000D03*
X213360000Y22860000D03*
X213360000Y20320000D03*
%TD*%
D15*
%TO.C,R79*%
X19940000Y129500000D03*
X21590000Y129500000D03*
%TD*%
D28*
%TO.C,U27*%
X63835000Y79005000D03*
X63835000Y79655000D03*
X63835000Y80305000D03*
X63835000Y80955000D03*
X63835000Y81605000D03*
X63835000Y82255000D03*
X63835000Y82905000D03*
X63835000Y83555000D03*
X58085000Y83555000D03*
X58085000Y82905000D03*
X58085000Y82255000D03*
X58085000Y81605000D03*
X58085000Y80955000D03*
X58085000Y80305000D03*
X58085000Y79655000D03*
X58085000Y79005000D03*
D29*
X60960000Y81280000D03*
%TD*%
D17*
%TO.C,R55*%
X168905000Y53890000D03*
X168905000Y52240000D03*
%TD*%
D16*
%TO.C,C18*%
X167255000Y9600000D03*
X164305000Y9600000D03*
%TD*%
D11*
%TO.C,Cam_Input1*%
X51425000Y121245000D03*
X53965000Y121245000D03*
X56505000Y121245000D03*
%TD*%
D30*
%TO.C,U9*%
X60640000Y130637500D03*
X59690000Y130637500D03*
X58740000Y130637500D03*
X58740000Y128362500D03*
X60640000Y128362500D03*
%TD*%
D31*
%TO.C,D10*%
X32232500Y129500000D03*
X33807500Y129500000D03*
%TD*%
D13*
%TO.C,R44*%
X132100000Y69025000D03*
X132100000Y70675000D03*
%TD*%
D32*
%TO.C,J31*%
X140970000Y-1290000D03*
D33*
X143510000Y-1290000D03*
X146050000Y-1290000D03*
X148590000Y-1290000D03*
%TD*%
D34*
%TO.C,U5*%
X210185000Y27875000D03*
X208915000Y27875000D03*
X207645000Y27875000D03*
X206375000Y27875000D03*
X206375000Y22925000D03*
X207645000Y22925000D03*
X208915000Y22925000D03*
X210185000Y22925000D03*
%TD*%
D11*
%TO.C,Cam_Output1*%
X62855000Y121245000D03*
X65395000Y121245000D03*
X67935000Y121245000D03*
%TD*%
%TO.C,InputA_Gain1*%
X175260000Y52980000D03*
X175260000Y55520000D03*
X175260000Y58060000D03*
%TD*%
D21*
%TO.C,J27*%
X129540000Y137160000D03*
D22*
X129540000Y139700000D03*
X132080000Y137160000D03*
X132080000Y139700000D03*
X134620000Y137160000D03*
X134620000Y139700000D03*
X137160000Y137160000D03*
X137160000Y139700000D03*
X139700000Y137160000D03*
X139700000Y139700000D03*
X142240000Y137160000D03*
X142240000Y139700000D03*
X144780000Y137160000D03*
X144780000Y139700000D03*
X147320000Y137160000D03*
X147320000Y139700000D03*
X149860000Y137160000D03*
X149860000Y139700000D03*
X152400000Y137160000D03*
X152400000Y139700000D03*
X154940000Y137160000D03*
X154940000Y139700000D03*
X157480000Y137160000D03*
X157480000Y139700000D03*
X160020000Y137160000D03*
X160020000Y139700000D03*
X162560000Y137160000D03*
X162560000Y139700000D03*
X165100000Y137160000D03*
X165100000Y139700000D03*
X167640000Y137160000D03*
X167640000Y139700000D03*
X170180000Y137160000D03*
X170180000Y139700000D03*
X172720000Y137160000D03*
X172720000Y139700000D03*
X175260000Y137160000D03*
X175260000Y139700000D03*
X177800000Y137160000D03*
X177800000Y139700000D03*
%TD*%
D21*
%TO.C,TP5*%
X89154000Y83820000D03*
%TD*%
%TO.C,J14*%
X170845000Y16150000D03*
D22*
X173385000Y16150000D03*
X175925000Y16150000D03*
%TD*%
D17*
%TO.C,R61*%
X158105000Y53190000D03*
X158105000Y51540000D03*
%TD*%
D35*
%TO.C,C2*%
X161255000Y29400000D03*
X159705000Y29400000D03*
%TD*%
D21*
%TO.C,J43*%
X27940000Y50800000D03*
D22*
X30480000Y50800000D03*
X33020000Y50800000D03*
X35560000Y50800000D03*
%TD*%
D35*
%TO.C,C38*%
X65050000Y85090000D03*
X63500000Y85090000D03*
%TD*%
D11*
%TO.C,GalvoB_Offset1*%
X198120000Y48260000D03*
X200660000Y48260000D03*
X203200000Y48260000D03*
%TD*%
D36*
%TO.C,U32*%
X9276500Y89850000D03*
X9276500Y88900000D03*
X9276500Y87950000D03*
X11551500Y87950000D03*
X11551500Y89850000D03*
%TD*%
D19*
%TO.C,C6*%
X88760991Y80518000D03*
X90310991Y80518000D03*
%TD*%
D13*
%TO.C,R11*%
X185580000Y44775000D03*
X185580000Y46425000D03*
%TD*%
D17*
%TO.C,R82*%
X57150000Y96710000D03*
X57150000Y95060000D03*
%TD*%
D15*
%TO.C,R50*%
X183071000Y61616000D03*
X184721000Y61616000D03*
%TD*%
D37*
%TO.C,D6*%
X19151600Y120729200D03*
X19151600Y117929200D03*
%TD*%
D21*
%TO.C,J13*%
X161130000Y63440000D03*
D22*
X163670000Y63440000D03*
X161130000Y60900000D03*
X163670000Y60900000D03*
%TD*%
D32*
%TO.C,J8*%
X158750000Y-1600000D03*
D33*
X161290000Y-1600000D03*
X163830000Y-1600000D03*
%TD*%
D17*
%TO.C,R32*%
X204470000Y26860000D03*
X204470000Y25210000D03*
%TD*%
D20*
%TO.C,U2*%
X168315006Y29485000D03*
X168315006Y28215000D03*
X168315006Y26945000D03*
X168315006Y25675000D03*
X173265006Y25675000D03*
X173265006Y26945000D03*
X173265006Y28215000D03*
X173265006Y29485000D03*
%TD*%
D38*
%TO.C,U24*%
X83490000Y126765000D03*
X83490000Y126115000D03*
X83490000Y125465000D03*
X83490000Y124815000D03*
X83490000Y124165000D03*
X83490000Y123515000D03*
X83490000Y122865000D03*
X83490000Y122215000D03*
X83490000Y121565000D03*
X83490000Y120915000D03*
X83490000Y120265000D03*
X83490000Y119615000D03*
X89230000Y119615000D03*
X89230000Y120265000D03*
X89230000Y120915000D03*
X89230000Y121565000D03*
X89230000Y122215000D03*
X89230000Y122865000D03*
X89230000Y123515000D03*
X89230000Y124165000D03*
X89230000Y124815000D03*
X89230000Y125465000D03*
X89230000Y126115000D03*
X89230000Y126765000D03*
%TD*%
D12*
%TO.C,R62*%
X164430000Y54765000D03*
X162780000Y54765000D03*
%TD*%
D19*
%TO.C,C10*%
X206235000Y97790000D03*
X207785000Y97790000D03*
%TD*%
D39*
%TO.C,C30*%
X167305000Y53840000D03*
X167305000Y52290000D03*
%TD*%
D14*
%TO.C,C14*%
X197915000Y102870000D03*
X200865000Y102870000D03*
%TD*%
D40*
%TO.C,DC1*%
X129180000Y30640000D03*
D21*
X129180000Y50640000D03*
X84180000Y51140000D03*
D40*
X84180000Y30640000D03*
%TD*%
D20*
%TO.C,U30*%
X160230000Y53070000D03*
X160230000Y51800000D03*
X160230000Y50530000D03*
X160230000Y49260000D03*
X165180000Y49260000D03*
X165180000Y50530000D03*
X165180000Y51800000D03*
X165180000Y53070000D03*
%TD*%
D35*
%TO.C,C42*%
X158180000Y54765000D03*
X156630000Y54765000D03*
%TD*%
D20*
%TO.C,U3*%
X183555006Y29485000D03*
X183555006Y28215000D03*
X183555006Y26945000D03*
X183555006Y25675000D03*
X188505006Y25675000D03*
X188505006Y26945000D03*
X188505006Y28215000D03*
X188505006Y29485000D03*
%TD*%
D13*
%TO.C,R92*%
X182372000Y98743000D03*
X182372000Y100393000D03*
%TD*%
D41*
%TO.C,D3*%
X121940000Y65252500D03*
X121940000Y66827500D03*
%TD*%
D19*
%TO.C,C5*%
X91935000Y80264000D03*
X93485000Y80264000D03*
%TD*%
D21*
%TO.C,J26*%
X195595000Y15240000D03*
D22*
X198135000Y15240000D03*
X200675000Y15240000D03*
%TD*%
D12*
%TO.C,R18*%
X202755000Y53340000D03*
X201105000Y53340000D03*
%TD*%
D13*
%TO.C,R52*%
X10160000Y6795000D03*
X10160000Y8445000D03*
%TD*%
D10*
%TO.C,C40*%
X67310000Y95745000D03*
X67310000Y97295000D03*
%TD*%
D35*
%TO.C,C35*%
X164380000Y47565000D03*
X162830000Y47565000D03*
%TD*%
D36*
%TO.C,U28*%
X12832500Y68260000D03*
X12832500Y67310000D03*
X12832500Y66360000D03*
X15107500Y66360000D03*
X15107500Y68260000D03*
%TD*%
D12*
%TO.C,R43*%
X90233000Y76962000D03*
X88583000Y76962000D03*
%TD*%
D18*
%TO.C,U34*%
X11551500Y77790000D03*
X11551500Y78740000D03*
X11551500Y79690000D03*
X9276500Y79690000D03*
X9276500Y77790000D03*
%TD*%
D21*
%TO.C,J33*%
X55885000Y73660000D03*
D22*
X53345000Y73660000D03*
X55885000Y76200000D03*
X53345000Y76200000D03*
%TD*%
D17*
%TO.C,R22*%
X207010000Y37020000D03*
X207010000Y35370000D03*
%TD*%
D10*
%TO.C,C33*%
X67310000Y82250000D03*
X67310000Y83800000D03*
%TD*%
D12*
%TO.C,R49*%
X184705000Y65100000D03*
X183055000Y65100000D03*
%TD*%
D42*
%TO.C,J30*%
X3015531Y106314400D03*
X3015531Y103544400D03*
X3015531Y100774400D03*
X3015531Y98004400D03*
X3015531Y95234400D03*
X3015531Y92464400D03*
X3015531Y89694400D03*
X3015531Y86924400D03*
X3015531Y84154400D03*
X3015531Y81384400D03*
X3015531Y78614400D03*
X3015531Y75844400D03*
X5855531Y107699400D03*
X5855531Y104929400D03*
X5855531Y102159400D03*
X5855531Y99389400D03*
X5855531Y96619400D03*
X5855531Y93849400D03*
X5855531Y91079400D03*
X5855531Y88309400D03*
X5855531Y85539400D03*
X5855531Y82769400D03*
X5855531Y79999400D03*
X5855531Y77229400D03*
D43*
X5855531Y74459400D03*
D44*
X4435531Y114629400D03*
X4435531Y67529400D03*
%TD*%
D45*
%TO.C,U16*%
X109240000Y87630000D03*
X109240000Y85090000D03*
X109240000Y82550000D03*
X109240000Y80010000D03*
X109240000Y77470000D03*
X109240000Y74930000D03*
X123083000Y85979000D03*
X120543000Y85979000D03*
X133497000Y85979000D03*
X130957000Y85979000D03*
X111780000Y88900000D03*
X114320000Y88900000D03*
X116860000Y88900000D03*
X119400000Y88900000D03*
X121940000Y88900000D03*
X124480000Y88900000D03*
X127020000Y88900000D03*
X129560000Y88900000D03*
X132100000Y88900000D03*
X134640000Y88900000D03*
X137180000Y88900000D03*
X139720000Y88900000D03*
X139720000Y73660000D03*
X137180000Y73660000D03*
X134640000Y73660000D03*
X132100000Y73660000D03*
X129560000Y73660000D03*
X127020000Y73660000D03*
X124480000Y73660000D03*
X121940000Y73660000D03*
X119400000Y73660000D03*
X116860000Y73660000D03*
X114320000Y73660000D03*
X111780000Y73660000D03*
%TD*%
D15*
%TO.C,R37*%
X207455000Y20320000D03*
X209105000Y20320000D03*
%TD*%
D21*
%TO.C,J44*%
X27940000Y22860000D03*
D22*
X30480000Y22860000D03*
X33020000Y22860000D03*
X35560000Y22860000D03*
%TD*%
D46*
%TO.C,J36*%
X26670000Y137120000D03*
D33*
X24130000Y137120000D03*
%TD*%
D39*
%TO.C,C41*%
X167305000Y50740000D03*
X167305000Y49190000D03*
%TD*%
D18*
%TO.C,U33*%
X11551500Y98110000D03*
X11551500Y99060000D03*
X11551500Y100010000D03*
X9276500Y100010000D03*
X9276500Y98110000D03*
%TD*%
D47*
%TO.C,C22*%
X151530000Y39370000D03*
X138030000Y39370000D03*
%TD*%
D21*
%TO.C,J5*%
X203200000Y67310000D03*
D22*
X203200000Y69850000D03*
X205740000Y67310000D03*
X205740000Y69850000D03*
%TD*%
D17*
%TO.C,R68*%
X17780000Y65595000D03*
X17780000Y63945000D03*
%TD*%
%TO.C,R30*%
X205105000Y33845000D03*
X205105000Y32195000D03*
%TD*%
D35*
%TO.C,C37*%
X64275000Y76200000D03*
X62725000Y76200000D03*
%TD*%
D19*
%TO.C,C13*%
X206235000Y95250000D03*
X207785000Y95250000D03*
%TD*%
D10*
%TO.C,C32*%
X67310000Y78935000D03*
X67310000Y80485000D03*
%TD*%
D21*
%TO.C,J18*%
X177705000Y62625000D03*
D22*
X177705000Y65165000D03*
X180245000Y62625000D03*
X180245000Y65165000D03*
%TD*%
D17*
%TO.C,R13*%
X183980000Y49525000D03*
X183980000Y47875000D03*
%TD*%
D48*
%TO.C,H4*%
X0Y137160000D03*
%TD*%
D13*
%TO.C,R74*%
X10160000Y34735000D03*
X10160000Y36385000D03*
%TD*%
D21*
%TO.C,J47*%
X7620000Y30480000D03*
D22*
X10160000Y30480000D03*
X12700000Y30480000D03*
X15240000Y30480000D03*
%TD*%
D19*
%TO.C,C31*%
X56375000Y132675000D03*
X57925000Y132675000D03*
%TD*%
D12*
%TO.C,R60*%
X167530000Y47565000D03*
X165880000Y47565000D03*
%TD*%
D40*
%TO.C,DC2*%
X129180000Y2700000D03*
D21*
X129180000Y22700000D03*
X84180000Y23200000D03*
D40*
X84180000Y2700000D03*
%TD*%
D30*
%TO.C,U8*%
X51750000Y130637500D03*
X50800000Y130637500D03*
X49850000Y130637500D03*
X49850000Y128362500D03*
X51750000Y128362500D03*
%TD*%
D26*
%TO.C,U29*%
X64705000Y93345000D03*
X64705000Y94615000D03*
X64705000Y95885000D03*
X64705000Y97155000D03*
X59755000Y97155000D03*
X59755000Y95885000D03*
X59755000Y94615000D03*
X59755000Y93345000D03*
%TD*%
D15*
%TO.C,R75*%
X159680000Y54765000D03*
X161330000Y54765000D03*
%TD*%
D19*
%TO.C,C23*%
X80759000Y75184000D03*
X82309000Y75184000D03*
%TD*%
D47*
%TO.C,C25*%
X151530000Y13970000D03*
X138030000Y13970000D03*
%TD*%
D21*
%TO.C,J25*%
X210820000Y15240000D03*
D22*
X213360000Y15240000D03*
X215900000Y15240000D03*
%TD*%
D49*
%TO.C,U25*%
X159035000Y19140000D03*
D50*
X159035000Y16600000D03*
X159035000Y14060000D03*
%TD*%
D41*
%TO.C,D4*%
X127020000Y65252500D03*
X127020000Y66827500D03*
%TD*%
D15*
%TO.C,R36*%
X199835000Y27940000D03*
X201485000Y27940000D03*
%TD*%
D21*
%TO.C,J6*%
X195595000Y69850000D03*
D22*
X198135000Y69850000D03*
X200675000Y69850000D03*
%TD*%
D13*
%TO.C,R8*%
X183007000Y34375000D03*
X183007000Y36025000D03*
%TD*%
%TO.C,R46*%
X127020000Y69025000D03*
X127020000Y70675000D03*
%TD*%
D17*
%TO.C,R88*%
X31750000Y132865000D03*
X31750000Y131215000D03*
%TD*%
D19*
%TO.C,C8*%
X188455000Y33679988D03*
X190005000Y33679988D03*
%TD*%
D51*
%TO.C,Q1*%
X185740000Y100916500D03*
X187640000Y100916500D03*
X186690000Y102791500D03*
%TD*%
D48*
%TO.C,H3*%
X215900000Y137160000D03*
%TD*%
D41*
%TO.C,D2*%
X129560000Y65252500D03*
X129560000Y66827500D03*
%TD*%
D21*
%TO.C,J15*%
X183530000Y16150000D03*
D22*
X186070000Y16150000D03*
X188610000Y16150000D03*
%TD*%
D21*
%TO.C,TP6*%
X0Y52070000D03*
%TD*%
D52*
%TO.C,U20*%
X14265000Y71960000D03*
X14915000Y71960000D03*
X15565000Y71960000D03*
X16215000Y71960000D03*
X16215000Y75360000D03*
X15565000Y75360000D03*
X14915000Y75360000D03*
X14265000Y75360000D03*
%TD*%
D17*
%TO.C,R31*%
X205105000Y37020000D03*
X205105000Y35370000D03*
%TD*%
D21*
%TO.C,J29*%
X27940000Y30480000D03*
D22*
X30480000Y30480000D03*
X33020000Y30480000D03*
X35560000Y30480000D03*
%TD*%
D35*
%TO.C,C1*%
X164655000Y29400000D03*
X163105000Y29400000D03*
%TD*%
D21*
%TO.C,J12*%
X168380000Y56500000D03*
D22*
X168380000Y59040000D03*
X168380000Y61580000D03*
X168380000Y64120000D03*
%TD*%
D17*
%TO.C,R10*%
X172580000Y46425000D03*
X172580000Y44775000D03*
%TD*%
D21*
%TO.C,J40*%
X93980000Y114300000D03*
D22*
X93980000Y116840000D03*
X93980000Y119380000D03*
X93980000Y121920000D03*
X93980000Y124460000D03*
X93980000Y127000000D03*
X93980000Y129540000D03*
X93980000Y132080000D03*
%TD*%
D21*
%TO.C,J45*%
X7620000Y50800000D03*
D22*
X10160000Y50800000D03*
X12700000Y50800000D03*
X15240000Y50800000D03*
%TD*%
D11*
%TO.C,InputB_offset1*%
X183398000Y41169000D03*
X180858000Y41169000D03*
X178318000Y41169000D03*
%TD*%
D21*
%TO.C,TP7*%
X10160000Y59690000D03*
%TD*%
D13*
%TO.C,R66*%
X10160000Y63945000D03*
X10160000Y65595000D03*
%TD*%
%TO.C,R12*%
X183980000Y44775000D03*
X183980000Y46425000D03*
%TD*%
D15*
%TO.C,R1*%
X172149000Y33168000D03*
X173799000Y33168000D03*
%TD*%
D41*
%TO.C,D7*%
X134640000Y65252500D03*
X134640000Y66827500D03*
%TD*%
D16*
%TO.C,C17*%
X161155000Y26900000D03*
X158205000Y26900000D03*
%TD*%
D21*
%TO.C,J16*%
X169520006Y19954996D03*
D22*
X169520006Y22494996D03*
X172060006Y19954996D03*
X172060006Y22494996D03*
%TD*%
D21*
%TO.C,J19*%
X191820800Y134823200D03*
D22*
X191820800Y137363200D03*
%TD*%
D16*
%TO.C,C29*%
X166155000Y4200000D03*
X163205000Y4200000D03*
%TD*%
D12*
%TO.C,R76*%
X161330000Y56365000D03*
X159680000Y56365000D03*
%TD*%
D21*
%TO.C,J28*%
X101620000Y87630000D03*
D22*
X101620000Y85090000D03*
X101620000Y82550000D03*
X101620000Y80010000D03*
X101620000Y77470000D03*
X101620000Y74930000D03*
%TD*%
D15*
%TO.C,R83*%
X20765000Y132040000D03*
X22415000Y132040000D03*
%TD*%
D49*
%TO.C,U19*%
X164035000Y19140000D03*
D50*
X164035000Y16600000D03*
X164035000Y14060000D03*
%TD*%
D53*
%TO.C,FB3*%
X157967500Y6900000D03*
X159792500Y6900000D03*
%TD*%
D17*
%TO.C,R25*%
X217805000Y31940000D03*
X217805000Y30290000D03*
%TD*%
D18*
%TO.C,U12*%
X84957500Y93030000D03*
X84957500Y93980000D03*
X84957500Y94930000D03*
X82682500Y94930000D03*
X82682500Y93030000D03*
%TD*%
%TO.C,U17*%
X11551500Y82870000D03*
X11551500Y83820000D03*
X11551500Y84770000D03*
X9276500Y84770000D03*
X9276500Y82870000D03*
%TD*%
D21*
%TO.C,J38*%
X27940000Y2540000D03*
D22*
X30480000Y2540000D03*
X33020000Y2540000D03*
X35560000Y2540000D03*
%TD*%
D12*
%TO.C,R40*%
X93535000Y78740000D03*
X91885000Y78740000D03*
%TD*%
D13*
%TO.C,R15*%
X68580000Y126175000D03*
X68580000Y127825000D03*
%TD*%
D17*
%TO.C,R29*%
X196215000Y33845000D03*
X196215000Y32195000D03*
%TD*%
D12*
%TO.C,R4*%
X184594000Y31644000D03*
X182944000Y31644000D03*
%TD*%
D15*
%TO.C,R65*%
X58865000Y126325000D03*
X60515000Y126325000D03*
%TD*%
D35*
%TO.C,C47*%
X60465000Y99060000D03*
X58915000Y99060000D03*
%TD*%
D17*
%TO.C,R21*%
X217805000Y36385000D03*
X217805000Y34735000D03*
%TD*%
D52*
%TO.C,U22*%
X38395000Y117680000D03*
X39045000Y117680000D03*
X39695000Y117680000D03*
X40345000Y117680000D03*
X40345000Y121080000D03*
X39695000Y121080000D03*
X39045000Y121080000D03*
X38395000Y121080000D03*
%TD*%
%TO.C,U21*%
X14265000Y94820000D03*
X14915000Y94820000D03*
X15565000Y94820000D03*
X16215000Y94820000D03*
X16215000Y98220000D03*
X15565000Y98220000D03*
X14915000Y98220000D03*
X14265000Y98220000D03*
%TD*%
D11*
%TO.C,LED_Temp1*%
X30480000Y66040000D03*
X27940000Y66040000D03*
X25400000Y66040000D03*
%TD*%
D16*
%TO.C,C16*%
X166155000Y26900000D03*
X163205000Y26900000D03*
%TD*%
D21*
%TO.C,J11*%
X121920000Y115570000D03*
D22*
X121920000Y113030000D03*
X121920000Y110490000D03*
X121920000Y107950000D03*
%TD*%
D21*
%TO.C,TP1*%
X68580000Y137120000D03*
%TD*%
D36*
%TO.C,U31*%
X9784500Y74610000D03*
X9784500Y73660000D03*
X9784500Y72710000D03*
X12059500Y72710000D03*
X12059500Y74610000D03*
%TD*%
D21*
%TO.C,TP3*%
X88900000Y93980000D03*
%TD*%
D19*
%TO.C,C36*%
X55105000Y93345000D03*
X56655000Y93345000D03*
%TD*%
D31*
%TO.C,D9*%
X16992500Y129500000D03*
X18567500Y129500000D03*
%TD*%
D54*
%TO.C,D8*%
X55245000Y130615000D03*
X55245000Y127115000D03*
%TD*%
D42*
%TO.C,U11*%
X217170000Y88900000D03*
X214630000Y88900000D03*
X212090000Y88900000D03*
X209550000Y88900000D03*
X207010000Y88900000D03*
X204470000Y88900000D03*
X201930000Y88900000D03*
X199390000Y88900000D03*
X196850000Y88900000D03*
X194310000Y88900000D03*
X191770000Y88900000D03*
X189230000Y88900000D03*
X186690000Y88900000D03*
X184150000Y88900000D03*
X184150000Y86360000D03*
X184150000Y83820000D03*
X184150000Y81280000D03*
X184150000Y78740000D03*
X184150000Y76200000D03*
X184150000Y73660000D03*
X186690000Y73660000D03*
X189230000Y73660000D03*
X191770000Y73660000D03*
X194310000Y73660000D03*
X196850000Y73660000D03*
X199390000Y73660000D03*
X201930000Y73660000D03*
X204470000Y73660000D03*
X207010000Y73660000D03*
X209550000Y73660000D03*
X212090000Y73660000D03*
X214630000Y73660000D03*
X217170000Y73660000D03*
X214630000Y76200000D03*
X189230000Y76200000D03*
X191770000Y76200000D03*
X189230000Y78740000D03*
X191770000Y78740000D03*
X189230000Y81280000D03*
X191770000Y81280000D03*
X189230000Y83820000D03*
X191770000Y83820000D03*
X189230000Y86360000D03*
X191770000Y86360000D03*
%TD*%
D35*
%TO.C,C7*%
X93485000Y76962000D03*
X91935000Y76962000D03*
%TD*%
D15*
%TO.C,R17*%
X214440000Y53340000D03*
X216090000Y53340000D03*
%TD*%
D46*
%TO.C,J34*%
X41910000Y137120000D03*
D33*
X39370000Y137120000D03*
%TD*%
D15*
%TO.C,R2*%
X175680006Y28215000D03*
X177330006Y28215000D03*
%TD*%
D13*
%TO.C,R9*%
X174180000Y44775000D03*
X174180000Y46425000D03*
%TD*%
D15*
%TO.C,R19*%
X197930000Y53340000D03*
X199580000Y53340000D03*
%TD*%
D17*
%TO.C,R64*%
X62865000Y130325000D03*
X62865000Y128675000D03*
%TD*%
D48*
%TO.C,H1*%
X0Y0D03*
%TD*%
D12*
%TO.C,R41*%
X90360991Y78740000D03*
X88710991Y78740000D03*
%TD*%
D21*
%TO.C,J48*%
X7620000Y2540000D03*
D22*
X10160000Y2540000D03*
X12700000Y2540000D03*
X15240000Y2540000D03*
%TD*%
D12*
%TO.C,R42*%
X90360991Y75184000D03*
X88710991Y75184000D03*
%TD*%
D13*
%TO.C,R7*%
X185039000Y33613000D03*
X185039000Y35263000D03*
%TD*%
D55*
%TO.C,J9*%
X210900000Y10160000D03*
D56*
X213400000Y10160000D03*
X215900000Y10160000D03*
%TD*%
D18*
%TO.C,U13*%
X186557500Y97094000D03*
X186557500Y98044000D03*
X186557500Y98994000D03*
X184282500Y98994000D03*
X184282500Y97094000D03*
%TD*%
D13*
%TO.C,R45*%
X129560000Y69025000D03*
X129560000Y70675000D03*
%TD*%
D19*
%TO.C,C11*%
X198615000Y97790000D03*
X200165000Y97790000D03*
%TD*%
D17*
%TO.C,R27*%
X208915000Y33845000D03*
X208915000Y32195000D03*
%TD*%
D21*
%TO.C,J7*%
X71120000Y133355000D03*
D22*
X71120000Y130815000D03*
X68580000Y133355000D03*
X68580000Y130815000D03*
%TD*%
D10*
%TO.C,C4*%
X157880000Y8925000D03*
X157880000Y10475000D03*
%TD*%
D12*
%TO.C,R84*%
X188905000Y6600000D03*
X187255000Y6600000D03*
%TD*%
D13*
%TO.C,R77*%
X55245000Y95060000D03*
X55245000Y96710000D03*
%TD*%
D21*
%TO.C,J17*%
X186030006Y19960000D03*
D22*
X186030006Y22500000D03*
X188570006Y19960000D03*
X188570006Y22500000D03*
%TD*%
D14*
%TO.C,C15*%
X205535000Y102870000D03*
X208485000Y102870000D03*
%TD*%
D11*
%TO.C,LED_Trigger1*%
X83820000Y99060000D03*
X81280000Y99060000D03*
X78740000Y99060000D03*
%TD*%
D17*
%TO.C,R24*%
X219710000Y31940000D03*
X219710000Y30290000D03*
%TD*%
D12*
%TO.C,R6*%
X177355000Y29866000D03*
X175705000Y29866000D03*
%TD*%
D15*
%TO.C,R69*%
X58230000Y91440000D03*
X59880000Y91440000D03*
%TD*%
D16*
%TO.C,C19*%
X162555000Y9600000D03*
X159605000Y9600000D03*
%TD*%
D12*
%TO.C,R70*%
X14795000Y63500000D03*
X13145000Y63500000D03*
%TD*%
D41*
%TO.C,D1*%
X132100000Y65252500D03*
X132100000Y66827500D03*
%TD*%
D15*
%TO.C,R67*%
X55055000Y91440000D03*
X56705000Y91440000D03*
%TD*%
D39*
%TO.C,C3*%
X168980000Y10475000D03*
X168980000Y8925000D03*
%TD*%
D13*
%TO.C,R93*%
X182372000Y95441000D03*
X182372000Y97091000D03*
%TD*%
D12*
%TO.C,R72*%
X8445000Y38100000D03*
X6795000Y38100000D03*
%TD*%
D57*
%TO.C,FB1*%
X166792500Y6900000D03*
X164967500Y6900000D03*
%TD*%
D13*
%TO.C,R54*%
X71120000Y126175000D03*
X71120000Y127825000D03*
%TD*%
D21*
%TO.C,J46*%
X7620000Y22860000D03*
D22*
X10160000Y22860000D03*
X12700000Y22860000D03*
X15240000Y22860000D03*
%TD*%
D13*
%TO.C,R56*%
X121940000Y69025000D03*
X121940000Y70675000D03*
%TD*%
D21*
%TO.C,J49*%
X93167200Y101295200D03*
D22*
X93167200Y98755200D03*
X90627200Y101295200D03*
X90627200Y98755200D03*
%TD*%
D12*
%TO.C,R20*%
X194500000Y40640000D03*
X192850000Y40640000D03*
%TD*%
D34*
%TO.C,U4*%
X202245011Y35495000D03*
X200975011Y35495000D03*
X199705011Y35495000D03*
X198435011Y35495000D03*
X198435011Y30545000D03*
X199705011Y30545000D03*
X200975011Y30545000D03*
X202245011Y30545000D03*
%TD*%
D11*
%TO.C,InputA_offset1*%
X170799600Y41245200D03*
X168259600Y41245200D03*
X165719600Y41245200D03*
%TD*%
D19*
%TO.C,C9*%
X193535000Y23840008D03*
X195085000Y23840008D03*
%TD*%
D13*
%TO.C,R86*%
X34290000Y131215000D03*
X34290000Y132865000D03*
%TD*%
D21*
%TO.C,TP4*%
X81788000Y83818430D03*
%TD*%
%TO.C,J39*%
X78740000Y132065000D03*
D22*
X78740000Y129525000D03*
X78740000Y126985000D03*
X78740000Y124445000D03*
X78740000Y121905000D03*
X78740000Y119365000D03*
X78740000Y116825000D03*
X78740000Y114285000D03*
%TD*%
D42*
%TO.C,U10*%
X217170000Y130810000D03*
X217170000Y127000000D03*
X214630000Y127000000D03*
X214630000Y130810000D03*
X212090000Y127000000D03*
X212090000Y130810000D03*
X209550000Y130810000D03*
X209550000Y127000000D03*
X207010000Y127000000D03*
X207010000Y130810000D03*
X204470000Y130810000D03*
X204470000Y127000000D03*
X201930000Y130810000D03*
X201930000Y127000000D03*
X199390000Y130810000D03*
X199390000Y127000000D03*
X196850000Y130810000D03*
X196850000Y127000000D03*
X194310000Y130810000D03*
X194310000Y127000000D03*
X191770000Y127000000D03*
X191770000Y130810000D03*
X189230000Y127000000D03*
X189230000Y130810000D03*
X186690000Y127000000D03*
X186690000Y130810000D03*
X184150000Y127000000D03*
X184150000Y130810000D03*
X180340000Y124460000D03*
X184150000Y124460000D03*
X180340000Y121920000D03*
X184150000Y121920000D03*
X184150000Y119380000D03*
X180340000Y119380000D03*
X180340000Y116840000D03*
X184150000Y116840000D03*
X180340000Y114300000D03*
X184150000Y114300000D03*
X184150000Y107950000D03*
X184150000Y111760000D03*
X186690000Y111760000D03*
X186690000Y107950000D03*
X189230000Y111760000D03*
X189230000Y107950000D03*
X191770000Y107950000D03*
X191770000Y111760000D03*
X194310000Y107950000D03*
X194310000Y111760000D03*
X196850000Y107950000D03*
X196850000Y111760000D03*
X199390000Y107950000D03*
X199390000Y111760000D03*
X201930000Y111760000D03*
X201930000Y107950000D03*
X204470000Y107950000D03*
X204470000Y111760000D03*
X207010000Y107950000D03*
X207010000Y111760000D03*
X209550000Y107950000D03*
X209550000Y111760000D03*
X212090000Y111760000D03*
X212090000Y107950000D03*
X214630000Y111760000D03*
X214630000Y107950000D03*
X217170000Y111760000D03*
X217170000Y107950000D03*
X214630000Y114300000D03*
X189230000Y114300000D03*
X191770000Y114300000D03*
X189230000Y116840000D03*
X191770000Y116840000D03*
X189230000Y119380000D03*
X191770000Y119380000D03*
X189230000Y121920000D03*
X191770000Y121920000D03*
X189230000Y124460000D03*
X191770000Y124460000D03*
%TD*%
D11*
%TO.C,GalvoA_Gain1*%
X210810000Y40640000D03*
X213350000Y40640000D03*
X215890000Y40640000D03*
%TD*%
D15*
%TO.C,R73*%
X162780000Y56365000D03*
X164430000Y56365000D03*
%TD*%
D20*
%TO.C,U6*%
X175935006Y37105000D03*
X175935006Y35835000D03*
X175935006Y34565000D03*
X175935006Y33295000D03*
X180885006Y33295000D03*
X180885006Y34565000D03*
X180885006Y35835000D03*
X180885006Y37105000D03*
%TD*%
D16*
%TO.C,C45*%
X166155000Y23600000D03*
X163205000Y23600000D03*
%TD*%
D13*
%TO.C,R3*%
X186690000Y31962000D03*
X186690000Y33612000D03*
%TD*%
%TO.C,R47*%
X124480000Y69025000D03*
X124480000Y70675000D03*
%TD*%
D39*
%TO.C,C44*%
X67310000Y93485000D03*
X67310000Y91935000D03*
%TD*%
D16*
%TO.C,C49*%
X60960000Y101600000D03*
X58010000Y101600000D03*
%TD*%
D14*
%TO.C,C21*%
X192835000Y27940000D03*
X195785000Y27940000D03*
%TD*%
D35*
%TO.C,C48*%
X65545000Y99060000D03*
X63995000Y99060000D03*
%TD*%
D12*
%TO.C,R48*%
X187805000Y65100000D03*
X186155000Y65100000D03*
%TD*%
D16*
%TO.C,C43*%
X161155000Y23600000D03*
X158205000Y23600000D03*
%TD*%
D17*
%TO.C,R58*%
X168905000Y50790000D03*
X168905000Y49140000D03*
%TD*%
%TO.C,R26*%
X207010000Y33845000D03*
X207010000Y32195000D03*
%TD*%
D21*
%TO.C,TP8*%
X16510000Y85090000D03*
%TD*%
D46*
%TO.C,J37*%
X34290000Y137120000D03*
D33*
X31750000Y137120000D03*
%TD*%
D21*
%TO.C,J41*%
X42545000Y96520000D03*
D22*
X40005000Y96520000D03*
X37465000Y96520000D03*
X34925000Y96520000D03*
X32385000Y96520000D03*
X29845000Y96520000D03*
X27305000Y96520000D03*
X24765000Y96520000D03*
%TD*%
D34*
%TO.C,U1*%
X215265000Y35495000D03*
X213995000Y35495000D03*
X212725000Y35495000D03*
X211455000Y35495000D03*
X211455000Y30545000D03*
X212725000Y30545000D03*
X213995000Y30545000D03*
X215265000Y30545000D03*
%TD*%
D58*
%TO.C,J32*%
X0Y59690000D03*
D59*
X0Y57150000D03*
%TD*%
D60*
%TO.C,U23*%
X38500000Y91770000D03*
X37850000Y91770000D03*
X37200000Y91770000D03*
X36550000Y91770000D03*
X35900000Y91770000D03*
X35250000Y91770000D03*
X34600000Y91770000D03*
X33950000Y91770000D03*
X33300000Y91770000D03*
X32650000Y91770000D03*
X32000000Y91770000D03*
X31350000Y91770000D03*
X31350000Y86030000D03*
X32000000Y86030000D03*
X32650000Y86030000D03*
X33300000Y86030000D03*
X33950000Y86030000D03*
X34600000Y86030000D03*
X35250000Y86030000D03*
X35900000Y86030000D03*
X36550000Y86030000D03*
X37200000Y86030000D03*
X37850000Y86030000D03*
X38500000Y86030000D03*
%TD*%
D13*
%TO.C,R38*%
X184023000Y100648000D03*
X184023000Y102298000D03*
%TD*%
D61*
%TO.C,S1*%
X179700000Y102260000D03*
X179700000Y95860000D03*
X175900000Y102260000D03*
X175900000Y95860000D03*
%TD*%
D17*
%TO.C,R23*%
X208915000Y37020000D03*
X208915000Y35370000D03*
%TD*%
D46*
%TO.C,J4*%
X60960000Y137120000D03*
D33*
X58420000Y137120000D03*
X55880000Y137120000D03*
X53340000Y137120000D03*
%TD*%
D12*
%TO.C,R33*%
X209105000Y18415000D03*
X207455000Y18415000D03*
%TD*%
D46*
%TO.C,J35*%
X19050000Y137120000D03*
D33*
X16510000Y137120000D03*
%TD*%
D48*
%TO.C,H2*%
X215900000Y0D03*
%TD*%
D57*
%TO.C,FB2*%
X163292500Y6900000D03*
X161467500Y6900000D03*
%TD*%
D41*
%TO.C,D5*%
X124480000Y65252500D03*
X124480000Y66827500D03*
%TD*%
D12*
%TO.C,R81*%
X185205000Y6600000D03*
X183555000Y6600000D03*
%TD*%
D16*
%TO.C,C50*%
X66245000Y101600000D03*
X63295000Y101600000D03*
%TD*%
D36*
%TO.C,U35*%
X9276500Y94930000D03*
X9276500Y93980000D03*
X9276500Y93030000D03*
X11551500Y93030000D03*
X11551500Y94930000D03*
%TD*%
D55*
%TO.C,J1*%
X183555000Y1725000D03*
D56*
X186055000Y1725000D03*
X188555000Y1725000D03*
%TD*%
D55*
%TO.C,J10*%
X195660000Y10177000D03*
D56*
X198160000Y10177000D03*
X200660000Y10177000D03*
%TD*%
D55*
%TO.C,J2*%
X170440000Y1725000D03*
D56*
X172940000Y1725000D03*
X175440000Y1725000D03*
%TD*%
D39*
%TO.C,C24*%
X86360000Y83831430D03*
X86360000Y82281430D03*
%TD*%
D12*
%TO.C,R80*%
X175555000Y6400000D03*
X173905000Y6400000D03*
%TD*%
D61*
%TO.C,S2*%
X42540000Y130160000D03*
X42540000Y123760000D03*
X38740000Y130160000D03*
X38740000Y123760000D03*
%TD*%
M02*
