%TF.GenerationSoftware,KiCad,Pcbnew,(6.0.4)*%
%TF.CreationDate,2022-04-15T06:39:39-07:00*%
%TF.ProjectId,main_board,6d61696e-5f62-46f6-9172-642e6b696361,rev?*%
%TF.SameCoordinates,PX48ab840PYb340ac0*%
%TF.FileFunction,Paste,Top*%
%TF.FilePolarity,Positive*%
%FSLAX46Y46*%
G04 Gerber Fmt 4.6, Leading zero omitted, Abs format (unit mm)*
G04 Created by KiCad (PCBNEW (6.0.4)) date 2022-04-15 06:39:39*
%MOMM*%
%LPD*%
G01*
G04 APERTURE LIST*
G04 Aperture macros list*
%AMRoundRect*
0 Rectangle with rounded corners*
0 $1 Rounding radius*
0 $2 $3 $4 $5 $6 $7 $8 $9 X,Y pos of 4 corners*
0 Add a 4 corners polygon primitive as box body*
4,1,4,$2,$3,$4,$5,$6,$7,$8,$9,$2,$3,0*
0 Add four circle primitives for the rounded corners*
1,1,$1+$1,$2,$3*
1,1,$1+$1,$4,$5*
1,1,$1+$1,$6,$7*
1,1,$1+$1,$8,$9*
0 Add four rect primitives between the rounded corners*
20,1,$1+$1,$2,$3,$4,$5,0*
20,1,$1+$1,$4,$5,$6,$7,0*
20,1,$1+$1,$6,$7,$8,$9,0*
20,1,$1+$1,$8,$9,$2,$3,0*%
G04 Aperture macros list end*
%ADD10RoundRect,0.200000X0.200000X0.275000X-0.200000X0.275000X-0.200000X-0.275000X0.200000X-0.275000X0*%
%ADD11RoundRect,0.250000X-0.325000X-1.100000X0.325000X-1.100000X0.325000X1.100000X-0.325000X1.100000X0*%
%ADD12RoundRect,0.200000X-0.200000X-0.275000X0.200000X-0.275000X0.200000X0.275000X-0.200000X0.275000X0*%
%ADD13RoundRect,0.225000X-0.225000X-0.250000X0.225000X-0.250000X0.225000X0.250000X-0.225000X0.250000X0*%
%ADD14RoundRect,0.200000X0.275000X-0.200000X0.275000X0.200000X-0.275000X0.200000X-0.275000X-0.200000X0*%
%ADD15RoundRect,0.150000X-0.825000X-0.150000X0.825000X-0.150000X0.825000X0.150000X-0.825000X0.150000X0*%
%ADD16RoundRect,0.230000X-0.230000X-0.375000X0.230000X-0.375000X0.230000X0.375000X-0.230000X0.375000X0*%
%ADD17RoundRect,0.200000X-0.275000X0.200000X-0.275000X-0.200000X0.275000X-0.200000X0.275000X0.200000X0*%
%ADD18RoundRect,0.150000X0.150000X-0.825000X0.150000X0.825000X-0.150000X0.825000X-0.150000X-0.825000X0*%
%ADD19RoundRect,0.150000X0.825000X0.150000X-0.825000X0.150000X-0.825000X-0.150000X0.825000X-0.150000X0*%
%ADD20RoundRect,0.230000X0.230000X0.375000X-0.230000X0.375000X-0.230000X-0.375000X0.230000X-0.375000X0*%
%ADD21R,1.600000X0.300000*%
%ADD22RoundRect,0.250000X0.325000X1.100000X-0.325000X1.100000X-0.325000X-1.100000X0.325000X-1.100000X0*%
%ADD23RoundRect,0.150000X0.150000X-0.512500X0.150000X0.512500X-0.150000X0.512500X-0.150000X-0.512500X0*%
%ADD24RoundRect,0.150000X-0.150000X0.825000X-0.150000X-0.825000X0.150000X-0.825000X0.150000X0.825000X0*%
%ADD25RoundRect,0.230000X-0.375000X0.230000X-0.375000X-0.230000X0.375000X-0.230000X0.375000X0.230000X0*%
%ADD26RoundRect,0.218750X0.256250X-0.218750X0.256250X0.218750X-0.256250X0.218750X-0.256250X-0.218750X0*%
%ADD27RoundRect,0.150000X0.150000X-0.587500X0.150000X0.587500X-0.150000X0.587500X-0.150000X-0.587500X0*%
%ADD28RoundRect,0.250000X-0.450000X0.262500X-0.450000X-0.262500X0.450000X-0.262500X0.450000X0.262500X0*%
%ADD29RoundRect,0.150000X0.512500X0.150000X-0.512500X0.150000X-0.512500X-0.150000X0.512500X-0.150000X0*%
%ADD30R,0.650000X0.400000*%
%ADD31RoundRect,0.225000X0.225000X0.250000X-0.225000X0.250000X-0.225000X-0.250000X0.225000X-0.250000X0*%
%ADD32R,1.000000X1.600000*%
%ADD33RoundRect,0.250000X0.450000X-0.262500X0.450000X0.262500X-0.450000X0.262500X-0.450000X-0.262500X0*%
G04 APERTURE END LIST*
D10*
%TO.C,R5*%
X50229000Y24892000D03*
X51879000Y24892000D03*
%TD*%
D11*
%TO.C,C20*%
X68785000Y27940000D03*
X65835000Y27940000D03*
%TD*%
D12*
%TO.C,R34*%
X92265000Y27940000D03*
X90615000Y27940000D03*
%TD*%
D13*
%TO.C,C6*%
X24270991Y10033000D03*
X22720991Y10033000D03*
%TD*%
D14*
%TO.C,R14*%
X48870006Y45275000D03*
X48870006Y43625000D03*
%TD*%
D15*
%TO.C,U7*%
X59600006Y39370000D03*
X59600006Y38100000D03*
X59600006Y36830000D03*
X59600006Y35560000D03*
X54650006Y35560000D03*
X54650006Y36830000D03*
X54650006Y38100000D03*
X54650006Y39370000D03*
D16*
X57695006Y36715000D03*
X56555006Y38215000D03*
X56555006Y36715000D03*
X57695006Y38215000D03*
%TD*%
D17*
%TO.C,R28*%
X72390000Y32195000D03*
X72390000Y33845000D03*
%TD*%
D18*
%TO.C,U15*%
X18100000Y116775000D03*
X19370000Y116775000D03*
X20640000Y116775000D03*
X21910000Y116775000D03*
X23180000Y116775000D03*
X24450000Y116775000D03*
X25720000Y116775000D03*
X25720000Y111825000D03*
X24450000Y111825000D03*
X23180000Y111825000D03*
X21910000Y111825000D03*
X20640000Y111825000D03*
X19370000Y111825000D03*
X18100000Y111825000D03*
%TD*%
D12*
%TO.C,R35*%
X87185000Y30480000D03*
X85535000Y30480000D03*
%TD*%
%TO.C,R16*%
X90995000Y53340000D03*
X89345000Y53340000D03*
%TD*%
D19*
%TO.C,U14*%
X15305000Y6350000D03*
X15305000Y7620000D03*
X15305000Y8890000D03*
X15305000Y10160000D03*
X20255000Y10160000D03*
X20255000Y8890000D03*
X20255000Y7620000D03*
X20255000Y6350000D03*
D20*
X17210000Y7505000D03*
X18350000Y7505000D03*
X18350000Y9005000D03*
X17210000Y9005000D03*
%TD*%
D13*
%TO.C,C12*%
X78245000Y95250000D03*
X76695000Y95250000D03*
%TD*%
D21*
%TO.C,U18*%
X10050000Y113325000D03*
X10050000Y113975000D03*
X10050000Y114625000D03*
X10050000Y115275000D03*
X13450000Y115275000D03*
X13450000Y114625000D03*
X13450000Y113975000D03*
X13450000Y113325000D03*
%TD*%
D22*
%TO.C,C18*%
X37425000Y10960000D03*
X40375000Y10960000D03*
%TD*%
D23*
%TO.C,U9*%
X4130000Y64637500D03*
X6030000Y64637500D03*
X6030000Y62362500D03*
X5080000Y62362500D03*
X4130000Y62362500D03*
%TD*%
D14*
%TO.C,R44*%
X30480000Y78295000D03*
X30480000Y76645000D03*
%TD*%
D24*
%TO.C,U5*%
X88265000Y22925000D03*
X86995000Y22925000D03*
X85725000Y22925000D03*
X84455000Y22925000D03*
X84455000Y27875000D03*
X85725000Y27875000D03*
X86995000Y27875000D03*
X88265000Y27875000D03*
D25*
X87110000Y25970000D03*
X85610000Y25970000D03*
X85610000Y24830000D03*
X87110000Y24830000D03*
%TD*%
D13*
%TO.C,C2*%
X42050000Y21590000D03*
X40500000Y21590000D03*
%TD*%
D14*
%TO.C,R11*%
X64516000Y37020000D03*
X64516000Y35370000D03*
%TD*%
D17*
%TO.C,R32*%
X82550000Y25210000D03*
X82550000Y26860000D03*
%TD*%
D15*
%TO.C,U2*%
X51345006Y19685000D03*
X51345006Y18415000D03*
X51345006Y17145000D03*
X51345006Y15875000D03*
X46395006Y15875000D03*
X46395006Y17145000D03*
X46395006Y18415000D03*
X46395006Y19685000D03*
D16*
X49440006Y17030000D03*
X48300006Y18530000D03*
X48300006Y17030000D03*
X49440006Y18530000D03*
%TD*%
D13*
%TO.C,C10*%
X85865000Y97790000D03*
X84315000Y97790000D03*
%TD*%
D11*
%TO.C,C14*%
X78945000Y102870000D03*
X75995000Y102870000D03*
%TD*%
D12*
%TO.C,R39*%
X27495000Y11684000D03*
X25845000Y11684000D03*
%TD*%
D15*
%TO.C,U3*%
X66585006Y19685000D03*
X66585006Y18415000D03*
X66585006Y17145000D03*
X66585006Y15875000D03*
X61635006Y15875000D03*
X61635006Y17145000D03*
X61635006Y18415000D03*
X61635006Y19685000D03*
D16*
X64680006Y18530000D03*
X64680006Y17030000D03*
X63540006Y17030000D03*
X63540006Y18530000D03*
%TD*%
D26*
%TO.C,D3*%
X20320000Y74447500D03*
X20320000Y72872500D03*
%TD*%
D13*
%TO.C,C5*%
X27445000Y10033000D03*
X25895000Y10033000D03*
%TD*%
D10*
%TO.C,R18*%
X79185000Y53340000D03*
X80835000Y53340000D03*
%TD*%
%TO.C,R43*%
X22670991Y6604000D03*
X24320991Y6604000D03*
%TD*%
D17*
%TO.C,R22*%
X85090000Y35370000D03*
X85090000Y37020000D03*
%TD*%
D12*
%TO.C,R37*%
X87185000Y20320000D03*
X85535000Y20320000D03*
%TD*%
D17*
%TO.C,R30*%
X83185000Y32195000D03*
X83185000Y33845000D03*
%TD*%
D13*
%TO.C,C13*%
X85865000Y95250000D03*
X84315000Y95250000D03*
%TD*%
D14*
%TO.C,R13*%
X65380006Y45275000D03*
X65380006Y43625000D03*
%TD*%
D23*
%TO.C,U8*%
X26990000Y64637500D03*
X28890000Y64637500D03*
X28890000Y62362500D03*
X27940000Y62362500D03*
X26990000Y62362500D03*
%TD*%
D26*
%TO.C,D4*%
X25400000Y74447500D03*
X25400000Y72872500D03*
%TD*%
D12*
%TO.C,R36*%
X79565000Y27940000D03*
X77915000Y27940000D03*
%TD*%
D14*
%TO.C,R8*%
X61087000Y26225000D03*
X61087000Y24575000D03*
%TD*%
%TO.C,R46*%
X25400000Y78295000D03*
X25400000Y76645000D03*
%TD*%
D13*
%TO.C,C8*%
X68085000Y23879988D03*
X66535000Y23879988D03*
%TD*%
D27*
%TO.C,Q1*%
X52832000Y106347500D03*
X53782000Y104472500D03*
X51882000Y104472500D03*
%TD*%
D26*
%TO.C,D2*%
X27940000Y74447500D03*
X27940000Y72872500D03*
%TD*%
D17*
%TO.C,R31*%
X83185000Y35370000D03*
X83185000Y37020000D03*
%TD*%
D13*
%TO.C,C1*%
X36829995Y21590000D03*
X35279995Y21590000D03*
%TD*%
D17*
%TO.C,R10*%
X46330006Y35370000D03*
X46330006Y37020000D03*
%TD*%
D14*
%TO.C,R12*%
X62865000Y37020000D03*
X62865000Y35370000D03*
%TD*%
D12*
%TO.C,R1*%
X51879000Y23368000D03*
X50229000Y23368000D03*
%TD*%
D11*
%TO.C,C17*%
X43385000Y24130000D03*
X40435000Y24130000D03*
%TD*%
D28*
%TO.C,FB3*%
X33184998Y3062498D03*
X33184998Y4887498D03*
%TD*%
D17*
%TO.C,R25*%
X95885000Y30290000D03*
X95885000Y31940000D03*
%TD*%
D29*
%TO.C,U12*%
X7752500Y13020000D03*
X7752500Y14920000D03*
X10027500Y14920000D03*
X10027500Y13970000D03*
X10027500Y13020000D03*
%TD*%
D30*
%TO.C,U17*%
X5720000Y113650000D03*
X5720000Y114950000D03*
X7620000Y114950000D03*
X7620000Y114300000D03*
X7620000Y113650000D03*
%TD*%
D10*
%TO.C,R40*%
X25845000Y8382000D03*
X27495000Y8382000D03*
%TD*%
D17*
%TO.C,R15*%
X-2844800Y69914000D03*
X-2844800Y71564000D03*
%TD*%
%TO.C,R29*%
X74295000Y32195000D03*
X74295000Y33845000D03*
%TD*%
D10*
%TO.C,R4*%
X61024000Y21844000D03*
X62674000Y21844000D03*
%TD*%
D17*
%TO.C,R21*%
X95885000Y34735000D03*
X95885000Y36385000D03*
%TD*%
D11*
%TO.C,C16*%
X38305000Y24130000D03*
X35355000Y24130000D03*
%TD*%
D31*
%TO.C,C7*%
X25895000Y6604000D03*
X27445000Y6604000D03*
%TD*%
D12*
%TO.C,R17*%
X94170000Y53340000D03*
X92520000Y53340000D03*
%TD*%
%TO.C,R2*%
X55410006Y18415000D03*
X53760006Y18415000D03*
%TD*%
D14*
%TO.C,R9*%
X48235006Y37020000D03*
X48235006Y35370000D03*
%TD*%
D12*
%TO.C,R19*%
X77660000Y53340000D03*
X76010000Y53340000D03*
%TD*%
D10*
%TO.C,R41*%
X22670991Y8382000D03*
X24320991Y8382000D03*
%TD*%
%TO.C,R42*%
X25845000Y4826000D03*
X27495000Y4826000D03*
%TD*%
D14*
%TO.C,R7*%
X63119000Y25463000D03*
X63119000Y23813000D03*
%TD*%
D29*
%TO.C,U13*%
X49154500Y98364000D03*
X49154500Y100264000D03*
X51429500Y100264000D03*
X51429500Y99314000D03*
X51429500Y98364000D03*
%TD*%
D14*
%TO.C,R45*%
X27940000Y78295000D03*
X27940000Y76645000D03*
%TD*%
D13*
%TO.C,C11*%
X78245000Y97790000D03*
X76695000Y97790000D03*
%TD*%
D17*
%TO.C,R27*%
X86995000Y32195000D03*
X86995000Y33845000D03*
%TD*%
D31*
%TO.C,C4*%
X33044998Y7149998D03*
X34594998Y7149998D03*
%TD*%
D11*
%TO.C,C15*%
X86565000Y102870000D03*
X83615000Y102870000D03*
%TD*%
D17*
%TO.C,R24*%
X97790000Y30290000D03*
X97790000Y31940000D03*
%TD*%
D10*
%TO.C,R6*%
X53785000Y20066000D03*
X55435000Y20066000D03*
%TD*%
D22*
%TO.C,C19*%
X32345000Y10960000D03*
X35295000Y10960000D03*
%TD*%
D26*
%TO.C,D1*%
X30480000Y74447500D03*
X30480000Y72872500D03*
%TD*%
D31*
%TO.C,C3*%
X38124998Y7149998D03*
X39674998Y7149998D03*
%TD*%
D28*
%TO.C,FB1*%
X39534998Y3062498D03*
X39534998Y4887498D03*
%TD*%
D14*
%TO.C,R56*%
X20320000Y78295000D03*
X20320000Y76645000D03*
%TD*%
D10*
%TO.C,R20*%
X70930000Y40640000D03*
X72580000Y40640000D03*
%TD*%
D24*
%TO.C,U4*%
X80325011Y30545000D03*
X79055011Y30545000D03*
X77785011Y30545000D03*
X76515011Y30545000D03*
X76515011Y35495000D03*
X77785011Y35495000D03*
X79055011Y35495000D03*
X80325011Y35495000D03*
D25*
X77670011Y33590000D03*
X77670011Y32450000D03*
X79170011Y32450000D03*
X79170011Y33590000D03*
%TD*%
D13*
%TO.C,C9*%
X73165000Y23840008D03*
X71615000Y23840008D03*
%TD*%
D15*
%TO.C,U6*%
X58965006Y27305000D03*
X58965006Y26035000D03*
X58965006Y24765000D03*
X58965006Y23495000D03*
X54015006Y23495000D03*
X54015006Y24765000D03*
X54015006Y26035000D03*
X54015006Y27305000D03*
D16*
X57060006Y26150000D03*
X57060006Y24650000D03*
X55920006Y24650000D03*
X55920006Y26150000D03*
%TD*%
D14*
%TO.C,R3*%
X64770000Y23812000D03*
X64770000Y22162000D03*
%TD*%
%TO.C,R47*%
X22860000Y78295000D03*
X22860000Y76645000D03*
%TD*%
D11*
%TO.C,C21*%
X73865000Y27940000D03*
X70915000Y27940000D03*
%TD*%
D17*
%TO.C,R26*%
X85090000Y32195000D03*
X85090000Y33845000D03*
%TD*%
D24*
%TO.C,U1*%
X93345000Y30545000D03*
X92075000Y30545000D03*
X90805000Y30545000D03*
X89535000Y30545000D03*
X89535000Y35495000D03*
X90805000Y35495000D03*
X92075000Y35495000D03*
X93345000Y35495000D03*
D25*
X92190000Y32450000D03*
X92190000Y33590000D03*
X90690000Y32450000D03*
X90690000Y33590000D03*
%TD*%
D12*
%TO.C,R38*%
X51625000Y102108000D03*
X49975000Y102108000D03*
%TD*%
D32*
%TO.C,S1*%
X43820000Y85700000D03*
X43820000Y92100000D03*
X47620000Y85700000D03*
X47620000Y92100000D03*
%TD*%
D17*
%TO.C,R23*%
X86995000Y35370000D03*
X86995000Y37020000D03*
%TD*%
D10*
%TO.C,R33*%
X85535000Y18415000D03*
X87185000Y18415000D03*
%TD*%
D33*
%TO.C,FB2*%
X36359998Y4887498D03*
X36359998Y3062498D03*
%TD*%
D26*
%TO.C,D5*%
X22860000Y74447500D03*
X22860000Y72872500D03*
%TD*%
M02*
