%TF.GenerationSoftware,KiCad,Pcbnew,(6.0.4)*%
%TF.CreationDate,2022-04-16T00:48:39-07:00*%
%TF.ProjectId,main_board,6d61696e-5f62-46f6-9172-642e6b696361,rev?*%
%TF.SameCoordinates,PX48ab840PYb340ac0*%
%TF.FileFunction,Soldermask,Bot*%
%TF.FilePolarity,Negative*%
%FSLAX46Y46*%
G04 Gerber Fmt 4.6, Leading zero omitted, Abs format (unit mm)*
G04 Created by KiCad (PCBNEW (6.0.4)) date 2022-04-16 00:48:39*
%MOMM*%
%LPD*%
G01*
G04 APERTURE LIST*
%ADD10C,3.200000*%
%ADD11C,1.440000*%
%ADD12R,1.700000X1.700000*%
%ADD13O,1.700000X1.700000*%
%ADD14C,1.879600*%
%ADD15C,1.600000*%
G04 APERTURE END LIST*
D10*
%TO.C,REF\u002A\u002A*%
X93980000Y0D03*
%TD*%
%TO.C,REF\u002A\u002A*%
X0Y0D03*
%TD*%
%TO.C,REF\u002A\u002A*%
X0Y137160000D03*
%TD*%
%TO.C,REF\u002A\u002A*%
X93980000Y137160000D03*
%TD*%
D11*
%TO.C,InputB_Gain1*%
X60858400Y43180000D03*
X60858400Y45720000D03*
X60858400Y48260000D03*
%TD*%
%TO.C,GalvoB_Gain1*%
X76698000Y40640000D03*
X79238000Y40640000D03*
X81778000Y40640000D03*
%TD*%
D12*
%TO.C,J3*%
X7620000Y128265000D03*
D13*
X7620000Y130805000D03*
X10160000Y128265000D03*
X10160000Y130805000D03*
X12700000Y128265000D03*
X12700000Y130805000D03*
X15240000Y128265000D03*
X15240000Y130805000D03*
X17780000Y128265000D03*
X17780000Y130805000D03*
X20320000Y128265000D03*
X20320000Y130805000D03*
X22860000Y128265000D03*
X22860000Y130805000D03*
X25400000Y128265000D03*
X25400000Y130805000D03*
X27940000Y128265000D03*
X27940000Y130805000D03*
X30480000Y128265000D03*
X30480000Y130805000D03*
X33020000Y128265000D03*
X33020000Y130805000D03*
X35560000Y128265000D03*
X35560000Y130805000D03*
X38100000Y128265000D03*
X38100000Y130805000D03*
X40640000Y128265000D03*
X40640000Y130805000D03*
X43180000Y128265000D03*
X43180000Y130805000D03*
X45720000Y128265000D03*
X45720000Y130805000D03*
X48260000Y128265000D03*
X48260000Y130805000D03*
X50800000Y128265000D03*
X50800000Y130805000D03*
X53340000Y128265000D03*
X53340000Y130805000D03*
X55880000Y128265000D03*
X55880000Y130805000D03*
%TD*%
D12*
%TO.C,TP2*%
X8890000Y17780000D03*
%TD*%
%TO.C,J20*%
X88900000Y60960000D03*
D13*
X86360000Y60960000D03*
X83820000Y60960000D03*
%TD*%
D12*
%TO.C,J21*%
X86360000Y55880000D03*
D13*
X86360000Y53340000D03*
X83820000Y55880000D03*
X83820000Y53340000D03*
%TD*%
D11*
%TO.C,GalvoA_Offset1*%
X88900000Y48260000D03*
X91440000Y48260000D03*
X93980000Y48260000D03*
%TD*%
D12*
%TO.C,J7*%
X3810000Y13970000D03*
D13*
X3810000Y16510000D03*
%TD*%
D12*
%TO.C,J23*%
X78740000Y22860000D03*
D13*
X78740000Y20320000D03*
X76200000Y22860000D03*
X76200000Y20320000D03*
%TD*%
D12*
%TO.C,J22*%
X33835000Y16040000D03*
D13*
X36375000Y16040000D03*
X38915000Y16040000D03*
%TD*%
D12*
%TO.C,J24*%
X93980000Y22860000D03*
D13*
X93980000Y20320000D03*
X91440000Y22860000D03*
X91440000Y20320000D03*
%TD*%
D11*
%TO.C,Cam_Input1*%
X20320000Y66050000D03*
X20320000Y63510000D03*
X20320000Y60970000D03*
%TD*%
%TO.C,Cam_Output1*%
X12446000Y66040000D03*
X12446000Y63500000D03*
X12446000Y60960000D03*
%TD*%
%TO.C,InputA_Gain1*%
X53340000Y43180000D03*
X53340000Y45720000D03*
X53340000Y48260000D03*
%TD*%
D12*
%TO.C,J27*%
X7620000Y137160000D03*
D13*
X7620000Y139700000D03*
X10160000Y137160000D03*
X10160000Y139700000D03*
X12700000Y137160000D03*
X12700000Y139700000D03*
X15240000Y137160000D03*
X15240000Y139700000D03*
X17780000Y137160000D03*
X17780000Y139700000D03*
X20320000Y137160000D03*
X20320000Y139700000D03*
X22860000Y137160000D03*
X22860000Y139700000D03*
X25400000Y137160000D03*
X25400000Y139700000D03*
X27940000Y137160000D03*
X27940000Y139700000D03*
X30480000Y137160000D03*
X30480000Y139700000D03*
X33020000Y137160000D03*
X33020000Y139700000D03*
X35560000Y137160000D03*
X35560000Y139700000D03*
X38100000Y137160000D03*
X38100000Y139700000D03*
X40640000Y137160000D03*
X40640000Y139700000D03*
X43180000Y137160000D03*
X43180000Y139700000D03*
X45720000Y137160000D03*
X45720000Y139700000D03*
X48260000Y137160000D03*
X48260000Y139700000D03*
X50800000Y137160000D03*
X50800000Y139700000D03*
X53340000Y137160000D03*
X53340000Y139700000D03*
X55880000Y137160000D03*
X55880000Y139700000D03*
%TD*%
D12*
%TO.C,TP5*%
X27940000Y0D03*
%TD*%
%TO.C,J14*%
X47615000Y5080000D03*
D13*
X50155000Y5080000D03*
X52695000Y5080000D03*
%TD*%
D11*
%TO.C,GalvoB_Offset1*%
X76200000Y48260000D03*
X78740000Y48260000D03*
X81280000Y48260000D03*
%TD*%
D12*
%TO.C,J19*%
X61570000Y60960000D03*
D13*
X59030000Y60960000D03*
X56490000Y60960000D03*
X53950000Y60960000D03*
%TD*%
D12*
%TO.C,J8*%
X33909000Y0D03*
D13*
X36449000Y0D03*
X38989000Y0D03*
%TD*%
D12*
%TO.C,J26*%
X73660000Y10160000D03*
D13*
X76200000Y10160000D03*
X78740000Y10160000D03*
%TD*%
D14*
%TO.C,U16*%
X7620000Y95250000D03*
X7620000Y92710000D03*
X7620000Y90170000D03*
X7620000Y87630000D03*
X7620000Y85090000D03*
X7620000Y82550000D03*
X21463000Y93599000D03*
X18923000Y93599000D03*
X31877000Y93599000D03*
X29337000Y93599000D03*
X10160000Y96520000D03*
X12700000Y96520000D03*
X15240000Y96520000D03*
X17780000Y96520000D03*
X20320000Y96520000D03*
X22860000Y96520000D03*
X25400000Y96520000D03*
X27940000Y96520000D03*
X30480000Y96520000D03*
X33020000Y96520000D03*
X35560000Y96520000D03*
X38100000Y96520000D03*
X38100000Y81280000D03*
X35560000Y81280000D03*
X33020000Y81280000D03*
X30480000Y81280000D03*
X27940000Y81280000D03*
X25400000Y81280000D03*
X22860000Y81280000D03*
X20320000Y81280000D03*
X17780000Y81280000D03*
X15240000Y81280000D03*
X12700000Y81280000D03*
X10160000Y81280000D03*
%TD*%
D12*
%TO.C,J12*%
X20320000Y0D03*
D13*
X22860000Y0D03*
%TD*%
D12*
%TO.C,J5*%
X81280000Y67310000D03*
D13*
X81280000Y69850000D03*
X83820000Y67310000D03*
X83820000Y69850000D03*
%TD*%
D12*
%TO.C,J18*%
X53950006Y53340000D03*
D13*
X53950006Y55880000D03*
X56490006Y53340000D03*
X56490006Y55880000D03*
%TD*%
D12*
%TO.C,J25*%
X88900000Y15240000D03*
D13*
X91440000Y15240000D03*
X93980000Y15240000D03*
%TD*%
D12*
%TO.C,J6*%
X73675000Y69850000D03*
D13*
X76215000Y69850000D03*
X78755000Y69850000D03*
%TD*%
D12*
%TO.C,J15*%
X61570000Y5080000D03*
D13*
X64110000Y5080000D03*
X66650000Y5080000D03*
%TD*%
D11*
%TO.C,InputB_offset1*%
X61478000Y31369000D03*
X58938000Y31369000D03*
X56398000Y31369000D03*
%TD*%
D12*
%TO.C,J16*%
X47600006Y10154996D03*
D13*
X47600006Y12694996D03*
X50140006Y10154996D03*
X50140006Y12694996D03*
%TD*%
D12*
%TO.C,J13*%
X0Y127000000D03*
D13*
X0Y124460000D03*
%TD*%
D12*
%TO.C,J28*%
X0Y95250000D03*
D13*
X0Y92710000D03*
X0Y90170000D03*
X0Y87630000D03*
X0Y85090000D03*
X0Y82550000D03*
%TD*%
D11*
%TO.C,Prog1*%
X55372000Y95758000D03*
X55372000Y98298000D03*
X55372000Y100838000D03*
%TD*%
D12*
%TO.C,J11*%
X0Y107960000D03*
D13*
X0Y110500000D03*
X0Y113040000D03*
X0Y115580000D03*
%TD*%
D12*
%TO.C,TP1*%
X0Y60960000D03*
%TD*%
%TO.C,TP3*%
X3810000Y21590000D03*
%TD*%
D15*
%TO.C,U11*%
X95250000Y88900000D03*
X92710000Y88900000D03*
X90170000Y88900000D03*
X87630000Y88900000D03*
X85090000Y88900000D03*
X82550000Y88900000D03*
X80010000Y88900000D03*
X77470000Y88900000D03*
X74930000Y88900000D03*
X72390000Y88900000D03*
X69850000Y88900000D03*
X67310000Y88900000D03*
X64770000Y88900000D03*
X62230000Y88900000D03*
X62230000Y86360000D03*
X62230000Y83820000D03*
X62230000Y81280000D03*
X62230000Y78740000D03*
X62230000Y76200000D03*
X62230000Y73660000D03*
X64770000Y73660000D03*
X67310000Y73660000D03*
X69850000Y73660000D03*
X72390000Y73660000D03*
X74930000Y73660000D03*
X77470000Y73660000D03*
X80010000Y73660000D03*
X82550000Y73660000D03*
X85090000Y73660000D03*
X87630000Y73660000D03*
X90170000Y73660000D03*
X92710000Y73660000D03*
X95250000Y73660000D03*
X92710000Y76200000D03*
X67310000Y76200000D03*
X69850000Y76200000D03*
X67310000Y78740000D03*
X69850000Y78740000D03*
X67310000Y81280000D03*
X69850000Y81280000D03*
X67310000Y83820000D03*
X69850000Y83820000D03*
X67310000Y86360000D03*
X69850000Y86360000D03*
%TD*%
D12*
%TO.C,J9*%
X88900000Y10160000D03*
D13*
X91440000Y10160000D03*
X93980000Y10160000D03*
%TD*%
D12*
%TO.C,J17*%
X64110006Y10160000D03*
D13*
X64110006Y12700000D03*
X66650006Y10160000D03*
X66650006Y12700000D03*
%TD*%
D11*
%TO.C,LED_Trigger1*%
X8890000Y8890000D03*
X6350000Y8890000D03*
X3810000Y8890000D03*
%TD*%
%TO.C,InputA_offset1*%
X48879600Y31445200D03*
X46339600Y31445200D03*
X43799600Y31445200D03*
%TD*%
D12*
%TO.C,TP4*%
X15240000Y0D03*
%TD*%
D15*
%TO.C,U10*%
X95250000Y130810000D03*
X95250000Y127000000D03*
X92710000Y127000000D03*
X92710000Y130810000D03*
X90170000Y127000000D03*
X90170000Y130810000D03*
X87630000Y130810000D03*
X87630000Y127000000D03*
X85090000Y127000000D03*
X85090000Y130810000D03*
X82550000Y130810000D03*
X82550000Y127000000D03*
X80010000Y130810000D03*
X80010000Y127000000D03*
X77470000Y130810000D03*
X77470000Y127000000D03*
X74930000Y130810000D03*
X74930000Y127000000D03*
X72390000Y130810000D03*
X72390000Y127000000D03*
X69850000Y127000000D03*
X69850000Y130810000D03*
X67310000Y127000000D03*
X67310000Y130810000D03*
X64770000Y127000000D03*
X64770000Y130810000D03*
X62230000Y127000000D03*
X62230000Y130810000D03*
X58420000Y124460000D03*
X62230000Y124460000D03*
X58420000Y121920000D03*
X62230000Y121920000D03*
X62230000Y119380000D03*
X58420000Y119380000D03*
X58420000Y116840000D03*
X62230000Y116840000D03*
X58420000Y114300000D03*
X62230000Y114300000D03*
X62230000Y107950000D03*
X62230000Y111760000D03*
X64770000Y111760000D03*
X64770000Y107950000D03*
X67310000Y111760000D03*
X67310000Y107950000D03*
X69850000Y107950000D03*
X69850000Y111760000D03*
X72390000Y107950000D03*
X72390000Y111760000D03*
X74930000Y107950000D03*
X74930000Y111760000D03*
X77470000Y107950000D03*
X77470000Y111760000D03*
X80010000Y111760000D03*
X80010000Y107950000D03*
X82550000Y107950000D03*
X82550000Y111760000D03*
X85090000Y107950000D03*
X85090000Y111760000D03*
X87630000Y107950000D03*
X87630000Y111760000D03*
X90170000Y111760000D03*
X90170000Y107950000D03*
X92710000Y111760000D03*
X92710000Y107950000D03*
X95250000Y111760000D03*
X95250000Y107950000D03*
X92710000Y114300000D03*
X67310000Y114300000D03*
X69850000Y114300000D03*
X67310000Y116840000D03*
X69850000Y116840000D03*
X67310000Y119380000D03*
X69850000Y119380000D03*
X67310000Y121920000D03*
X69850000Y121920000D03*
X67310000Y124460000D03*
X69850000Y124460000D03*
%TD*%
D11*
%TO.C,GalvoA_Gain1*%
X88890000Y40640000D03*
X91430000Y40640000D03*
X93970000Y40640000D03*
%TD*%
D12*
%TO.C,J4*%
X0Y74920000D03*
D13*
X0Y72380000D03*
X0Y69840000D03*
X0Y67300000D03*
%TD*%
D12*
%TO.C,J1*%
X61570000Y0D03*
D13*
X64110000Y0D03*
X66650000Y0D03*
%TD*%
D12*
%TO.C,J10*%
X73660000Y15240000D03*
D13*
X76200000Y15240000D03*
X78740000Y15240000D03*
%TD*%
D12*
%TO.C,J2*%
X47615000Y0D03*
D13*
X50155000Y0D03*
X52695000Y0D03*
%TD*%
M02*
