%TF.GenerationSoftware,KiCad,Pcbnew,(6.0.1)*%
%TF.CreationDate,2022-01-30T20:50:49-08:00*%
%TF.ProjectId,Galvoamp,47616c76-6f61-46d7-902e-6b696361645f,rev?*%
%TF.SameCoordinates,Original*%
%TF.FileFunction,Legend,Top*%
%TF.FilePolarity,Positive*%
%FSLAX46Y46*%
G04 Gerber Fmt 4.6, Leading zero omitted, Abs format (unit mm)*
G04 Created by KiCad (PCBNEW (6.0.1)) date 2022-01-30 20:50:49*
%MOMM*%
%LPD*%
G01*
G04 APERTURE LIST*
%ADD10C,0.150000*%
%ADD11C,0.120000*%
G04 APERTURE END LIST*
D10*
%TO.C,J4*%
X136822380Y-76533333D02*
X137536666Y-76533333D01*
X137679523Y-76580952D01*
X137774761Y-76676190D01*
X137822380Y-76819047D01*
X137822380Y-76914285D01*
X137155714Y-75628571D02*
X137822380Y-75628571D01*
X136774761Y-75866666D02*
X137489047Y-76104761D01*
X137489047Y-75485714D01*
%TO.C,RV2*%
X141644761Y-113632380D02*
X141311428Y-113156190D01*
X141073333Y-113632380D02*
X141073333Y-112632380D01*
X141454285Y-112632380D01*
X141549523Y-112680000D01*
X141597142Y-112727619D01*
X141644761Y-112822857D01*
X141644761Y-112965714D01*
X141597142Y-113060952D01*
X141549523Y-113108571D01*
X141454285Y-113156190D01*
X141073333Y-113156190D01*
X141930476Y-112632380D02*
X142263809Y-113632380D01*
X142597142Y-112632380D01*
X142882857Y-112727619D02*
X142930476Y-112680000D01*
X143025714Y-112632380D01*
X143263809Y-112632380D01*
X143359047Y-112680000D01*
X143406666Y-112727619D01*
X143454285Y-112822857D01*
X143454285Y-112918095D01*
X143406666Y-113060952D01*
X142835238Y-113632380D01*
X143454285Y-113632380D01*
%TO.C,J3*%
X149526666Y-93642380D02*
X149526666Y-94356666D01*
X149479047Y-94499523D01*
X149383809Y-94594761D01*
X149240952Y-94642380D01*
X149145714Y-94642380D01*
X149907619Y-93642380D02*
X150526666Y-93642380D01*
X150193333Y-94023333D01*
X150336190Y-94023333D01*
X150431428Y-94070952D01*
X150479047Y-94118571D01*
X150526666Y-94213809D01*
X150526666Y-94451904D01*
X150479047Y-94547142D01*
X150431428Y-94594761D01*
X150336190Y-94642380D01*
X150050476Y-94642380D01*
X149955238Y-94594761D01*
X149907619Y-94547142D01*
%TO.C,RV3*%
X113704761Y-87932380D02*
X113371428Y-87456190D01*
X113133333Y-87932380D02*
X113133333Y-86932380D01*
X113514285Y-86932380D01*
X113609523Y-86980000D01*
X113657142Y-87027619D01*
X113704761Y-87122857D01*
X113704761Y-87265714D01*
X113657142Y-87360952D01*
X113609523Y-87408571D01*
X113514285Y-87456190D01*
X113133333Y-87456190D01*
X113990476Y-86932380D02*
X114323809Y-87932380D01*
X114657142Y-86932380D01*
X114895238Y-86932380D02*
X115514285Y-86932380D01*
X115180952Y-87313333D01*
X115323809Y-87313333D01*
X115419047Y-87360952D01*
X115466666Y-87408571D01*
X115514285Y-87503809D01*
X115514285Y-87741904D01*
X115466666Y-87837142D01*
X115419047Y-87884761D01*
X115323809Y-87932380D01*
X115038095Y-87932380D01*
X114942857Y-87884761D01*
X114895238Y-87837142D01*
%TO.C,R5*%
X133152380Y-91606666D02*
X132676190Y-91940000D01*
X133152380Y-92178095D02*
X132152380Y-92178095D01*
X132152380Y-91797142D01*
X132200000Y-91701904D01*
X132247619Y-91654285D01*
X132342857Y-91606666D01*
X132485714Y-91606666D01*
X132580952Y-91654285D01*
X132628571Y-91701904D01*
X132676190Y-91797142D01*
X132676190Y-92178095D01*
X132152380Y-90701904D02*
X132152380Y-91178095D01*
X132628571Y-91225714D01*
X132580952Y-91178095D01*
X132533333Y-91082857D01*
X132533333Y-90844761D01*
X132580952Y-90749523D01*
X132628571Y-90701904D01*
X132723809Y-90654285D01*
X132961904Y-90654285D01*
X133057142Y-90701904D01*
X133104761Y-90749523D01*
X133152380Y-90844761D01*
X133152380Y-91082857D01*
X133104761Y-91178095D01*
X133057142Y-91225714D01*
%TO.C,RV4*%
X141644761Y-87932380D02*
X141311428Y-87456190D01*
X141073333Y-87932380D02*
X141073333Y-86932380D01*
X141454285Y-86932380D01*
X141549523Y-86980000D01*
X141597142Y-87027619D01*
X141644761Y-87122857D01*
X141644761Y-87265714D01*
X141597142Y-87360952D01*
X141549523Y-87408571D01*
X141454285Y-87456190D01*
X141073333Y-87456190D01*
X141930476Y-86932380D02*
X142263809Y-87932380D01*
X142597142Y-86932380D01*
X143359047Y-87265714D02*
X143359047Y-87932380D01*
X143120952Y-86884761D02*
X142882857Y-87599047D01*
X143501904Y-87599047D01*
%TO.C,U2*%
X141488095Y-89842380D02*
X141488095Y-90651904D01*
X141535714Y-90747142D01*
X141583333Y-90794761D01*
X141678571Y-90842380D01*
X141869047Y-90842380D01*
X141964285Y-90794761D01*
X142011904Y-90747142D01*
X142059523Y-90651904D01*
X142059523Y-89842380D01*
X142488095Y-89937619D02*
X142535714Y-89890000D01*
X142630952Y-89842380D01*
X142869047Y-89842380D01*
X142964285Y-89890000D01*
X143011904Y-89937619D01*
X143059523Y-90032857D01*
X143059523Y-90128095D01*
X143011904Y-90270952D01*
X142440476Y-90842380D01*
X143059523Y-90842380D01*
%TO.C,R6*%
X105212380Y-91606666D02*
X104736190Y-91940000D01*
X105212380Y-92178095D02*
X104212380Y-92178095D01*
X104212380Y-91797142D01*
X104260000Y-91701904D01*
X104307619Y-91654285D01*
X104402857Y-91606666D01*
X104545714Y-91606666D01*
X104640952Y-91654285D01*
X104688571Y-91701904D01*
X104736190Y-91797142D01*
X104736190Y-92178095D01*
X104212380Y-90749523D02*
X104212380Y-90940000D01*
X104260000Y-91035238D01*
X104307619Y-91082857D01*
X104450476Y-91178095D01*
X104640952Y-91225714D01*
X105021904Y-91225714D01*
X105117142Y-91178095D01*
X105164761Y-91130476D01*
X105212380Y-91035238D01*
X105212380Y-90844761D01*
X105164761Y-90749523D01*
X105117142Y-90701904D01*
X105021904Y-90654285D01*
X104783809Y-90654285D01*
X104688571Y-90701904D01*
X104640952Y-90749523D01*
X104593333Y-90844761D01*
X104593333Y-91035238D01*
X104640952Y-91130476D01*
X104688571Y-91178095D01*
X104783809Y-91225714D01*
%TO.C,J1*%
X121582380Y-122253333D02*
X122296666Y-122253333D01*
X122439523Y-122300952D01*
X122534761Y-122396190D01*
X122582380Y-122539047D01*
X122582380Y-122634285D01*
X122582380Y-121253333D02*
X122582380Y-121824761D01*
X122582380Y-121539047D02*
X121582380Y-121539047D01*
X121725238Y-121634285D01*
X121820476Y-121729523D01*
X121868095Y-121824761D01*
%TO.C,REF\u002A\u002A*%
X153606666Y-73452380D02*
X153273333Y-72976190D01*
X153035238Y-73452380D02*
X153035238Y-72452380D01*
X153416190Y-72452380D01*
X153511428Y-72500000D01*
X153559047Y-72547619D01*
X153606666Y-72642857D01*
X153606666Y-72785714D01*
X153559047Y-72880952D01*
X153511428Y-72928571D01*
X153416190Y-72976190D01*
X153035238Y-72976190D01*
X154035238Y-72928571D02*
X154368571Y-72928571D01*
X154511428Y-73452380D02*
X154035238Y-73452380D01*
X154035238Y-72452380D01*
X154511428Y-72452380D01*
X155273333Y-72928571D02*
X154940000Y-72928571D01*
X154940000Y-73452380D02*
X154940000Y-72452380D01*
X155416190Y-72452380D01*
X155940000Y-72452380D02*
X155940000Y-72690476D01*
X155701904Y-72595238D02*
X155940000Y-72690476D01*
X156178095Y-72595238D01*
X155797142Y-72880952D02*
X155940000Y-72690476D01*
X156082857Y-72880952D01*
X156701904Y-72452380D02*
X156701904Y-72690476D01*
X156463809Y-72595238D02*
X156701904Y-72690476D01*
X156940000Y-72595238D01*
X156559047Y-72880952D02*
X156701904Y-72690476D01*
X156844761Y-72880952D01*
%TO.C,R3*%
X128072380Y-114466666D02*
X127596190Y-114800000D01*
X128072380Y-115038095D02*
X127072380Y-115038095D01*
X127072380Y-114657142D01*
X127120000Y-114561904D01*
X127167619Y-114514285D01*
X127262857Y-114466666D01*
X127405714Y-114466666D01*
X127500952Y-114514285D01*
X127548571Y-114561904D01*
X127596190Y-114657142D01*
X127596190Y-115038095D01*
X127072380Y-114133333D02*
X127072380Y-113514285D01*
X127453333Y-113847619D01*
X127453333Y-113704761D01*
X127500952Y-113609523D01*
X127548571Y-113561904D01*
X127643809Y-113514285D01*
X127881904Y-113514285D01*
X127977142Y-113561904D01*
X128024761Y-113609523D01*
X128072380Y-113704761D01*
X128072380Y-113990476D01*
X128024761Y-114085714D01*
X127977142Y-114133333D01*
%TO.C,R1*%
X122992380Y-114466666D02*
X122516190Y-114800000D01*
X122992380Y-115038095D02*
X121992380Y-115038095D01*
X121992380Y-114657142D01*
X122040000Y-114561904D01*
X122087619Y-114514285D01*
X122182857Y-114466666D01*
X122325714Y-114466666D01*
X122420952Y-114514285D01*
X122468571Y-114561904D01*
X122516190Y-114657142D01*
X122516190Y-115038095D01*
X122992380Y-113514285D02*
X122992380Y-114085714D01*
X122992380Y-113800000D02*
X121992380Y-113800000D01*
X122135238Y-113895238D01*
X122230476Y-113990476D01*
X122278095Y-114085714D01*
%TO.C,J6*%
X152066666Y-83482380D02*
X152066666Y-84196666D01*
X152019047Y-84339523D01*
X151923809Y-84434761D01*
X151780952Y-84482380D01*
X151685714Y-84482380D01*
X152971428Y-83482380D02*
X152780952Y-83482380D01*
X152685714Y-83530000D01*
X152638095Y-83577619D01*
X152542857Y-83720476D01*
X152495238Y-83910952D01*
X152495238Y-84291904D01*
X152542857Y-84387142D01*
X152590476Y-84434761D01*
X152685714Y-84482380D01*
X152876190Y-84482380D01*
X152971428Y-84434761D01*
X153019047Y-84387142D01*
X153066666Y-84291904D01*
X153066666Y-84053809D01*
X153019047Y-83958571D01*
X152971428Y-83910952D01*
X152876190Y-83863333D01*
X152685714Y-83863333D01*
X152590476Y-83910952D01*
X152542857Y-83958571D01*
X152495238Y-84053809D01*
%TO.C,C2*%
X142113333Y-92257142D02*
X142065714Y-92304761D01*
X141922857Y-92352380D01*
X141827619Y-92352380D01*
X141684761Y-92304761D01*
X141589523Y-92209523D01*
X141541904Y-92114285D01*
X141494285Y-91923809D01*
X141494285Y-91780952D01*
X141541904Y-91590476D01*
X141589523Y-91495238D01*
X141684761Y-91400000D01*
X141827619Y-91352380D01*
X141922857Y-91352380D01*
X142065714Y-91400000D01*
X142113333Y-91447619D01*
X142494285Y-91447619D02*
X142541904Y-91400000D01*
X142637142Y-91352380D01*
X142875238Y-91352380D01*
X142970476Y-91400000D01*
X143018095Y-91447619D01*
X143065714Y-91542857D01*
X143065714Y-91638095D01*
X143018095Y-91780952D01*
X142446666Y-92352380D01*
X143065714Y-92352380D01*
%TO.C,R2*%
X116672380Y-109386666D02*
X116196190Y-109720000D01*
X116672380Y-109958095D02*
X115672380Y-109958095D01*
X115672380Y-109577142D01*
X115720000Y-109481904D01*
X115767619Y-109434285D01*
X115862857Y-109386666D01*
X116005714Y-109386666D01*
X116100952Y-109434285D01*
X116148571Y-109481904D01*
X116196190Y-109577142D01*
X116196190Y-109958095D01*
X115767619Y-109005714D02*
X115720000Y-108958095D01*
X115672380Y-108862857D01*
X115672380Y-108624761D01*
X115720000Y-108529523D01*
X115767619Y-108481904D01*
X115862857Y-108434285D01*
X115958095Y-108434285D01*
X116100952Y-108481904D01*
X116672380Y-109053333D01*
X116672380Y-108434285D01*
%TO.C,REF\u002A\u002A*%
X153606666Y-119172380D02*
X153273333Y-118696190D01*
X153035238Y-119172380D02*
X153035238Y-118172380D01*
X153416190Y-118172380D01*
X153511428Y-118220000D01*
X153559047Y-118267619D01*
X153606666Y-118362857D01*
X153606666Y-118505714D01*
X153559047Y-118600952D01*
X153511428Y-118648571D01*
X153416190Y-118696190D01*
X153035238Y-118696190D01*
X154035238Y-118648571D02*
X154368571Y-118648571D01*
X154511428Y-119172380D02*
X154035238Y-119172380D01*
X154035238Y-118172380D01*
X154511428Y-118172380D01*
X155273333Y-118648571D02*
X154940000Y-118648571D01*
X154940000Y-119172380D02*
X154940000Y-118172380D01*
X155416190Y-118172380D01*
X155940000Y-118172380D02*
X155940000Y-118410476D01*
X155701904Y-118315238D02*
X155940000Y-118410476D01*
X156178095Y-118315238D01*
X155797142Y-118600952D02*
X155940000Y-118410476D01*
X156082857Y-118600952D01*
X156701904Y-118172380D02*
X156701904Y-118410476D01*
X156463809Y-118315238D02*
X156701904Y-118410476D01*
X156940000Y-118315238D01*
X156559047Y-118600952D02*
X156701904Y-118410476D01*
X156844761Y-118600952D01*
%TO.C,R4*%
X140772380Y-109386666D02*
X140296190Y-109720000D01*
X140772380Y-109958095D02*
X139772380Y-109958095D01*
X139772380Y-109577142D01*
X139820000Y-109481904D01*
X139867619Y-109434285D01*
X139962857Y-109386666D01*
X140105714Y-109386666D01*
X140200952Y-109434285D01*
X140248571Y-109481904D01*
X140296190Y-109577142D01*
X140296190Y-109958095D01*
X140105714Y-108529523D02*
X140772380Y-108529523D01*
X139724761Y-108767619D02*
X140439047Y-109005714D01*
X140439047Y-108386666D01*
%TO.C,RV1*%
X113704761Y-113632380D02*
X113371428Y-113156190D01*
X113133333Y-113632380D02*
X113133333Y-112632380D01*
X113514285Y-112632380D01*
X113609523Y-112680000D01*
X113657142Y-112727619D01*
X113704761Y-112822857D01*
X113704761Y-112965714D01*
X113657142Y-113060952D01*
X113609523Y-113108571D01*
X113514285Y-113156190D01*
X113133333Y-113156190D01*
X113990476Y-112632380D02*
X114323809Y-113632380D01*
X114657142Y-112632380D01*
X115514285Y-113632380D02*
X114942857Y-113632380D01*
X115228571Y-113632380D02*
X115228571Y-112632380D01*
X115133333Y-112775238D01*
X115038095Y-112870476D01*
X114942857Y-112918095D01*
%TO.C,J2*%
X121586666Y-93642380D02*
X121586666Y-94356666D01*
X121539047Y-94499523D01*
X121443809Y-94594761D01*
X121300952Y-94642380D01*
X121205714Y-94642380D01*
X122015238Y-93737619D02*
X122062857Y-93690000D01*
X122158095Y-93642380D01*
X122396190Y-93642380D01*
X122491428Y-93690000D01*
X122539047Y-93737619D01*
X122586666Y-93832857D01*
X122586666Y-93928095D01*
X122539047Y-94070952D01*
X121967619Y-94642380D01*
X122586666Y-94642380D01*
%TO.C,J5*%
X108882380Y-76533333D02*
X109596666Y-76533333D01*
X109739523Y-76580952D01*
X109834761Y-76676190D01*
X109882380Y-76819047D01*
X109882380Y-76914285D01*
X108882380Y-75580952D02*
X108882380Y-76057142D01*
X109358571Y-76104761D01*
X109310952Y-76057142D01*
X109263333Y-75961904D01*
X109263333Y-75723809D01*
X109310952Y-75628571D01*
X109358571Y-75580952D01*
X109453809Y-75533333D01*
X109691904Y-75533333D01*
X109787142Y-75580952D01*
X109834761Y-75628571D01*
X109882380Y-75723809D01*
X109882380Y-75961904D01*
X109834761Y-76057142D01*
X109787142Y-76104761D01*
%TO.C,REF\u002A\u002A*%
X105346666Y-119172380D02*
X105013333Y-118696190D01*
X104775238Y-119172380D02*
X104775238Y-118172380D01*
X105156190Y-118172380D01*
X105251428Y-118220000D01*
X105299047Y-118267619D01*
X105346666Y-118362857D01*
X105346666Y-118505714D01*
X105299047Y-118600952D01*
X105251428Y-118648571D01*
X105156190Y-118696190D01*
X104775238Y-118696190D01*
X105775238Y-118648571D02*
X106108571Y-118648571D01*
X106251428Y-119172380D02*
X105775238Y-119172380D01*
X105775238Y-118172380D01*
X106251428Y-118172380D01*
X107013333Y-118648571D02*
X106680000Y-118648571D01*
X106680000Y-119172380D02*
X106680000Y-118172380D01*
X107156190Y-118172380D01*
X107680000Y-118172380D02*
X107680000Y-118410476D01*
X107441904Y-118315238D02*
X107680000Y-118410476D01*
X107918095Y-118315238D01*
X107537142Y-118600952D02*
X107680000Y-118410476D01*
X107822857Y-118600952D01*
X108441904Y-118172380D02*
X108441904Y-118410476D01*
X108203809Y-118315238D02*
X108441904Y-118410476D01*
X108680000Y-118315238D01*
X108299047Y-118600952D02*
X108441904Y-118410476D01*
X108584761Y-118600952D01*
%TO.C,C1*%
X114173333Y-92257142D02*
X114125714Y-92304761D01*
X113982857Y-92352380D01*
X113887619Y-92352380D01*
X113744761Y-92304761D01*
X113649523Y-92209523D01*
X113601904Y-92114285D01*
X113554285Y-91923809D01*
X113554285Y-91780952D01*
X113601904Y-91590476D01*
X113649523Y-91495238D01*
X113744761Y-91400000D01*
X113887619Y-91352380D01*
X113982857Y-91352380D01*
X114125714Y-91400000D01*
X114173333Y-91447619D01*
X115125714Y-92352380D02*
X114554285Y-92352380D01*
X114840000Y-92352380D02*
X114840000Y-91352380D01*
X114744761Y-91495238D01*
X114649523Y-91590476D01*
X114554285Y-91638095D01*
%TO.C,REF\u002A\u002A*%
X105346666Y-73452380D02*
X105013333Y-72976190D01*
X104775238Y-73452380D02*
X104775238Y-72452380D01*
X105156190Y-72452380D01*
X105251428Y-72500000D01*
X105299047Y-72547619D01*
X105346666Y-72642857D01*
X105346666Y-72785714D01*
X105299047Y-72880952D01*
X105251428Y-72928571D01*
X105156190Y-72976190D01*
X104775238Y-72976190D01*
X105775238Y-72928571D02*
X106108571Y-72928571D01*
X106251428Y-73452380D02*
X105775238Y-73452380D01*
X105775238Y-72452380D01*
X106251428Y-72452380D01*
X107013333Y-72928571D02*
X106680000Y-72928571D01*
X106680000Y-73452380D02*
X106680000Y-72452380D01*
X107156190Y-72452380D01*
X107680000Y-72452380D02*
X107680000Y-72690476D01*
X107441904Y-72595238D02*
X107680000Y-72690476D01*
X107918095Y-72595238D01*
X107537142Y-72880952D02*
X107680000Y-72690476D01*
X107822857Y-72880952D01*
X108441904Y-72452380D02*
X108441904Y-72690476D01*
X108203809Y-72595238D02*
X108441904Y-72690476D01*
X108680000Y-72595238D01*
X108299047Y-72880952D02*
X108441904Y-72690476D01*
X108584761Y-72880952D01*
%TO.C,U1*%
X113548095Y-89842380D02*
X113548095Y-90651904D01*
X113595714Y-90747142D01*
X113643333Y-90794761D01*
X113738571Y-90842380D01*
X113929047Y-90842380D01*
X114024285Y-90794761D01*
X114071904Y-90747142D01*
X114119523Y-90651904D01*
X114119523Y-89842380D01*
X115119523Y-90842380D02*
X114548095Y-90842380D01*
X114833809Y-90842380D02*
X114833809Y-89842380D01*
X114738571Y-89985238D01*
X114643333Y-90080476D01*
X114548095Y-90128095D01*
D11*
%TO.C,J4*%
X146110000Y-77530000D02*
X146110000Y-74870000D01*
X139700000Y-77530000D02*
X138370000Y-77530000D01*
X138370000Y-77530000D02*
X138370000Y-76200000D01*
X140970000Y-77530000D02*
X146110000Y-77530000D01*
X140970000Y-77530000D02*
X140970000Y-74870000D01*
X140970000Y-74870000D02*
X146110000Y-74870000D01*
%TO.C,RV2*%
X137355000Y-119380000D02*
X147125000Y-119380000D01*
X147125000Y-114310000D02*
X147125000Y-119380000D01*
X137355000Y-114310000D02*
X137355000Y-119380000D01*
X137355000Y-114310000D02*
X147125000Y-114310000D01*
%TO.C,J3*%
X148530000Y-95190000D02*
X149860000Y-95190000D01*
X148530000Y-96520000D02*
X148530000Y-95190000D01*
X151190000Y-97790000D02*
X151190000Y-100390000D01*
X148530000Y-97790000D02*
X148530000Y-100390000D01*
X148530000Y-97790000D02*
X151190000Y-97790000D01*
X148530000Y-100390000D02*
X151190000Y-100390000D01*
%TO.C,RV3*%
X119185000Y-86350000D02*
X119185000Y-81280000D01*
X119185000Y-86350000D02*
X109415000Y-86350000D01*
X109415000Y-86350000D02*
X109415000Y-81280000D01*
X119185000Y-81280000D02*
X109415000Y-81280000D01*
%TO.C,R5*%
X133700000Y-89520000D02*
X133700000Y-93360000D01*
X135540000Y-93360000D02*
X135540000Y-89520000D01*
X135540000Y-89520000D02*
X133700000Y-89520000D01*
X134620000Y-94310000D02*
X134620000Y-93360000D01*
X134620000Y-88570000D02*
X134620000Y-89520000D01*
X133700000Y-93360000D02*
X135540000Y-93360000D01*
%TO.C,RV4*%
X147125000Y-86350000D02*
X137355000Y-86350000D01*
X137355000Y-86350000D02*
X137355000Y-81280000D01*
X147125000Y-86350000D02*
X147125000Y-81280000D01*
X147125000Y-81280000D02*
X137355000Y-81280000D01*
%TO.C,U2*%
X144900000Y-91390000D02*
X143250000Y-91390000D01*
X139600000Y-101670000D02*
X144900000Y-101670000D01*
X144900000Y-101670000D02*
X144900000Y-91390000D01*
X141250000Y-91390000D02*
X139600000Y-91390000D01*
X139600000Y-91390000D02*
X139600000Y-101670000D01*
X141250000Y-91390000D02*
G75*
G03*
X143250000Y-91390000I1000000J0D01*
G01*
%TO.C,R6*%
X105760000Y-89520000D02*
X105760000Y-93360000D01*
X107600000Y-89520000D02*
X105760000Y-89520000D01*
X106680000Y-88570000D02*
X106680000Y-89520000D01*
X107600000Y-93360000D02*
X107600000Y-89520000D01*
X106680000Y-94310000D02*
X106680000Y-93360000D01*
X105760000Y-93360000D02*
X107600000Y-93360000D01*
%TO.C,J1*%
X123130000Y-123250000D02*
X123130000Y-121920000D01*
X130870000Y-123250000D02*
X130870000Y-120590000D01*
X125730000Y-123250000D02*
X130870000Y-123250000D01*
X125730000Y-120590000D02*
X130870000Y-120590000D01*
X124460000Y-123250000D02*
X123130000Y-123250000D01*
X125730000Y-123250000D02*
X125730000Y-120590000D01*
%TO.C,R3*%
X130460000Y-112380000D02*
X128620000Y-112380000D01*
X129540000Y-111430000D02*
X129540000Y-112380000D01*
X128620000Y-116220000D02*
X130460000Y-116220000D01*
X129540000Y-117170000D02*
X129540000Y-116220000D01*
X128620000Y-112380000D02*
X128620000Y-116220000D01*
X130460000Y-116220000D02*
X130460000Y-112380000D01*
%TO.C,R1*%
X123540000Y-116220000D02*
X125380000Y-116220000D01*
X125380000Y-116220000D02*
X125380000Y-112380000D01*
X125380000Y-112380000D02*
X123540000Y-112380000D01*
X124460000Y-117170000D02*
X124460000Y-116220000D01*
X123540000Y-112380000D02*
X123540000Y-116220000D01*
X124460000Y-111430000D02*
X124460000Y-112380000D01*
%TO.C,J6*%
X151070000Y-86360000D02*
X151070000Y-85030000D01*
X151070000Y-92770000D02*
X153730000Y-92770000D01*
X151070000Y-87630000D02*
X151070000Y-92770000D01*
X153730000Y-87630000D02*
X153730000Y-92770000D01*
X151070000Y-85030000D02*
X152400000Y-85030000D01*
X151070000Y-87630000D02*
X153730000Y-87630000D01*
%TO.C,C2*%
X138660000Y-90770000D02*
X138660000Y-87030000D01*
X145900000Y-90770000D02*
X145900000Y-87030000D01*
X145900000Y-87030000D02*
X138660000Y-87030000D01*
X145900000Y-90770000D02*
X138660000Y-90770000D01*
%TO.C,R2*%
X115220000Y-107300000D02*
X113380000Y-107300000D01*
X113380000Y-107300000D02*
X113380000Y-111140000D01*
X114300000Y-112090000D02*
X114300000Y-111140000D01*
X115220000Y-111140000D02*
X115220000Y-107300000D01*
X114300000Y-106350000D02*
X114300000Y-107300000D01*
X113380000Y-111140000D02*
X115220000Y-111140000D01*
%TO.C,R4*%
X143160000Y-111140000D02*
X143160000Y-107300000D01*
X142240000Y-106350000D02*
X142240000Y-107300000D01*
X141320000Y-107300000D02*
X141320000Y-111140000D01*
X142240000Y-112090000D02*
X142240000Y-111140000D01*
X141320000Y-111140000D02*
X143160000Y-111140000D01*
X143160000Y-107300000D02*
X141320000Y-107300000D01*
%TO.C,RV1*%
X109415000Y-114310000D02*
X119185000Y-114310000D01*
X119185000Y-114310000D02*
X119185000Y-119380000D01*
X109415000Y-119380000D02*
X119185000Y-119380000D01*
X109415000Y-114310000D02*
X109415000Y-119380000D01*
%TO.C,J2*%
X120590000Y-100390000D02*
X123250000Y-100390000D01*
X123250000Y-97790000D02*
X123250000Y-100390000D01*
X120590000Y-96520000D02*
X120590000Y-95190000D01*
X120590000Y-95190000D02*
X121920000Y-95190000D01*
X120590000Y-97790000D02*
X120590000Y-100390000D01*
X120590000Y-97790000D02*
X123250000Y-97790000D01*
%TO.C,J5*%
X110430000Y-77530000D02*
X110430000Y-76200000D01*
X111760000Y-77530000D02*
X110430000Y-77530000D01*
X118170000Y-77530000D02*
X118170000Y-74870000D01*
X113030000Y-74870000D02*
X118170000Y-74870000D01*
X113030000Y-77530000D02*
X118170000Y-77530000D01*
X113030000Y-77530000D02*
X113030000Y-74870000D01*
%TO.C,C1*%
X110720000Y-90770000D02*
X110720000Y-87030000D01*
X117960000Y-87030000D02*
X110720000Y-87030000D01*
X117960000Y-90770000D02*
X117960000Y-87030000D01*
X117960000Y-90770000D02*
X110720000Y-90770000D01*
%TO.C,U1*%
X116960000Y-101670000D02*
X116960000Y-91390000D01*
X116960000Y-91390000D02*
X115310000Y-91390000D01*
X111660000Y-91390000D02*
X111660000Y-101670000D01*
X111660000Y-101670000D02*
X116960000Y-101670000D01*
X113310000Y-91390000D02*
X111660000Y-91390000D01*
X113310000Y-91390000D02*
G75*
G03*
X115310000Y-91390000I1000000J0D01*
G01*
%TD*%
M02*
