%TF.GenerationSoftware,KiCad,Pcbnew,(6.0.1)*%
%TF.CreationDate,2022-01-30T20:50:49-08:00*%
%TF.ProjectId,Galvoamp,47616c76-6f61-46d7-902e-6b696361645f,rev?*%
%TF.SameCoordinates,Original*%
%TF.FileFunction,Copper,L1,Top*%
%TF.FilePolarity,Positive*%
%FSLAX46Y46*%
G04 Gerber Fmt 4.6, Leading zero omitted, Abs format (unit mm)*
G04 Created by KiCad (PCBNEW (6.0.1)) date 2022-01-30 20:50:49*
%MOMM*%
%LPD*%
G01*
G04 APERTURE LIST*
%TA.AperFunction,ComponentPad*%
%ADD10R,1.700000X1.700000*%
%TD*%
%TA.AperFunction,ComponentPad*%
%ADD11O,1.700000X1.700000*%
%TD*%
%TA.AperFunction,ComponentPad*%
%ADD12C,1.440000*%
%TD*%
%TA.AperFunction,ComponentPad*%
%ADD13C,1.400000*%
%TD*%
%TA.AperFunction,ComponentPad*%
%ADD14O,1.400000X1.400000*%
%TD*%
%TA.AperFunction,ComponentPad*%
%ADD15R,1.600000X1.600000*%
%TD*%
%TA.AperFunction,ComponentPad*%
%ADD16O,1.600000X1.600000*%
%TD*%
%TA.AperFunction,ComponentPad*%
%ADD17C,1.600000*%
%TD*%
%TA.AperFunction,ViaPad*%
%ADD18C,0.800000*%
%TD*%
%TA.AperFunction,Conductor*%
%ADD19C,0.250000*%
%TD*%
G04 APERTURE END LIST*
D10*
%TO.P,J4,1,Pin_1*%
%TO.N,GND*%
X139700000Y-76200000D03*
D11*
%TO.P,J4,2,Pin_2*%
%TO.N,Net-(J4-Pad2)*%
X142240000Y-76200000D03*
%TO.P,J4,3,Pin_3*%
%TO.N,GND*%
X144780000Y-76200000D03*
%TD*%
D12*
%TO.P,RV2,1,1*%
%TO.N,+15V*%
X144780000Y-116840000D03*
%TO.P,RV2,2,2*%
%TO.N,Net-(R4-Pad1)*%
X142240000Y-116840000D03*
%TO.P,RV2,3,3*%
%TO.N,-15V*%
X139700000Y-116840000D03*
%TD*%
D10*
%TO.P,J3,1,Pin_1*%
%TO.N,Net-(J3-Pad1)*%
X149860000Y-96520000D03*
D11*
%TO.P,J3,2,Pin_2*%
%TO.N,Net-(J3-Pad2)*%
X149860000Y-99060000D03*
%TD*%
D12*
%TO.P,RV3,1,1*%
%TO.N,Net-(U1-Pad2)*%
X111760000Y-83820000D03*
%TO.P,RV3,2,2*%
%TO.N,Net-(U1-Pad6)*%
X114300000Y-83820000D03*
%TO.P,RV3,3,3*%
X116840000Y-83820000D03*
%TD*%
D13*
%TO.P,R5,1*%
%TO.N,Net-(R5-Pad1)*%
X134620000Y-95250000D03*
D14*
%TO.P,R5,2*%
%TO.N,GND*%
X134620000Y-87630000D03*
%TD*%
D12*
%TO.P,RV4,1,1*%
%TO.N,Net-(R5-Pad1)*%
X139700000Y-83820000D03*
%TO.P,RV4,2,2*%
%TO.N,Net-(J4-Pad2)*%
X142240000Y-83820000D03*
%TO.P,RV4,3,3*%
X144780000Y-83820000D03*
%TD*%
D15*
%TO.P,U2,1,NULL*%
%TO.N,Net-(J3-Pad1)*%
X138440000Y-92720000D03*
D16*
%TO.P,U2,2,-*%
%TO.N,Net-(R5-Pad1)*%
X138440000Y-95260000D03*
%TO.P,U2,3,+*%
%TO.N,Net-(R3-Pad2)*%
X138440000Y-97800000D03*
%TO.P,U2,4,V-*%
%TO.N,-15V*%
X138440000Y-100340000D03*
%TO.P,U2,5,NULL*%
%TO.N,Net-(J3-Pad2)*%
X146060000Y-100340000D03*
%TO.P,U2,6*%
%TO.N,Net-(J4-Pad2)*%
X146060000Y-97800000D03*
%TO.P,U2,7,V+*%
%TO.N,+15V*%
X146060000Y-95260000D03*
%TO.P,U2,8,NC*%
%TO.N,unconnected-(U2-Pad8)*%
X146060000Y-92720000D03*
%TD*%
D13*
%TO.P,R6,1*%
%TO.N,Net-(U1-Pad2)*%
X106680000Y-95250000D03*
D14*
%TO.P,R6,2*%
%TO.N,GND*%
X106680000Y-87630000D03*
%TD*%
D10*
%TO.P,J1,1,Pin_1*%
%TO.N,Net-(J1-Pad1)*%
X124460000Y-121920000D03*
D11*
%TO.P,J1,2,Pin_2*%
%TO.N,GND*%
X127000000Y-121920000D03*
%TO.P,J1,3,Pin_3*%
%TO.N,Net-(J1-Pad3)*%
X129540000Y-121920000D03*
%TD*%
D13*
%TO.P,R3,1*%
%TO.N,Net-(J1-Pad3)*%
X129540000Y-118110000D03*
D14*
%TO.P,R3,2*%
%TO.N,Net-(R3-Pad2)*%
X129540000Y-110490000D03*
%TD*%
D13*
%TO.P,R1,1*%
%TO.N,Net-(J1-Pad1)*%
X124460000Y-118110000D03*
D14*
%TO.P,R1,2*%
%TO.N,Net-(U1-Pad3)*%
X124460000Y-110490000D03*
%TD*%
D10*
%TO.P,J6,1,Pin_1*%
%TO.N,-15V*%
X152400000Y-86360000D03*
D11*
%TO.P,J6,2,Pin_2*%
%TO.N,GND*%
X152400000Y-88900000D03*
%TO.P,J6,3,Pin_3*%
%TO.N,+15V*%
X152400000Y-91440000D03*
%TD*%
D17*
%TO.P,C2,1*%
%TO.N,+15V*%
X144780000Y-88900000D03*
%TO.P,C2,2*%
%TO.N,-15V*%
X139780000Y-88900000D03*
%TD*%
D13*
%TO.P,R2,1*%
%TO.N,Net-(U1-Pad3)*%
X114300000Y-105410000D03*
D14*
%TO.P,R2,2*%
%TO.N,Net-(R2-Pad2)*%
X114300000Y-113030000D03*
%TD*%
D13*
%TO.P,R4,1*%
%TO.N,Net-(R4-Pad1)*%
X142240000Y-113030000D03*
D14*
%TO.P,R4,2*%
%TO.N,Net-(R3-Pad2)*%
X142240000Y-105410000D03*
%TD*%
D12*
%TO.P,RV1,1,1*%
%TO.N,+15V*%
X116840000Y-116840000D03*
%TO.P,RV1,2,2*%
%TO.N,Net-(R2-Pad2)*%
X114300000Y-116840000D03*
%TO.P,RV1,3,3*%
%TO.N,-15V*%
X111760000Y-116840000D03*
%TD*%
D10*
%TO.P,J2,1,Pin_1*%
%TO.N,Net-(U1-Pad1)*%
X121920000Y-96520000D03*
D11*
%TO.P,J2,2,Pin_2*%
%TO.N,Net-(U1-Pad5)*%
X121920000Y-99060000D03*
%TD*%
D10*
%TO.P,J5,1,Pin_1*%
%TO.N,GND*%
X111760000Y-76200000D03*
D11*
%TO.P,J5,2,Pin_2*%
%TO.N,Net-(U1-Pad6)*%
X114300000Y-76200000D03*
%TO.P,J5,3,Pin_3*%
%TO.N,GND*%
X116840000Y-76200000D03*
%TD*%
D17*
%TO.P,C1,1*%
%TO.N,+15V*%
X116840000Y-88900000D03*
%TO.P,C1,2*%
%TO.N,-15V*%
X111840000Y-88900000D03*
%TD*%
D15*
%TO.P,U1,1,NULL*%
%TO.N,Net-(U1-Pad1)*%
X110500000Y-92720000D03*
D16*
%TO.P,U1,2,-*%
%TO.N,Net-(U1-Pad2)*%
X110500000Y-95260000D03*
%TO.P,U1,3,+*%
%TO.N,Net-(U1-Pad3)*%
X110500000Y-97800000D03*
%TO.P,U1,4,V-*%
%TO.N,-15V*%
X110500000Y-100340000D03*
%TO.P,U1,5,NULL*%
%TO.N,Net-(U1-Pad5)*%
X118120000Y-100340000D03*
%TO.P,U1,6*%
%TO.N,Net-(U1-Pad6)*%
X118120000Y-97800000D03*
%TO.P,U1,7,V+*%
%TO.N,+15V*%
X118120000Y-95260000D03*
%TO.P,U1,8,NC*%
%TO.N,unconnected-(U1-Pad8)*%
X118120000Y-92720000D03*
%TD*%
D18*
%TO.N,-15V*%
X148550000Y-86360000D03*
%TO.N,+15V*%
X140970000Y-96520000D03*
%TD*%
D19*
%TO.N,-15V*%
X125720000Y-100340000D02*
X123190000Y-102870000D01*
X123190000Y-102870000D02*
X113030000Y-102870000D01*
X113030000Y-102870000D02*
X110500000Y-100340000D01*
X138440000Y-100340000D02*
X125720000Y-100340000D01*
%TO.N,Net-(J1-Pad1)*%
X124460000Y-121920000D02*
X124460000Y-118110000D01*
%TO.N,Net-(J1-Pad3)*%
X129540000Y-121920000D02*
X129540000Y-118110000D01*
%TO.N,Net-(J4-Pad2)*%
X142240000Y-83820000D02*
X142240000Y-76200000D01*
%TO.N,Net-(U1-Pad6)*%
X114300000Y-83820000D02*
X114300000Y-76200000D01*
%TO.N,-15V*%
X138440000Y-100340000D02*
X138430000Y-100330000D01*
X148550000Y-86360000D02*
X142320000Y-86360000D01*
X152400000Y-86360000D02*
X148550000Y-86360000D01*
X110500000Y-115580000D02*
X111760000Y-116840000D01*
X139700000Y-101600000D02*
X138440000Y-100340000D01*
X110500000Y-100340000D02*
X110500000Y-115580000D01*
X139700000Y-116840000D02*
X139700000Y-101600000D01*
X142320000Y-86360000D02*
X139780000Y-88900000D01*
%TO.N,+15V*%
X124269022Y-96520000D02*
X140970000Y-96520000D01*
X116840000Y-93980000D02*
X118120000Y-95260000D01*
X144780000Y-93980000D02*
X144780000Y-88900000D01*
X116840000Y-88900000D02*
X116840000Y-93980000D01*
X152400000Y-91440000D02*
X148580000Y-95260000D01*
X148580000Y-95260000D02*
X146060000Y-95260000D01*
X146060000Y-95260000D02*
X144780000Y-93980000D01*
X118120000Y-95260000D02*
X123009022Y-95260000D01*
X123009022Y-95260000D02*
X124269022Y-96520000D01*
%TO.N,Net-(U1-Pad3)*%
X112804511Y-106905489D02*
X114300000Y-105410000D01*
X112192652Y-117884511D02*
X112804511Y-117272652D01*
X111327348Y-117884511D02*
X112192652Y-117884511D01*
X124460000Y-110490000D02*
X119380000Y-110490000D01*
X109375489Y-115932652D02*
X111327348Y-117884511D01*
X119380000Y-110490000D02*
X114300000Y-105410000D01*
X110500000Y-97800000D02*
X109375489Y-98924511D01*
X112804511Y-117272652D02*
X112804511Y-106905489D01*
X109375489Y-98924511D02*
X109375489Y-115932652D01*
%TO.N,Net-(R2-Pad2)*%
X114300000Y-116840000D02*
X114300000Y-113030000D01*
%TO.N,Net-(R3-Pad2)*%
X145171010Y-105410000D02*
X142240000Y-105410000D01*
X147855789Y-97885489D02*
X150346499Y-97885489D01*
X151034511Y-99546499D02*
X145171010Y-105410000D01*
X150346499Y-97885489D02*
X151034511Y-98573501D01*
X151034511Y-98573501D02*
X151034511Y-99546499D01*
X138440000Y-97800000D02*
X139855489Y-99215489D01*
X139855489Y-99215489D02*
X146525789Y-99215489D01*
X146525789Y-99215489D02*
X147855789Y-97885489D01*
%TO.N,Net-(R4-Pad1)*%
X142240000Y-116840000D02*
X142240000Y-113030000D01*
%TO.N,Net-(R5-Pad1)*%
X138440000Y-95260000D02*
X137315489Y-94135489D01*
X137315489Y-94135489D02*
X137315489Y-86204511D01*
X137315489Y-86204511D02*
X139700000Y-83820000D01*
X134620000Y-95250000D02*
X138430000Y-95250000D01*
X138430000Y-95250000D02*
X138440000Y-95260000D01*
%TO.N,Net-(U1-Pad2)*%
X110500000Y-95260000D02*
X109375489Y-94135489D01*
X109375489Y-94135489D02*
X109375489Y-86204511D01*
X110490000Y-95250000D02*
X110500000Y-95260000D01*
X106680000Y-95250000D02*
X110490000Y-95250000D01*
X109375489Y-86204511D02*
X111760000Y-83820000D01*
%TO.N,Net-(U1-Pad1)*%
X114300000Y-96520000D02*
X110500000Y-92720000D01*
X121920000Y-96520000D02*
X114300000Y-96520000D01*
%TO.N,Net-(U1-Pad5)*%
X118120000Y-100340000D02*
X120640000Y-100340000D01*
X120640000Y-100340000D02*
X121920000Y-99060000D01*
%TO.N,Net-(J3-Pad1)*%
X142240000Y-96520000D02*
X138440000Y-92720000D01*
X149860000Y-96520000D02*
X142240000Y-96520000D01*
%TO.N,Net-(J3-Pad2)*%
X149860000Y-99060000D02*
X147340000Y-99060000D01*
X147340000Y-99060000D02*
X146060000Y-100340000D01*
%TD*%
M02*
