M48
; DRILL file {KiCad (6.0.1)} date Sun Jan 30 20:50:58 2022
; FORMAT={-:-/ absolute / inch / decimal}
; #@! TF.CreationDate,2022-01-30T20:50:58-08:00
; #@! TF.GenerationSoftware,Kicad,Pcbnew,(6.0.1)
; #@! TF.FileFunction,Plated,1,2,PTH
FMAT,2
INCH
; #@! TA.AperFunction,Plated,PTH,ViaDrill
T1C0.0157
; #@! TA.AperFunction,Plated,PTH,ComponentDrill
T2C0.0276
; #@! TA.AperFunction,Plated,PTH,ComponentDrill
T3C0.0315
; #@! TA.AperFunction,Plated,PTH,ComponentDrill
T4C0.0394
%
G90
G05
T1
X5.55Y-3.8
X5.8484Y-3.4
T2
X4.2Y-3.45
X4.2Y-3.75
X4.5Y-4.15
X4.5Y-4.45
X4.9Y-4.35
X4.9Y-4.65
X5.1Y-4.35
X5.1Y-4.65
X5.3Y-3.45
X5.3Y-3.75
X5.6Y-4.15
X5.6Y-4.45
T3
X4.3504Y-3.6504
X4.3504Y-3.7504
X4.3504Y-3.8504
X4.3504Y-3.9504
X4.4Y-3.3
X4.4Y-4.6
X4.4031Y-3.5
X4.5Y-3.3
X4.5Y-4.6
X4.6Y-3.3
X4.6Y-3.5
X4.6Y-4.6
X4.6504Y-3.6504
X4.6504Y-3.7504
X4.6504Y-3.8504
X4.6504Y-3.9504
X5.4504Y-3.6504
X5.4504Y-3.7504
X5.4504Y-3.8504
X5.4504Y-3.9504
X5.5Y-3.3
X5.5Y-4.6
X5.5031Y-3.5
X5.6Y-3.3
X5.6Y-4.6
X5.7Y-3.3
X5.7Y-3.5
X5.7Y-4.6
X5.7504Y-3.6504
X5.7504Y-3.7504
X5.7504Y-3.8504
X5.7504Y-3.9504
T4
X4.4Y-3.0
X4.5Y-3.0
X4.6Y-3.0
X4.8Y-3.8
X4.8Y-3.9
X4.9Y-4.8
X5.0Y-4.8
X5.1Y-4.8
X5.5Y-3.0
X5.6Y-3.0
X5.7Y-3.0
X5.9Y-3.8
X5.9Y-3.9
X6.0Y-3.4
X6.0Y-3.5
X6.0Y-3.6
T0
M30
