M48
; DRILL file {KiCad (6.0.4)} date Sat Apr 16 00:48:45 2022
; FORMAT={-:-/ absolute / metric / decimal}
; #@! TF.CreationDate,2022-04-16T00:48:45-07:00
; #@! TF.GenerationSoftware,Kicad,Pcbnew,(6.0.4)
; #@! TF.FileFunction,Plated,1,4,PTH
FMAT,2
METRIC
; #@! TA.AperFunction,Plated,PTH,ViaDrill
T1C0.254
; #@! TA.AperFunction,Plated,PTH,ComponentDrill
T2C0.800
; #@! TA.AperFunction,Plated,PTH,ComponentDrill
T3C1.000
; #@! TA.AperFunction,Plated,PTH,ComponentDrill
T4C1.016
; #@! TA.AperFunction,Plated,PTH,ComponentDrill
T5C1.100
%
G90
G05
T1
X-2.845Y71.552
X4.064Y64.643
X5.08Y62.357
X5.537Y113.36
X5.563Y115.291
X7.752Y13.02
X9.906Y13.97
X11.684Y113.792
X15.113Y114.681
X15.113Y114.046
X15.367Y6.35
X18.085Y116.764
X20.255Y6.35
X20.32Y72.898
X20.32Y10.16
X21.908Y111.823
X22.606Y6.604
X22.86Y72.898
X24.257Y10.033
X25.4Y72.898
X25.756Y111.862
X25.845Y11.684
X25.908Y10.033
X27.051Y64.643
X27.445Y6.604
X27.94Y72.898
X27.94Y62.357
X28.88Y62.382
X28.905Y64.618
X30.48Y72.898
X32.385Y10.922
X33.02Y7.112
X33.147Y4.826
X34.544Y7.112
X35.306Y24.13
X35.306Y21.59
X35.306Y10.922
X36.322Y4.826
X37.465Y10.922
X38.1Y7.239
X39.497Y4.953
X39.624Y7.239
X40.386Y10.922
X41.097Y105.943
X42.037Y21.59
X43.434Y24.13
X45.974Y51.816
X46.355Y15.875
X47.625Y92.075
X47.625Y85.725
X49.149Y98.425
X51.429Y100.264
X51.435Y99.314
X51.435Y19.685
X53.848Y104.521
X53.975Y23.495
X54.61Y35.56
X59.055Y27.305
X59.563Y39.37
X61.595Y15.875
X65.659Y28.067
X66.04Y51.816
X66.421Y23.876
X66.548Y19.685
X68.199Y23.876
X68.707Y27.94
X69.774Y105.207
X70.866Y27.94
X71.628Y23.876
X72.517Y33.782
X73.279Y23.876
X73.914Y28.067
X74.295Y33.782
X75.946Y102.87
X76.454Y35.433
X76.581Y97.79
X76.708Y95.377
X77.749Y30.531
X78.232Y97.79
X78.232Y95.25
X78.994Y102.87
X80.391Y30.48
X82.55Y26.797
X83.236Y32.182
X83.566Y102.87
X84.201Y97.79
X84.328Y95.123
X84.455Y27.94
X84.963Y33.909
X85.09Y36.957
X85.725Y27.915
X85.852Y97.79
X85.852Y95.25
X86.614Y102.997
X86.995Y36.957
X86.995Y33.909
X88.265Y22.86
X89.535Y35.56
X90.805Y30.545
X93.345Y30.48
X95.885Y34.671
X95.91Y30.302
X97.815Y30.328
T2
X3.81Y8.89
X6.35Y8.89
X8.89Y8.89
X12.446Y66.04
X12.446Y63.5
X12.446Y60.96
X20.32Y66.05
X20.32Y63.51
X20.32Y60.97
X43.8Y31.445
X46.34Y31.445
X48.88Y31.445
X53.34Y48.26
X53.34Y45.72
X53.34Y43.18
X55.372Y100.838
X55.372Y98.298
X55.372Y95.758
X56.398Y31.369
X58.938Y31.369
X60.858Y48.26
X60.858Y45.72
X60.858Y43.18
X61.478Y31.369
X76.2Y48.26
X76.698Y40.64
X78.74Y48.26
X79.238Y40.64
X81.28Y48.26
X81.778Y40.64
X88.89Y40.64
X88.9Y48.26
X91.43Y40.64
X91.44Y48.26
X93.97Y40.64
X93.98Y48.26
T3
X0.0Y127.0
X0.0Y124.46
X0.0Y115.58
X0.0Y113.04
X0.0Y110.5
X0.0Y107.96
X0.0Y95.25
X0.0Y92.71
X0.0Y90.17
X0.0Y87.63
X0.0Y85.09
X0.0Y82.55
X0.0Y74.92
X0.0Y72.38
X0.0Y69.84
X0.0Y67.3
X0.0Y60.96
X3.81Y21.59
X3.81Y16.51
X3.81Y13.97
X7.62Y139.7
X7.62Y137.16
X7.62Y130.805
X7.62Y128.265
X8.89Y17.78
X10.16Y139.7
X10.16Y137.16
X10.16Y130.805
X10.16Y128.265
X12.7Y139.7
X12.7Y137.16
X12.7Y130.805
X12.7Y128.265
X15.24Y139.7
X15.24Y137.16
X15.24Y130.805
X15.24Y128.265
X15.24Y0.0
X17.78Y139.7
X17.78Y137.16
X17.78Y130.805
X17.78Y128.265
X20.32Y139.7
X20.32Y137.16
X20.32Y130.805
X20.32Y128.265
X20.32Y0.0
X22.86Y139.7
X22.86Y137.16
X22.86Y130.805
X22.86Y128.265
X22.86Y0.0
X25.4Y139.7
X25.4Y137.16
X25.4Y130.805
X25.4Y128.265
X27.94Y139.7
X27.94Y137.16
X27.94Y130.805
X27.94Y128.265
X27.94Y0.0
X30.48Y139.7
X30.48Y137.16
X30.48Y130.805
X30.48Y128.265
X33.02Y139.7
X33.02Y137.16
X33.02Y130.805
X33.02Y128.265
X33.835Y16.04
X33.909Y0.0
X35.56Y139.7
X35.56Y137.16
X35.56Y130.805
X35.56Y128.265
X36.375Y16.04
X36.449Y0.0
X38.1Y139.7
X38.1Y137.16
X38.1Y130.805
X38.1Y128.265
X38.915Y16.04
X38.989Y0.0
X40.64Y139.7
X40.64Y137.16
X40.64Y130.805
X40.64Y128.265
X43.18Y139.7
X43.18Y137.16
X43.18Y130.805
X43.18Y128.265
X45.72Y139.7
X45.72Y137.16
X45.72Y130.805
X45.72Y128.265
X47.6Y12.695
X47.6Y10.155
X47.615Y5.08
X47.615Y0.0
X48.26Y139.7
X48.26Y137.16
X48.26Y130.805
X48.26Y128.265
X50.14Y12.695
X50.14Y10.155
X50.155Y5.08
X50.155Y0.0
X50.8Y139.7
X50.8Y137.16
X50.8Y130.805
X50.8Y128.265
X52.695Y5.08
X52.695Y0.0
X53.34Y139.7
X53.34Y137.16
X53.34Y130.805
X53.34Y128.265
X53.95Y60.96
X53.95Y55.88
X53.95Y53.34
X55.88Y139.7
X55.88Y137.16
X55.88Y130.805
X55.88Y128.265
X56.49Y60.96
X56.49Y55.88
X56.49Y53.34
X59.03Y60.96
X61.57Y60.96
X61.57Y5.08
X61.57Y0.0
X64.11Y5.08
X64.11Y0.0
X64.11Y12.7
X64.11Y10.16
X66.65Y5.08
X66.65Y0.0
X66.65Y12.7
X66.65Y10.16
X73.66Y15.24
X73.66Y10.16
X73.675Y69.85
X76.2Y22.86
X76.2Y20.32
X76.2Y15.24
X76.2Y10.16
X76.215Y69.85
X78.74Y22.86
X78.74Y20.32
X78.74Y15.24
X78.74Y10.16
X78.755Y69.85
X81.28Y69.85
X81.28Y67.31
X83.82Y69.85
X83.82Y67.31
X83.82Y60.96
X83.82Y55.88
X83.82Y53.34
X86.36Y60.96
X86.36Y55.88
X86.36Y53.34
X88.9Y60.96
X88.9Y15.24
X88.9Y10.16
X91.44Y22.86
X91.44Y20.32
X91.44Y15.24
X91.44Y10.16
X93.98Y22.86
X93.98Y20.32
X93.98Y15.24
X93.98Y10.16
T4
X7.62Y95.25
X7.62Y92.71
X7.62Y90.17
X7.62Y87.63
X7.62Y85.09
X7.62Y82.55
X10.16Y96.52
X10.16Y81.28
X12.7Y96.52
X12.7Y81.28
X15.24Y96.52
X15.24Y81.28
X17.78Y96.52
X17.78Y81.28
X18.923Y93.599
X20.32Y96.52
X20.32Y81.28
X21.463Y93.599
X22.86Y96.52
X22.86Y81.28
X25.4Y96.52
X25.4Y81.28
X27.94Y96.52
X27.94Y81.28
X29.337Y93.599
X30.48Y96.52
X30.48Y81.28
X31.877Y93.599
X33.02Y96.52
X33.02Y81.28
X35.56Y96.52
X35.56Y81.28
X38.1Y96.52
X38.1Y81.28
T5
X58.42Y124.46
X58.42Y121.92
X58.42Y119.38
X58.42Y116.84
X58.42Y114.3
X62.23Y130.81
X62.23Y127.0
X62.23Y124.46
X62.23Y121.92
X62.23Y119.38
X62.23Y116.84
X62.23Y114.3
X62.23Y111.76
X62.23Y107.95
X62.23Y88.9
X62.23Y86.36
X62.23Y83.82
X62.23Y81.28
X62.23Y78.74
X62.23Y76.2
X62.23Y73.66
X64.77Y130.81
X64.77Y127.0
X64.77Y111.76
X64.77Y107.95
X64.77Y88.9
X64.77Y73.66
X67.31Y130.81
X67.31Y127.0
X67.31Y124.46
X67.31Y121.92
X67.31Y119.38
X67.31Y116.84
X67.31Y114.3
X67.31Y111.76
X67.31Y107.95
X67.31Y88.9
X67.31Y86.36
X67.31Y83.82
X67.31Y81.28
X67.31Y78.74
X67.31Y76.2
X67.31Y73.66
X69.85Y130.81
X69.85Y127.0
X69.85Y124.46
X69.85Y121.92
X69.85Y119.38
X69.85Y116.84
X69.85Y114.3
X69.85Y111.76
X69.85Y107.95
X69.85Y88.9
X69.85Y86.36
X69.85Y83.82
X69.85Y81.28
X69.85Y78.74
X69.85Y76.2
X69.85Y73.66
X72.39Y130.81
X72.39Y127.0
X72.39Y111.76
X72.39Y107.95
X72.39Y88.9
X72.39Y73.66
X74.93Y130.81
X74.93Y127.0
X74.93Y111.76
X74.93Y107.95
X74.93Y88.9
X74.93Y73.66
X77.47Y130.81
X77.47Y127.0
X77.47Y111.76
X77.47Y107.95
X77.47Y88.9
X77.47Y73.66
X80.01Y130.81
X80.01Y127.0
X80.01Y111.76
X80.01Y107.95
X80.01Y88.9
X80.01Y73.66
X82.55Y130.81
X82.55Y127.0
X82.55Y111.76
X82.55Y107.95
X82.55Y88.9
X82.55Y73.66
X85.09Y130.81
X85.09Y127.0
X85.09Y111.76
X85.09Y107.95
X85.09Y88.9
X85.09Y73.66
X87.63Y130.81
X87.63Y127.0
X87.63Y111.76
X87.63Y107.95
X87.63Y88.9
X87.63Y73.66
X90.17Y130.81
X90.17Y127.0
X90.17Y111.76
X90.17Y107.95
X90.17Y88.9
X90.17Y73.66
X92.71Y130.81
X92.71Y127.0
X92.71Y114.3
X92.71Y111.76
X92.71Y107.95
X92.71Y88.9
X92.71Y76.2
X92.71Y73.66
X95.25Y130.81
X95.25Y127.0
X95.25Y111.76
X95.25Y107.95
X95.25Y88.9
X95.25Y73.66
T0
M30
