%TF.GenerationSoftware,KiCad,Pcbnew,(6.0.4)*%
%TF.CreationDate,2022-04-16T00:48:39-07:00*%
%TF.ProjectId,main_board,6d61696e-5f62-46f6-9172-642e6b696361,rev?*%
%TF.SameCoordinates,PX48ab840PYb340ac0*%
%TF.FileFunction,Soldermask,Top*%
%TF.FilePolarity,Negative*%
%FSLAX46Y46*%
G04 Gerber Fmt 4.6, Leading zero omitted, Abs format (unit mm)*
G04 Created by KiCad (PCBNEW (6.0.4)) date 2022-04-16 00:48:39*
%MOMM*%
%LPD*%
G01*
G04 APERTURE LIST*
G04 Aperture macros list*
%AMRoundRect*
0 Rectangle with rounded corners*
0 $1 Rounding radius*
0 $2 $3 $4 $5 $6 $7 $8 $9 X,Y pos of 4 corners*
0 Add a 4 corners polygon primitive as box body*
4,1,4,$2,$3,$4,$5,$6,$7,$8,$9,$2,$3,0*
0 Add four circle primitives for the rounded corners*
1,1,$1+$1,$2,$3*
1,1,$1+$1,$4,$5*
1,1,$1+$1,$6,$7*
1,1,$1+$1,$8,$9*
0 Add four rect primitives between the rounded corners*
20,1,$1+$1,$2,$3,$4,$5,0*
20,1,$1+$1,$4,$5,$6,$7,0*
20,1,$1+$1,$6,$7,$8,$9,0*
20,1,$1+$1,$8,$9,$2,$3,0*%
G04 Aperture macros list end*
%ADD10C,3.200000*%
%ADD11RoundRect,0.200000X-0.200000X-0.275000X0.200000X-0.275000X0.200000X0.275000X-0.200000X0.275000X0*%
%ADD12RoundRect,0.150000X0.512500X0.150000X-0.512500X0.150000X-0.512500X-0.150000X0.512500X-0.150000X0*%
%ADD13C,1.440000*%
%ADD14RoundRect,0.200000X0.200000X0.275000X-0.200000X0.275000X-0.200000X-0.275000X0.200000X-0.275000X0*%
%ADD15RoundRect,0.250000X-0.325000X-1.100000X0.325000X-1.100000X0.325000X1.100000X-0.325000X1.100000X0*%
%ADD16RoundRect,0.225000X-0.225000X-0.250000X0.225000X-0.250000X0.225000X0.250000X-0.225000X0.250000X0*%
%ADD17RoundRect,0.200000X0.275000X-0.200000X0.275000X0.200000X-0.275000X0.200000X-0.275000X-0.200000X0*%
%ADD18RoundRect,0.150000X-0.825000X-0.150000X0.825000X-0.150000X0.825000X0.150000X-0.825000X0.150000X0*%
%ADD19R,2.290000X3.000000*%
%ADD20RoundRect,0.200000X-0.275000X0.200000X-0.275000X-0.200000X0.275000X-0.200000X0.275000X0.200000X0*%
%ADD21R,1.700000X1.700000*%
%ADD22O,1.700000X1.700000*%
%ADD23RoundRect,0.150000X0.150000X-0.825000X0.150000X0.825000X-0.150000X0.825000X-0.150000X-0.825000X0*%
%ADD24RoundRect,0.150000X0.825000X0.150000X-0.825000X0.150000X-0.825000X-0.150000X0.825000X-0.150000X0*%
%ADD25R,1.600000X0.300000*%
%ADD26RoundRect,0.250000X0.325000X1.100000X-0.325000X1.100000X-0.325000X-1.100000X0.325000X-1.100000X0*%
%ADD27RoundRect,0.150000X0.150000X-0.512500X0.150000X0.512500X-0.150000X0.512500X-0.150000X-0.512500X0*%
%ADD28RoundRect,0.150000X-0.150000X0.825000X-0.150000X-0.825000X0.150000X-0.825000X0.150000X0.825000X0*%
%ADD29R,3.000000X2.290000*%
%ADD30RoundRect,0.218750X0.256250X-0.218750X0.256250X0.218750X-0.256250X0.218750X-0.256250X-0.218750X0*%
%ADD31C,1.879600*%
%ADD32RoundRect,0.150000X0.150000X-0.587500X0.150000X0.587500X-0.150000X0.587500X-0.150000X-0.587500X0*%
%ADD33RoundRect,0.250000X-0.450000X0.262500X-0.450000X-0.262500X0.450000X-0.262500X0.450000X0.262500X0*%
%ADD34C,1.600000*%
%ADD35RoundRect,0.225000X0.225000X0.250000X-0.225000X0.250000X-0.225000X-0.250000X0.225000X-0.250000X0*%
%ADD36R,1.000000X1.600000*%
%ADD37RoundRect,0.250000X0.450000X-0.262500X0.450000X0.262500X-0.450000X0.262500X-0.450000X-0.262500X0*%
G04 APERTURE END LIST*
D10*
%TO.C,REF\u002A\u002A*%
X93980000Y0D03*
%TD*%
%TO.C,REF\u002A\u002A*%
X0Y0D03*
%TD*%
%TO.C,REF\u002A\u002A*%
X0Y137160000D03*
%TD*%
%TO.C,REF\u002A\u002A*%
X93980000Y137160000D03*
%TD*%
D11*
%TO.C,R51*%
X64453000Y51816000D03*
X66103000Y51816000D03*
%TD*%
%TO.C,R50*%
X61151000Y51816000D03*
X62801000Y51816000D03*
%TD*%
%TO.C,R49*%
X49213000Y51816000D03*
X50863000Y51816000D03*
%TD*%
%TO.C,R48*%
X45911000Y51816000D03*
X47561000Y51816000D03*
%TD*%
D12*
%TO.C,U17*%
X7807500Y113350000D03*
X7807500Y114300000D03*
X7807500Y115250000D03*
X5532500Y115250000D03*
X5532500Y113350000D03*
%TD*%
D13*
%TO.C,InputB_Gain1*%
X60858400Y43180000D03*
X60858400Y45720000D03*
X60858400Y48260000D03*
%TD*%
D14*
%TO.C,R5*%
X51879000Y24892000D03*
X50229000Y24892000D03*
%TD*%
D15*
%TO.C,C20*%
X65835000Y27940000D03*
X68785000Y27940000D03*
%TD*%
D11*
%TO.C,R34*%
X90615000Y27940000D03*
X92265000Y27940000D03*
%TD*%
D13*
%TO.C,GalvoB_Gain1*%
X76698000Y40640000D03*
X79238000Y40640000D03*
X81778000Y40640000D03*
%TD*%
D16*
%TO.C,C6*%
X22720991Y10033000D03*
X24270991Y10033000D03*
%TD*%
D17*
%TO.C,R14*%
X48870006Y43625000D03*
X48870006Y45275000D03*
%TD*%
D18*
%TO.C,U7*%
X54650006Y39370000D03*
X54650006Y38100000D03*
X54650006Y36830000D03*
X54650006Y35560000D03*
X59600006Y35560000D03*
X59600006Y36830000D03*
X59600006Y38100000D03*
X59600006Y39370000D03*
D19*
X57125006Y37465000D03*
%TD*%
D20*
%TO.C,R28*%
X72390000Y33845000D03*
X72390000Y32195000D03*
%TD*%
D21*
%TO.C,J3*%
X7620000Y128265000D03*
D22*
X7620000Y130805000D03*
X10160000Y128265000D03*
X10160000Y130805000D03*
X12700000Y128265000D03*
X12700000Y130805000D03*
X15240000Y128265000D03*
X15240000Y130805000D03*
X17780000Y128265000D03*
X17780000Y130805000D03*
X20320000Y128265000D03*
X20320000Y130805000D03*
X22860000Y128265000D03*
X22860000Y130805000D03*
X25400000Y128265000D03*
X25400000Y130805000D03*
X27940000Y128265000D03*
X27940000Y130805000D03*
X30480000Y128265000D03*
X30480000Y130805000D03*
X33020000Y128265000D03*
X33020000Y130805000D03*
X35560000Y128265000D03*
X35560000Y130805000D03*
X38100000Y128265000D03*
X38100000Y130805000D03*
X40640000Y128265000D03*
X40640000Y130805000D03*
X43180000Y128265000D03*
X43180000Y130805000D03*
X45720000Y128265000D03*
X45720000Y130805000D03*
X48260000Y128265000D03*
X48260000Y130805000D03*
X50800000Y128265000D03*
X50800000Y130805000D03*
X53340000Y128265000D03*
X53340000Y130805000D03*
X55880000Y128265000D03*
X55880000Y130805000D03*
%TD*%
D21*
%TO.C,TP2*%
X8890000Y17780000D03*
%TD*%
%TO.C,J20*%
X88900000Y60960000D03*
D22*
X86360000Y60960000D03*
X83820000Y60960000D03*
%TD*%
D23*
%TO.C,U15*%
X18100000Y111825000D03*
X19370000Y111825000D03*
X20640000Y111825000D03*
X21910000Y111825000D03*
X23180000Y111825000D03*
X24450000Y111825000D03*
X25720000Y111825000D03*
X25720000Y116775000D03*
X24450000Y116775000D03*
X23180000Y116775000D03*
X21910000Y116775000D03*
X20640000Y116775000D03*
X19370000Y116775000D03*
X18100000Y116775000D03*
%TD*%
D11*
%TO.C,R35*%
X85535000Y30480000D03*
X87185000Y30480000D03*
%TD*%
D21*
%TO.C,J21*%
X86360000Y55880000D03*
D22*
X86360000Y53340000D03*
X83820000Y55880000D03*
X83820000Y53340000D03*
%TD*%
D13*
%TO.C,GalvoA_Offset1*%
X88900000Y48260000D03*
X91440000Y48260000D03*
X93980000Y48260000D03*
%TD*%
D11*
%TO.C,R16*%
X89345000Y53340000D03*
X90995000Y53340000D03*
%TD*%
D24*
%TO.C,U14*%
X20255000Y6350000D03*
X20255000Y7620000D03*
X20255000Y8890000D03*
X20255000Y10160000D03*
X15305000Y10160000D03*
X15305000Y8890000D03*
X15305000Y7620000D03*
X15305000Y6350000D03*
D19*
X17780000Y8255000D03*
%TD*%
D16*
%TO.C,C12*%
X76695000Y95250000D03*
X78245000Y95250000D03*
%TD*%
D21*
%TO.C,J7*%
X3810000Y13970000D03*
D22*
X3810000Y16510000D03*
%TD*%
D21*
%TO.C,J23*%
X78740000Y22860000D03*
D22*
X78740000Y20320000D03*
X76200000Y22860000D03*
X76200000Y20320000D03*
%TD*%
D25*
%TO.C,U18*%
X13450000Y113325000D03*
X13450000Y113975000D03*
X13450000Y114625000D03*
X13450000Y115275000D03*
X10050000Y115275000D03*
X10050000Y114625000D03*
X10050000Y113975000D03*
X10050000Y113325000D03*
%TD*%
D21*
%TO.C,J22*%
X33835000Y16040000D03*
D22*
X36375000Y16040000D03*
X38915000Y16040000D03*
%TD*%
D21*
%TO.C,J24*%
X93980000Y22860000D03*
D22*
X93980000Y20320000D03*
X91440000Y22860000D03*
X91440000Y20320000D03*
%TD*%
D26*
%TO.C,C18*%
X40375000Y10960000D03*
X37425000Y10960000D03*
%TD*%
D13*
%TO.C,Cam_Input1*%
X20320000Y66050000D03*
X20320000Y63510000D03*
X20320000Y60970000D03*
%TD*%
D27*
%TO.C,U9*%
X4130000Y62362500D03*
X5080000Y62362500D03*
X6030000Y62362500D03*
X6030000Y64637500D03*
X4130000Y64637500D03*
%TD*%
D17*
%TO.C,R44*%
X30480000Y76645000D03*
X30480000Y78295000D03*
%TD*%
D28*
%TO.C,U5*%
X88265000Y27875000D03*
X86995000Y27875000D03*
X85725000Y27875000D03*
X84455000Y27875000D03*
X84455000Y22925000D03*
X85725000Y22925000D03*
X86995000Y22925000D03*
X88265000Y22925000D03*
D29*
X86360000Y25400000D03*
%TD*%
D13*
%TO.C,Cam_Output1*%
X12446000Y66040000D03*
X12446000Y63500000D03*
X12446000Y60960000D03*
%TD*%
%TO.C,InputA_Gain1*%
X53340000Y43180000D03*
X53340000Y45720000D03*
X53340000Y48260000D03*
%TD*%
D21*
%TO.C,J27*%
X7620000Y137160000D03*
D22*
X7620000Y139700000D03*
X10160000Y137160000D03*
X10160000Y139700000D03*
X12700000Y137160000D03*
X12700000Y139700000D03*
X15240000Y137160000D03*
X15240000Y139700000D03*
X17780000Y137160000D03*
X17780000Y139700000D03*
X20320000Y137160000D03*
X20320000Y139700000D03*
X22860000Y137160000D03*
X22860000Y139700000D03*
X25400000Y137160000D03*
X25400000Y139700000D03*
X27940000Y137160000D03*
X27940000Y139700000D03*
X30480000Y137160000D03*
X30480000Y139700000D03*
X33020000Y137160000D03*
X33020000Y139700000D03*
X35560000Y137160000D03*
X35560000Y139700000D03*
X38100000Y137160000D03*
X38100000Y139700000D03*
X40640000Y137160000D03*
X40640000Y139700000D03*
X43180000Y137160000D03*
X43180000Y139700000D03*
X45720000Y137160000D03*
X45720000Y139700000D03*
X48260000Y137160000D03*
X48260000Y139700000D03*
X50800000Y137160000D03*
X50800000Y139700000D03*
X53340000Y137160000D03*
X53340000Y139700000D03*
X55880000Y137160000D03*
X55880000Y139700000D03*
%TD*%
D21*
%TO.C,TP5*%
X27940000Y0D03*
%TD*%
%TO.C,J14*%
X47615000Y5080000D03*
D22*
X50155000Y5080000D03*
X52695000Y5080000D03*
%TD*%
D16*
%TO.C,C2*%
X40500000Y21590000D03*
X42050000Y21590000D03*
%TD*%
D13*
%TO.C,GalvoB_Offset1*%
X76200000Y48260000D03*
X78740000Y48260000D03*
X81280000Y48260000D03*
%TD*%
D17*
%TO.C,R11*%
X64516000Y35370000D03*
X64516000Y37020000D03*
%TD*%
D21*
%TO.C,J19*%
X61570000Y60960000D03*
D22*
X59030000Y60960000D03*
X56490000Y60960000D03*
X53950000Y60960000D03*
%TD*%
D21*
%TO.C,J8*%
X33909000Y0D03*
D22*
X36449000Y0D03*
X38989000Y0D03*
%TD*%
D20*
%TO.C,R32*%
X82550000Y26860000D03*
X82550000Y25210000D03*
%TD*%
D18*
%TO.C,U2*%
X46395006Y19685000D03*
X46395006Y18415000D03*
X46395006Y17145000D03*
X46395006Y15875000D03*
X51345006Y15875000D03*
X51345006Y17145000D03*
X51345006Y18415000D03*
X51345006Y19685000D03*
D19*
X48870006Y17780000D03*
%TD*%
D16*
%TO.C,C10*%
X84315000Y97790000D03*
X85865000Y97790000D03*
%TD*%
D15*
%TO.C,C14*%
X75995000Y102870000D03*
X78945000Y102870000D03*
%TD*%
D11*
%TO.C,R39*%
X25845000Y11684000D03*
X27495000Y11684000D03*
%TD*%
D18*
%TO.C,U3*%
X61635006Y19685000D03*
X61635006Y18415000D03*
X61635006Y17145000D03*
X61635006Y15875000D03*
X66585006Y15875000D03*
X66585006Y17145000D03*
X66585006Y18415000D03*
X66585006Y19685000D03*
D19*
X64110006Y17780000D03*
%TD*%
D30*
%TO.C,D3*%
X20320000Y72872500D03*
X20320000Y74447500D03*
%TD*%
D16*
%TO.C,C5*%
X25895000Y10033000D03*
X27445000Y10033000D03*
%TD*%
D21*
%TO.C,J26*%
X73660000Y10160000D03*
D22*
X76200000Y10160000D03*
X78740000Y10160000D03*
%TD*%
D14*
%TO.C,R18*%
X80835000Y53340000D03*
X79185000Y53340000D03*
%TD*%
%TO.C,R43*%
X24320991Y6604000D03*
X22670991Y6604000D03*
%TD*%
D20*
%TO.C,R22*%
X85090000Y37020000D03*
X85090000Y35370000D03*
%TD*%
D31*
%TO.C,U16*%
X7620000Y95250000D03*
X7620000Y92710000D03*
X7620000Y90170000D03*
X7620000Y87630000D03*
X7620000Y85090000D03*
X7620000Y82550000D03*
X21463000Y93599000D03*
X18923000Y93599000D03*
X31877000Y93599000D03*
X29337000Y93599000D03*
X10160000Y96520000D03*
X12700000Y96520000D03*
X15240000Y96520000D03*
X17780000Y96520000D03*
X20320000Y96520000D03*
X22860000Y96520000D03*
X25400000Y96520000D03*
X27940000Y96520000D03*
X30480000Y96520000D03*
X33020000Y96520000D03*
X35560000Y96520000D03*
X38100000Y96520000D03*
X38100000Y81280000D03*
X35560000Y81280000D03*
X33020000Y81280000D03*
X30480000Y81280000D03*
X27940000Y81280000D03*
X25400000Y81280000D03*
X22860000Y81280000D03*
X20320000Y81280000D03*
X17780000Y81280000D03*
X15240000Y81280000D03*
X12700000Y81280000D03*
X10160000Y81280000D03*
%TD*%
D11*
%TO.C,R37*%
X85535000Y20320000D03*
X87185000Y20320000D03*
%TD*%
D21*
%TO.C,J12*%
X20320000Y0D03*
D22*
X22860000Y0D03*
%TD*%
D21*
%TO.C,J5*%
X81280000Y67310000D03*
D22*
X81280000Y69850000D03*
X83820000Y67310000D03*
X83820000Y69850000D03*
%TD*%
D20*
%TO.C,R30*%
X83185000Y33845000D03*
X83185000Y32195000D03*
%TD*%
D16*
%TO.C,C13*%
X84315000Y95250000D03*
X85865000Y95250000D03*
%TD*%
D21*
%TO.C,J18*%
X53950006Y53340000D03*
D22*
X53950006Y55880000D03*
X56490006Y53340000D03*
X56490006Y55880000D03*
%TD*%
D17*
%TO.C,R13*%
X65380006Y43625000D03*
X65380006Y45275000D03*
%TD*%
D27*
%TO.C,U8*%
X26990000Y62362500D03*
X27940000Y62362500D03*
X28890000Y62362500D03*
X28890000Y64637500D03*
X26990000Y64637500D03*
%TD*%
D21*
%TO.C,J25*%
X88900000Y15240000D03*
D22*
X91440000Y15240000D03*
X93980000Y15240000D03*
%TD*%
D30*
%TO.C,D4*%
X25400000Y72872500D03*
X25400000Y74447500D03*
%TD*%
D11*
%TO.C,R36*%
X77915000Y27940000D03*
X79565000Y27940000D03*
%TD*%
D21*
%TO.C,J6*%
X73675000Y69850000D03*
D22*
X76215000Y69850000D03*
X78755000Y69850000D03*
%TD*%
D17*
%TO.C,R8*%
X61087000Y24575000D03*
X61087000Y26225000D03*
%TD*%
%TO.C,R46*%
X25400000Y76645000D03*
X25400000Y78295000D03*
%TD*%
D16*
%TO.C,C8*%
X66535000Y23879988D03*
X68085000Y23879988D03*
%TD*%
D32*
%TO.C,Q1*%
X51882000Y104472500D03*
X53782000Y104472500D03*
X52832000Y106347500D03*
%TD*%
D30*
%TO.C,D2*%
X27940000Y72872500D03*
X27940000Y74447500D03*
%TD*%
D21*
%TO.C,J15*%
X61570000Y5080000D03*
D22*
X64110000Y5080000D03*
X66650000Y5080000D03*
%TD*%
D20*
%TO.C,R31*%
X83185000Y37020000D03*
X83185000Y35370000D03*
%TD*%
D16*
%TO.C,C1*%
X35279995Y21590000D03*
X36829995Y21590000D03*
%TD*%
D20*
%TO.C,R10*%
X46330006Y37020000D03*
X46330006Y35370000D03*
%TD*%
D13*
%TO.C,InputB_offset1*%
X61478000Y31369000D03*
X58938000Y31369000D03*
X56398000Y31369000D03*
%TD*%
D17*
%TO.C,R12*%
X62865000Y35370000D03*
X62865000Y37020000D03*
%TD*%
D11*
%TO.C,R1*%
X50229000Y23368000D03*
X51879000Y23368000D03*
%TD*%
D15*
%TO.C,C17*%
X40435000Y24130000D03*
X43385000Y24130000D03*
%TD*%
D21*
%TO.C,J16*%
X47600006Y10154996D03*
D22*
X47600006Y12694996D03*
X50140006Y10154996D03*
X50140006Y12694996D03*
%TD*%
D21*
%TO.C,J13*%
X0Y127000000D03*
D22*
X0Y124460000D03*
%TD*%
D21*
%TO.C,J28*%
X0Y95250000D03*
D22*
X0Y92710000D03*
X0Y90170000D03*
X0Y87630000D03*
X0Y85090000D03*
X0Y82550000D03*
%TD*%
D33*
%TO.C,FB3*%
X33184998Y4887498D03*
X33184998Y3062498D03*
%TD*%
D20*
%TO.C,R25*%
X95885000Y31940000D03*
X95885000Y30290000D03*
%TD*%
D12*
%TO.C,U12*%
X10027500Y13020000D03*
X10027500Y13970000D03*
X10027500Y14920000D03*
X7752500Y14920000D03*
X7752500Y13020000D03*
%TD*%
D14*
%TO.C,R40*%
X27495000Y8382000D03*
X25845000Y8382000D03*
%TD*%
D20*
%TO.C,R15*%
X-2844800Y71564000D03*
X-2844800Y69914000D03*
%TD*%
%TO.C,R29*%
X74295000Y33845000D03*
X74295000Y32195000D03*
%TD*%
D14*
%TO.C,R4*%
X62674000Y21844000D03*
X61024000Y21844000D03*
%TD*%
D20*
%TO.C,R21*%
X95885000Y36385000D03*
X95885000Y34735000D03*
%TD*%
D13*
%TO.C,Prog1*%
X55372000Y95758000D03*
X55372000Y98298000D03*
X55372000Y100838000D03*
%TD*%
D15*
%TO.C,C16*%
X35355000Y24130000D03*
X38305000Y24130000D03*
%TD*%
D21*
%TO.C,J11*%
X0Y107960000D03*
D22*
X0Y110500000D03*
X0Y113040000D03*
X0Y115580000D03*
%TD*%
D21*
%TO.C,TP1*%
X0Y60960000D03*
%TD*%
%TO.C,TP3*%
X3810000Y21590000D03*
%TD*%
D34*
%TO.C,U11*%
X95250000Y88900000D03*
X92710000Y88900000D03*
X90170000Y88900000D03*
X87630000Y88900000D03*
X85090000Y88900000D03*
X82550000Y88900000D03*
X80010000Y88900000D03*
X77470000Y88900000D03*
X74930000Y88900000D03*
X72390000Y88900000D03*
X69850000Y88900000D03*
X67310000Y88900000D03*
X64770000Y88900000D03*
X62230000Y88900000D03*
X62230000Y86360000D03*
X62230000Y83820000D03*
X62230000Y81280000D03*
X62230000Y78740000D03*
X62230000Y76200000D03*
X62230000Y73660000D03*
X64770000Y73660000D03*
X67310000Y73660000D03*
X69850000Y73660000D03*
X72390000Y73660000D03*
X74930000Y73660000D03*
X77470000Y73660000D03*
X80010000Y73660000D03*
X82550000Y73660000D03*
X85090000Y73660000D03*
X87630000Y73660000D03*
X90170000Y73660000D03*
X92710000Y73660000D03*
X95250000Y73660000D03*
X92710000Y76200000D03*
X67310000Y76200000D03*
X69850000Y76200000D03*
X67310000Y78740000D03*
X69850000Y78740000D03*
X67310000Y81280000D03*
X69850000Y81280000D03*
X67310000Y83820000D03*
X69850000Y83820000D03*
X67310000Y86360000D03*
X69850000Y86360000D03*
%TD*%
D35*
%TO.C,C7*%
X27445000Y6604000D03*
X25895000Y6604000D03*
%TD*%
D11*
%TO.C,R17*%
X92520000Y53340000D03*
X94170000Y53340000D03*
%TD*%
%TO.C,R2*%
X53760006Y18415000D03*
X55410006Y18415000D03*
%TD*%
D17*
%TO.C,R9*%
X48235006Y35370000D03*
X48235006Y37020000D03*
%TD*%
D11*
%TO.C,R19*%
X76010000Y53340000D03*
X77660000Y53340000D03*
%TD*%
D14*
%TO.C,R41*%
X24320991Y8382000D03*
X22670991Y8382000D03*
%TD*%
%TO.C,R42*%
X27495000Y4826000D03*
X25845000Y4826000D03*
%TD*%
D17*
%TO.C,R7*%
X63119000Y23813000D03*
X63119000Y25463000D03*
%TD*%
D21*
%TO.C,J9*%
X88900000Y10160000D03*
D22*
X91440000Y10160000D03*
X93980000Y10160000D03*
%TD*%
D12*
%TO.C,U13*%
X51429500Y98364000D03*
X51429500Y99314000D03*
X51429500Y100264000D03*
X49154500Y100264000D03*
X49154500Y98364000D03*
%TD*%
D17*
%TO.C,R45*%
X27940000Y76645000D03*
X27940000Y78295000D03*
%TD*%
D16*
%TO.C,C11*%
X76695000Y97790000D03*
X78245000Y97790000D03*
%TD*%
D20*
%TO.C,R27*%
X86995000Y33845000D03*
X86995000Y32195000D03*
%TD*%
D35*
%TO.C,C4*%
X34594998Y7149998D03*
X33044998Y7149998D03*
%TD*%
D21*
%TO.C,J17*%
X64110006Y10160000D03*
D22*
X64110006Y12700000D03*
X66650006Y10160000D03*
X66650006Y12700000D03*
%TD*%
D15*
%TO.C,C15*%
X83615000Y102870000D03*
X86565000Y102870000D03*
%TD*%
D13*
%TO.C,LED_Trigger1*%
X8890000Y8890000D03*
X6350000Y8890000D03*
X3810000Y8890000D03*
%TD*%
D20*
%TO.C,R24*%
X97790000Y31940000D03*
X97790000Y30290000D03*
%TD*%
D14*
%TO.C,R6*%
X55435000Y20066000D03*
X53785000Y20066000D03*
%TD*%
D26*
%TO.C,C19*%
X35295000Y10960000D03*
X32345000Y10960000D03*
%TD*%
D30*
%TO.C,D1*%
X30480000Y72872500D03*
X30480000Y74447500D03*
%TD*%
D35*
%TO.C,C3*%
X39674998Y7149998D03*
X38124998Y7149998D03*
%TD*%
D33*
%TO.C,FB1*%
X39534998Y4887498D03*
X39534998Y3062498D03*
%TD*%
D17*
%TO.C,R56*%
X20320000Y76645000D03*
X20320000Y78295000D03*
%TD*%
D14*
%TO.C,R20*%
X72580000Y40640000D03*
X70930000Y40640000D03*
%TD*%
D28*
%TO.C,U4*%
X80325011Y35495000D03*
X79055011Y35495000D03*
X77785011Y35495000D03*
X76515011Y35495000D03*
X76515011Y30545000D03*
X77785011Y30545000D03*
X79055011Y30545000D03*
X80325011Y30545000D03*
D29*
X78420011Y33020000D03*
%TD*%
D13*
%TO.C,InputA_offset1*%
X48879600Y31445200D03*
X46339600Y31445200D03*
X43799600Y31445200D03*
%TD*%
D16*
%TO.C,C9*%
X71615000Y23840008D03*
X73165000Y23840008D03*
%TD*%
D21*
%TO.C,TP4*%
X15240000Y0D03*
%TD*%
D34*
%TO.C,U10*%
X95250000Y130810000D03*
X95250000Y127000000D03*
X92710000Y127000000D03*
X92710000Y130810000D03*
X90170000Y127000000D03*
X90170000Y130810000D03*
X87630000Y130810000D03*
X87630000Y127000000D03*
X85090000Y127000000D03*
X85090000Y130810000D03*
X82550000Y130810000D03*
X82550000Y127000000D03*
X80010000Y130810000D03*
X80010000Y127000000D03*
X77470000Y130810000D03*
X77470000Y127000000D03*
X74930000Y130810000D03*
X74930000Y127000000D03*
X72390000Y130810000D03*
X72390000Y127000000D03*
X69850000Y127000000D03*
X69850000Y130810000D03*
X67310000Y127000000D03*
X67310000Y130810000D03*
X64770000Y127000000D03*
X64770000Y130810000D03*
X62230000Y127000000D03*
X62230000Y130810000D03*
X58420000Y124460000D03*
X62230000Y124460000D03*
X58420000Y121920000D03*
X62230000Y121920000D03*
X62230000Y119380000D03*
X58420000Y119380000D03*
X58420000Y116840000D03*
X62230000Y116840000D03*
X58420000Y114300000D03*
X62230000Y114300000D03*
X62230000Y107950000D03*
X62230000Y111760000D03*
X64770000Y111760000D03*
X64770000Y107950000D03*
X67310000Y111760000D03*
X67310000Y107950000D03*
X69850000Y107950000D03*
X69850000Y111760000D03*
X72390000Y107950000D03*
X72390000Y111760000D03*
X74930000Y107950000D03*
X74930000Y111760000D03*
X77470000Y107950000D03*
X77470000Y111760000D03*
X80010000Y111760000D03*
X80010000Y107950000D03*
X82550000Y107950000D03*
X82550000Y111760000D03*
X85090000Y107950000D03*
X85090000Y111760000D03*
X87630000Y107950000D03*
X87630000Y111760000D03*
X90170000Y111760000D03*
X90170000Y107950000D03*
X92710000Y111760000D03*
X92710000Y107950000D03*
X95250000Y111760000D03*
X95250000Y107950000D03*
X92710000Y114300000D03*
X67310000Y114300000D03*
X69850000Y114300000D03*
X67310000Y116840000D03*
X69850000Y116840000D03*
X67310000Y119380000D03*
X69850000Y119380000D03*
X67310000Y121920000D03*
X69850000Y121920000D03*
X67310000Y124460000D03*
X69850000Y124460000D03*
%TD*%
D13*
%TO.C,GalvoA_Gain1*%
X88890000Y40640000D03*
X91430000Y40640000D03*
X93970000Y40640000D03*
%TD*%
D18*
%TO.C,U6*%
X54015006Y27305000D03*
X54015006Y26035000D03*
X54015006Y24765000D03*
X54015006Y23495000D03*
X58965006Y23495000D03*
X58965006Y24765000D03*
X58965006Y26035000D03*
X58965006Y27305000D03*
D19*
X56490006Y25400000D03*
%TD*%
D17*
%TO.C,R3*%
X64770000Y22162000D03*
X64770000Y23812000D03*
%TD*%
%TO.C,R47*%
X22860000Y76645000D03*
X22860000Y78295000D03*
%TD*%
D15*
%TO.C,C21*%
X70915000Y27940000D03*
X73865000Y27940000D03*
%TD*%
D20*
%TO.C,R26*%
X85090000Y33845000D03*
X85090000Y32195000D03*
%TD*%
D28*
%TO.C,U1*%
X93345000Y35495000D03*
X92075000Y35495000D03*
X90805000Y35495000D03*
X89535000Y35495000D03*
X89535000Y30545000D03*
X90805000Y30545000D03*
X92075000Y30545000D03*
X93345000Y30545000D03*
D29*
X91440000Y33020000D03*
%TD*%
D11*
%TO.C,R38*%
X49975000Y102108000D03*
X51625000Y102108000D03*
%TD*%
D36*
%TO.C,S1*%
X47620000Y92100000D03*
X47620000Y85700000D03*
X43820000Y92100000D03*
X43820000Y85700000D03*
%TD*%
D20*
%TO.C,R23*%
X86995000Y37020000D03*
X86995000Y35370000D03*
%TD*%
D21*
%TO.C,J4*%
X0Y74920000D03*
D22*
X0Y72380000D03*
X0Y69840000D03*
X0Y67300000D03*
%TD*%
D14*
%TO.C,R33*%
X87185000Y18415000D03*
X85535000Y18415000D03*
%TD*%
D37*
%TO.C,FB2*%
X36359998Y3062498D03*
X36359998Y4887498D03*
%TD*%
D30*
%TO.C,D5*%
X22860000Y72872500D03*
X22860000Y74447500D03*
%TD*%
D21*
%TO.C,J1*%
X61570000Y0D03*
D22*
X64110000Y0D03*
X66650000Y0D03*
%TD*%
D21*
%TO.C,J10*%
X73660000Y15240000D03*
D22*
X76200000Y15240000D03*
X78740000Y15240000D03*
%TD*%
D21*
%TO.C,J2*%
X47615000Y0D03*
D22*
X50155000Y0D03*
X52695000Y0D03*
%TD*%
M02*
